<svg width="362" height="280" viewBox="0 0 362 280" fill="none" xmlns="http://www.w3.org/2000/svg">
<path d="M140 9C157.203 9 174.238 12.3884 190.132 18.9718C206.025 25.5552 220.467 35.2045 232.631 47.369C244.795 59.5335 254.445 73.9748 261.028 89.8685C267.612 105.762 271 122.797 271 140C271 157.203 267.612 174.238 261.028 190.132C254.445 206.025 244.795 220.467 232.631 232.631C220.466 244.795 206.025 254.445 190.131 261.028C174.238 267.612 157.203 271 140 271C122.797 271 105.762 267.612 89.8684 261.028C73.9748 254.445 59.5334 244.795 47.369 232.631C35.2045 220.466 25.5551 206.025 18.9718 190.131C12.3884 174.238 8.99999 157.203 9 140C9.00001 122.797 12.3884 105.762 18.9718 89.8684C25.5552 73.9748 35.2046 59.5334 47.3691 47.369C59.5335 35.2045 73.9749 25.5551 89.8685 18.9718C105.762 12.3884 122.797 8.99999 140 9L140 9Z" stroke="#F2F4F7" stroke-width="18" stroke-linecap="round" stroke-linejoin="round"/>
<path d="M140 9C169.984 9 199.06 19.2857 222.374 38.1398C245.688 56.9939 261.829 83.2751 268.101 112.595C274.374 141.916 270.398 172.5 256.839 199.243C243.279 225.985 220.956 247.267 193.596 259.534C166.237 271.802 135.497 274.312 106.51 266.647C77.5227 258.982 52.0421 241.604 34.3227 217.417C16.6034 193.229 7.71774 163.694 9.14942 133.745C10.5811 103.795 22.2434 75.2434 42.1892 52.8561" stroke="#356D00" stroke-width="18" stroke-linecap="round" stroke-linejoin="round"/>
<path d="M140 33C154.051 33 167.965 35.7676 180.947 41.1449C193.929 46.5221 205.725 54.4037 215.66 64.3396C225.596 74.2755 233.478 86.071 238.855 99.0529C244.232 112.035 247 125.949 247 140C247 154.051 244.232 167.965 238.855 180.947C233.478 193.929 225.596 205.725 215.66 215.66C205.725 225.596 193.929 233.478 180.947 238.855C167.965 244.232 154.051 247 140 247C125.949 247 112.035 244.232 99.0528 238.855C86.071 233.478 74.2754 225.596 64.3395 215.66C54.4037 205.725 46.5221 193.929 41.1449 180.947C35.7676 167.965 33 154.051 33 140C33 125.949 35.7677 112.035 41.1449 99.0528C46.5222 86.071 54.4037 74.2754 64.3396 64.3395C74.2755 54.4037 86.0711 46.5221 99.0529 41.1449C112.035 35.7676 125.949 33 140 33L140 33Z" stroke="#F2F4F7" stroke-width="18" stroke-linecap="round" stroke-linejoin="round"/>
<path d="M140 33C158.589 33 176.857 37.8426 193.004 47.0508C209.152 56.259 222.622 69.515 232.088 85.513C241.554 101.511 246.688 119.699 246.986 138.285C247.284 156.871 242.735 175.215 233.787 191.508" stroke="#4D9E00" stroke-width="18" stroke-linecap="round" stroke-linejoin="round"/>
<path d="M107.967 126.818V153H103.224V131.433H103.07L96.9467 135.345V130.999L103.454 126.818H107.967ZM117.937 149.42L117.771 150.827C117.652 151.901 117.439 152.991 117.132 154.099C116.834 155.216 116.518 156.243 116.186 157.18C115.854 158.118 115.585 158.855 115.381 159.392H112.261C112.381 158.872 112.542 158.165 112.747 157.27C112.96 156.375 113.165 155.369 113.361 154.253C113.557 153.136 113.689 152.003 113.757 150.852L113.846 149.42H117.937ZM122.465 153L133.6 130.96V130.781H120.675V126.818H138.509V130.871L127.387 153H122.465ZM150.941 153.358C149.688 153.349 148.465 153.132 147.272 152.706C146.079 152.271 145.005 151.568 144.05 150.597C143.096 149.616 142.337 148.317 141.775 146.697C141.212 145.07 140.935 143.054 140.944 140.651C140.944 138.409 141.182 136.411 141.66 134.655C142.137 132.899 142.823 131.416 143.718 130.206C144.613 128.987 145.691 128.058 146.952 127.419C148.222 126.78 149.641 126.46 151.209 126.46C152.854 126.46 154.312 126.784 155.581 127.432C156.86 128.08 157.891 128.966 158.675 130.091C159.459 131.207 159.945 132.469 160.133 133.875H155.466C155.228 132.869 154.738 132.068 153.996 131.472C153.263 130.866 152.334 130.564 151.209 130.564C149.394 130.564 147.996 131.352 147.016 132.929C146.045 134.506 145.555 136.67 145.546 139.423H145.725C146.143 138.673 146.684 138.03 147.349 137.493C148.013 136.956 148.763 136.543 149.599 136.253C150.442 135.955 151.333 135.805 152.27 135.805C153.805 135.805 155.181 136.172 156.4 136.905C157.627 137.638 158.599 138.648 159.314 139.935C160.03 141.213 160.384 142.679 160.376 144.332C160.384 146.054 159.992 147.601 159.199 148.973C158.407 150.337 157.303 151.411 155.888 152.195C154.474 152.979 152.824 153.366 150.941 153.358ZM150.915 149.523C151.844 149.523 152.675 149.297 153.408 148.845C154.141 148.393 154.721 147.784 155.147 147.017C155.573 146.25 155.782 145.389 155.773 144.435C155.782 143.497 155.577 142.649 155.16 141.891C154.751 141.132 154.184 140.531 153.459 140.088C152.735 139.645 151.908 139.423 150.979 139.423C150.289 139.423 149.645 139.555 149.049 139.82C148.452 140.084 147.932 140.45 147.489 140.919C147.046 141.379 146.697 141.916 146.441 142.53C146.194 143.135 146.066 143.783 146.057 144.473C146.066 145.385 146.279 146.224 146.697 146.991C147.114 147.759 147.689 148.372 148.422 148.832C149.155 149.293 149.986 149.523 150.915 149.523ZM163.977 153V149.574L173.066 140.663C173.935 139.786 174.66 139.006 175.239 138.324C175.819 137.642 176.254 136.982 176.543 136.342C176.833 135.703 176.978 135.021 176.978 134.297C176.978 133.47 176.79 132.763 176.415 132.175C176.04 131.578 175.525 131.118 174.869 130.794C174.212 130.47 173.467 130.308 172.631 130.308C171.771 130.308 171.016 130.487 170.369 130.845C169.721 131.195 169.218 131.693 168.86 132.341C168.511 132.989 168.336 133.76 168.336 134.655H163.823C163.823 132.993 164.202 131.548 164.961 130.321C165.719 129.094 166.763 128.143 168.093 127.47C169.431 126.797 170.965 126.46 172.695 126.46C174.451 126.46 175.994 126.788 177.323 127.445C178.653 128.101 179.684 129 180.417 130.142C181.158 131.284 181.529 132.588 181.529 134.054C181.529 135.034 181.342 135.997 180.967 136.943C180.592 137.889 179.931 138.937 178.985 140.088C178.048 141.239 176.731 142.632 175.035 144.268L170.522 148.858V149.037H181.925V153H163.977Z" fill="#356D00"/>
<circle cx="300" cy="10" r="4" fill="#356D00"/>
<path d="M319.915 4.81818H321.148V11.5597C321.148 12.2557 320.984 12.8771 320.656 13.424C320.331 13.9676 319.872 14.3968 319.278 14.7116C318.685 15.0232 317.989 15.179 317.19 15.179C316.392 15.179 315.696 15.0232 315.102 14.7116C314.509 14.3968 314.048 13.9676 313.72 13.424C313.395 12.8771 313.233 12.2557 313.233 11.5597V4.81818H314.466V11.4602C314.466 11.9574 314.575 12.3999 314.794 12.7876C315.013 13.1721 315.324 13.4754 315.729 13.6974C316.136 13.9162 316.624 14.0256 317.19 14.0256C317.757 14.0256 318.244 13.9162 318.652 13.6974C319.06 13.4754 319.371 13.1721 319.587 12.7876C319.805 12.3999 319.915 11.9574 319.915 11.4602V4.81818ZM328.86 9.07386L327.806 9.37216C327.74 9.1965 327.642 9.0258 327.513 8.86009C327.387 8.69105 327.214 8.55185 326.996 8.44247C326.777 8.3331 326.497 8.27841 326.155 8.27841C325.688 8.27841 325.299 8.38613 324.987 8.60156C324.679 8.81368 324.525 9.08381 324.525 9.41193C324.525 9.7036 324.631 9.93395 324.843 10.103C325.055 10.272 325.386 10.4129 325.837 10.5256L326.971 10.804C327.653 10.9697 328.162 11.2232 328.497 11.5646C328.832 11.9027 328.999 12.3385 328.999 12.8722C328.999 13.3097 328.873 13.7008 328.621 14.0455C328.373 14.3902 328.025 14.6619 327.577 14.8608C327.13 15.0597 326.609 15.1591 326.016 15.1591C325.237 15.1591 324.593 14.9901 324.082 14.652C323.572 14.3139 323.249 13.8201 323.113 13.1705L324.226 12.892C324.332 13.303 324.533 13.6113 324.828 13.8168C325.126 14.0223 325.516 14.125 325.996 14.125C326.543 14.125 326.977 14.009 327.299 13.777C327.624 13.5417 327.786 13.2599 327.786 12.9318C327.786 12.6667 327.693 12.4446 327.508 12.2656C327.322 12.0833 327.037 11.9474 326.653 11.858L325.38 11.5597C324.68 11.3939 324.167 11.1371 323.839 10.7891C323.514 10.4377 323.351 9.99858 323.351 9.47159C323.351 9.04072 323.472 8.65956 323.714 8.32812C323.96 7.99669 324.293 7.73651 324.714 7.54758C325.138 7.35866 325.618 7.2642 326.155 7.2642C326.911 7.2642 327.504 7.42992 327.935 7.76136C328.369 8.0928 328.678 8.5303 328.86 9.07386ZM333.967 15.1591C333.231 15.1591 332.596 14.9967 332.063 14.6719C331.533 14.3438 331.123 13.8864 330.835 13.2997C330.55 12.7098 330.407 12.0237 330.407 11.2415C330.407 10.4593 330.55 9.76989 330.835 9.1733C331.123 8.57339 331.524 8.10606 332.038 7.77131C332.555 7.43324 333.158 7.2642 333.848 7.2642C334.245 7.2642 334.638 7.33049 335.026 7.46307C335.414 7.59564 335.767 7.81108 336.085 8.10938C336.403 8.40436 336.657 8.79545 336.846 9.28267C337.034 9.76989 337.129 10.3698 337.129 11.0824V11.5795H331.243V10.5653H335.936C335.936 10.1345 335.85 9.75 335.677 9.41193C335.508 9.07386 335.266 8.80705 334.951 8.61151C334.64 8.41596 334.272 8.31818 333.848 8.31818C333.38 8.31818 332.976 8.43419 332.635 8.66619C332.297 8.89489 332.036 9.19318 331.854 9.56108C331.672 9.92898 331.581 10.3234 331.581 10.7443V11.4205C331.581 11.9972 331.68 12.486 331.879 12.8871C332.081 13.2848 332.361 13.5881 332.719 13.7969C333.077 14.0024 333.493 14.1051 333.967 14.1051C334.275 14.1051 334.554 14.062 334.802 13.9759C335.054 13.8864 335.271 13.7538 335.453 13.5781C335.636 13.3991 335.777 13.1771 335.876 12.9119L337.01 13.2301C336.89 13.6146 336.69 13.9527 336.408 14.2443C336.126 14.5327 335.778 14.758 335.364 14.9205C334.95 15.0795 334.484 15.1591 333.967 15.1591ZM338.914 15V7.36364H340.047V8.51705H340.127C340.266 8.1392 340.518 7.83262 340.882 7.5973C341.247 7.36198 341.658 7.24432 342.115 7.24432C342.202 7.24432 342.309 7.24597 342.439 7.24929C342.568 7.2526 342.666 7.25758 342.732 7.2642V8.45739C342.692 8.44744 342.601 8.43253 342.458 8.41264C342.319 8.38944 342.172 8.37784 342.016 8.37784C341.645 8.37784 341.313 8.45573 341.022 8.61151C340.733 8.76397 340.505 8.97609 340.336 9.24787C340.17 9.51634 340.087 9.82292 340.087 10.1676V15H338.914ZM349.532 9.07386L348.478 9.37216C348.412 9.1965 348.314 9.0258 348.184 8.86009C348.059 8.69105 347.886 8.55185 347.667 8.44247C347.449 8.3331 347.169 8.27841 346.827 8.27841C346.36 8.27841 345.97 8.38613 345.659 8.60156C345.351 8.81368 345.197 9.08381 345.197 9.41193C345.197 9.7036 345.303 9.93395 345.515 10.103C345.727 10.272 346.058 10.4129 346.509 10.5256L347.643 10.804C348.325 10.9697 348.834 11.2232 349.169 11.5646C349.504 11.9027 349.671 12.3385 349.671 12.8722C349.671 13.3097 349.545 13.7008 349.293 14.0455C349.045 14.3902 348.697 14.6619 348.249 14.8608C347.802 15.0597 347.281 15.1591 346.688 15.1591C345.909 15.1591 345.265 14.9901 344.754 14.652C344.244 14.3139 343.921 13.8201 343.785 13.1705L344.898 12.892C345.004 13.303 345.205 13.6113 345.5 13.8168C345.798 14.0223 346.188 14.125 346.668 14.125C347.215 14.125 347.649 14.009 347.971 13.777C348.296 13.5417 348.458 13.2599 348.458 12.9318C348.458 12.6667 348.365 12.4446 348.18 12.2656C347.994 12.0833 347.709 11.9474 347.324 11.858L346.052 11.5597C345.352 11.3939 344.839 11.1371 344.51 10.7891C344.186 10.4377 344.023 9.99858 344.023 9.47159C344.023 9.04072 344.144 8.65956 344.386 8.32812C344.631 7.99669 344.965 7.73651 345.385 7.54758C345.81 7.35866 346.29 7.2642 346.827 7.2642C347.583 7.2642 348.176 7.42992 348.607 7.76136C349.041 8.0928 349.349 8.5303 349.532 9.07386Z" fill="#475467"/>
<circle cx="300" cy="34" r="4" fill="#4D9E00"/>
<path d="M313.651 39H312.358L316.097 28.8182H317.369L321.108 39H319.815L316.773 30.429H316.693L313.651 39ZM314.128 35.0227H319.338V36.1165H314.128V35.0227ZM325.418 39.1591C324.782 39.1591 324.22 38.9983 323.733 38.6768C323.246 38.352 322.865 37.8946 322.589 37.3047C322.314 36.7114 322.177 36.0104 322.177 35.2017C322.177 34.3996 322.314 33.7036 322.589 33.1136C322.865 32.5237 323.247 32.0679 323.738 31.7464C324.228 31.425 324.795 31.2642 325.438 31.2642C325.935 31.2642 326.328 31.3471 326.616 31.5128C326.908 31.6752 327.13 31.8608 327.283 32.0696C327.438 32.2751 327.559 32.4441 327.646 32.5767H327.745V28.8182H328.918V39H327.785V37.8267H327.646C327.559 37.9659 327.437 38.1416 327.278 38.3537C327.119 38.5625 326.892 38.7498 326.597 38.9155C326.302 39.0779 325.909 39.1591 325.418 39.1591ZM325.577 38.1051C326.048 38.1051 326.446 37.9825 326.771 37.7372C327.095 37.4886 327.342 37.1456 327.511 36.7081C327.68 36.2673 327.765 35.7585 327.765 35.1818C327.765 34.6117 327.682 34.1129 327.516 33.6854C327.351 33.2545 327.105 32.9197 326.781 32.6811C326.456 32.4392 326.055 32.3182 325.577 32.3182C325.08 32.3182 324.666 32.4458 324.335 32.701C324.006 32.9529 323.759 33.2959 323.594 33.7301C323.431 34.161 323.35 34.6449 323.35 35.1818C323.35 35.7254 323.433 36.2192 323.599 36.6634C323.768 37.1042 324.016 37.4555 324.344 37.7173C324.676 37.9759 325.087 38.1051 325.577 38.1051ZM331.23 39V31.3636H332.364V32.5568H332.463C332.622 32.1491 332.879 31.8326 333.234 31.6072C333.588 31.3786 334.014 31.2642 334.511 31.2642C335.015 31.2642 335.434 31.3786 335.769 31.6072C336.107 31.8326 336.371 32.1491 336.56 32.5568H336.639C336.835 32.1624 337.128 31.8492 337.519 31.6172C337.91 31.3819 338.379 31.2642 338.926 31.2642C339.609 31.2642 340.167 31.478 340.602 31.9055C341.036 32.3298 341.253 32.991 341.253 33.8892V39H340.08V33.8892C340.08 33.3258 339.925 32.9231 339.617 32.6811C339.309 32.4392 338.946 32.3182 338.528 32.3182C337.991 32.3182 337.576 32.4806 337.281 32.8054C336.986 33.1269 336.838 33.5346 336.838 34.0284V39H335.645V33.7699C335.645 33.3357 335.504 32.986 335.222 32.7209C334.941 32.4524 334.578 32.3182 334.134 32.3182C333.829 32.3182 333.544 32.3994 333.278 32.5618C333.017 32.7242 332.804 32.9496 332.642 33.2379C332.483 33.523 332.403 33.8527 332.403 34.2273V39H331.23ZM343.398 39V31.3636H344.571V39H343.398ZM343.995 30.0909C343.766 30.0909 343.569 30.013 343.403 29.8572C343.241 29.7015 343.159 29.5142 343.159 29.2955C343.159 29.0767 343.241 28.8894 343.403 28.7337C343.569 28.5779 343.766 28.5 343.995 28.5C344.223 28.5 344.419 28.5779 344.581 28.7337C344.747 28.8894 344.83 29.0767 344.83 29.2955C344.83 29.5142 344.747 29.7015 344.581 29.8572C344.419 30.013 344.223 30.0909 343.995 30.0909ZM347.894 34.4062V39H346.72V31.3636H347.854V32.5568H347.953C348.132 32.169 348.404 31.8575 348.769 31.6222C349.133 31.3835 349.604 31.2642 350.181 31.2642C350.698 31.2642 351.15 31.3703 351.538 31.5824C351.926 31.7912 352.227 32.1094 352.443 32.5369C352.658 32.9612 352.766 33.4981 352.766 34.1477V39H351.593V34.2273C351.593 33.6274 351.437 33.16 351.125 32.8253C350.814 32.4872 350.386 32.3182 349.843 32.3182C349.468 32.3182 349.133 32.3994 348.838 32.5618C348.547 32.7242 348.316 32.9612 348.147 33.2727C347.978 33.5843 347.894 33.9621 347.894 34.4062ZM360.319 33.0739L359.265 33.3722C359.199 33.1965 359.101 33.0258 358.972 32.8601C358.846 32.6911 358.673 32.5518 358.455 32.4425C358.236 32.3331 357.956 32.2784 357.614 32.2784C357.147 32.2784 356.758 32.3861 356.446 32.6016C356.138 32.8137 355.984 33.0838 355.984 33.4119C355.984 33.7036 356.09 33.9339 356.302 34.103C356.514 34.272 356.845 34.4129 357.296 34.5256L358.43 34.804C359.112 34.9697 359.621 35.2232 359.956 35.5646C360.291 35.9027 360.458 36.3385 360.458 36.8722C360.458 37.3097 360.332 37.7008 360.08 38.0455C359.832 38.3902 359.484 38.6619 359.036 38.8608C358.589 39.0597 358.068 39.1591 357.475 39.1591C356.696 39.1591 356.052 38.9901 355.541 38.652C355.031 38.3139 354.708 37.8201 354.572 37.1705L355.685 36.892C355.791 37.303 355.992 37.6113 356.287 37.8168C356.585 38.0223 356.975 38.125 357.455 38.125C358.002 38.125 358.436 38.009 358.758 37.777C359.083 37.5417 359.245 37.2599 359.245 36.9318C359.245 36.6667 359.152 36.4446 358.967 36.2656C358.781 36.0833 358.496 35.9474 358.112 35.858L356.839 35.5597C356.139 35.3939 355.626 35.1371 355.298 34.7891C354.973 34.4377 354.81 33.9986 354.81 33.4716C354.81 33.0407 354.931 32.6596 355.173 32.3281C355.419 31.9967 355.752 31.7365 356.173 31.5476C356.597 31.3587 357.077 31.2642 357.614 31.2642C358.37 31.2642 358.963 31.4299 359.394 31.7614C359.828 32.0928 360.137 32.5303 360.319 33.0739Z" fill="#475467"/>
</svg>
