<svg width="18" height="17" viewBox="0 0 18 17" fill="none" xmlns="http://www.w3.org/2000/svg">
<path d="M9.83333 5.6665V12.3332C9.83333 12.9962 9.56994 13.6321 9.1011 14.1009C8.63226 14.5698 7.99638 14.8332 7.33333 14.8332H5.525C5.32841 15.3894 4.9415 15.8582 4.43266 16.1568C3.92382 16.4554 3.32581 16.5644 2.74434 16.4647C2.16287 16.365 1.63538 16.0629 1.25511 15.6118C0.87483 15.1608 0.66626 14.5898 0.66626 13.9998C0.66626 13.4099 0.87483 12.8389 1.25511 12.3879C1.63538 11.9368 2.16287 11.6347 2.74434 11.535C3.32581 11.4353 3.92382 11.5443 4.43266 11.8429C4.9415 12.1414 5.32841 12.6103 5.525 13.1665H7.33333C7.55435 13.1665 7.76631 13.0787 7.92259 12.9224C8.07887 12.7661 8.16667 12.5542 8.16667 12.3332V5.6665C8.16667 5.00346 8.43006 4.36758 8.8989 3.89874C9.36774 3.4299 10.0036 3.1665 10.6667 3.1665H13.1667V0.666504L17.3333 3.99984L13.1667 7.33317V4.83317H10.6667C10.4457 4.83317 10.2337 4.92097 10.0774 5.07725C9.92113 5.23353 9.83333 5.44549 9.83333 5.6665ZM3.16667 14.8332C3.38768 14.8332 3.59964 14.7454 3.75592 14.5891C3.9122 14.4328 4 14.2209 4 13.9998C4 13.7788 3.9122 13.5669 3.75592 13.4106C3.59964 13.2543 3.38768 13.1665 3.16667 13.1665C2.94565 13.1665 2.73369 13.2543 2.57741 13.4106C2.42113 13.5669 2.33333 13.7788 2.33333 13.9998C2.33333 14.2209 2.42113 14.4328 2.57741 14.5891C2.73369 14.7454 2.94565 14.8332 3.16667 14.8332Z" fill="#356D00"/>
</svg>
