<svg width="40" height="40" viewBox="0 0 40 40" fill="none" xmlns="http://www.w3.org/2000/svg">
<rect width="40" height="40" rx="20" fill="#F6F6F8"/>
<path d="M16.4081 17.4205C16.3475 16.8826 16.0975 16.4659 15.6581 16.1705C15.2187 15.8712 14.6657 15.7216 13.999 15.7216C13.5218 15.7216 13.1089 15.7973 12.7604 15.9489C12.4119 16.0966 12.1411 16.3011 11.9479 16.5625C11.7585 16.8201 11.6638 17.1136 11.6638 17.4432C11.6638 17.7197 11.7282 17.9583 11.857 18.1591C11.9896 18.3598 12.1619 18.5284 12.374 18.6648C12.5899 18.7973 12.821 18.9091 13.0672 19C13.3134 19.0871 13.5502 19.1591 13.7774 19.2159L14.9138 19.5114C15.285 19.6023 15.6657 19.7254 16.0559 19.8807C16.446 20.036 16.8077 20.2405 17.1411 20.4943C17.4744 20.7481 17.7434 21.0625 17.9479 21.4375C18.1562 21.8125 18.2604 22.2614 18.2604 22.7841C18.2604 23.4432 18.0899 24.0284 17.749 24.5398C17.4119 25.0511 16.9214 25.4545 16.2774 25.75C15.6373 26.0455 14.8627 26.1932 13.9536 26.1932C13.0824 26.1932 12.3286 26.0549 11.6922 25.7784C11.0559 25.5019 10.5577 25.1098 10.1979 24.6023C9.83805 24.0909 9.63919 23.4848 9.60131 22.7841H11.3627C11.3968 23.2045 11.5331 23.5549 11.7718 23.8352C12.0142 24.1117 12.3229 24.3182 12.6979 24.4545C13.0767 24.5871 13.4915 24.6534 13.9422 24.6534C14.4384 24.6534 14.8797 24.5758 15.2661 24.4205C15.6562 24.2614 15.963 24.0417 16.1865 23.7614C16.41 23.4773 16.5218 23.1458 16.5218 22.767C16.5218 22.4223 16.4233 22.1402 16.2263 21.9205C16.0331 21.7008 15.7699 21.5189 15.4365 21.375C15.107 21.2311 14.7339 21.1042 14.3172 20.9943L12.9422 20.6193C12.0104 20.3655 11.2718 19.9924 10.7263 19.5C10.1846 19.0076 9.91381 18.3561 9.91381 17.5455C9.91381 16.875 10.0956 16.2898 10.4593 15.7898C10.8229 15.2898 11.3153 14.9015 11.9365 14.625C12.5577 14.3447 13.2585 14.2045 14.0388 14.2045C14.8267 14.2045 15.5218 14.3428 16.124 14.6193C16.7301 14.8958 17.2074 15.2765 17.5559 15.7614C17.9043 16.2424 18.0862 16.7955 18.1013 17.4205H16.4081ZM30.3064 20.1818C30.3064 21.4242 30.0791 22.4924 29.6245 23.3864C29.17 24.2765 28.5469 24.9621 27.7552 25.4432C26.9673 25.9205 26.0715 26.1591 25.0677 26.1591C24.0602 26.1591 23.1605 25.9205 22.3689 25.4432C21.581 24.9621 20.9598 24.2746 20.5052 23.3807C20.0507 22.4867 19.8234 21.4205 19.8234 20.1818C19.8234 18.9394 20.0507 17.8731 20.5052 16.983C20.9598 16.089 21.581 15.4034 22.3689 14.9261C23.1605 14.4451 24.0602 14.2045 25.0677 14.2045C26.0715 14.2045 26.9673 14.4451 27.7552 14.9261C28.5469 15.4034 29.17 16.089 29.6245 16.983C30.0791 17.8731 30.3064 18.9394 30.3064 20.1818ZM28.5677 20.1818C28.5677 19.2348 28.4143 18.4375 28.1075 17.7898C27.8045 17.1383 27.3878 16.6458 26.8575 16.3125C26.331 15.9754 25.7344 15.8068 25.0677 15.8068C24.3973 15.8068 23.7988 15.9754 23.2723 16.3125C22.7458 16.6458 22.3291 17.1383 22.0223 17.7898C21.7192 18.4375 21.5677 19.2348 21.5677 20.1818C21.5677 21.1288 21.7192 21.928 22.0223 22.5795C22.3291 23.2273 22.7458 23.7197 23.2723 24.0568C23.7988 24.3902 24.3973 24.5568 25.0677 24.5568C25.7344 24.5568 26.331 24.3902 26.8575 24.0568C27.3878 23.7197 27.8045 23.2273 28.1075 22.5795C28.4143 21.928 28.5677 21.1288 28.5677 20.1818Z" fill="#2F2B43"/>
</svg>
