<svg width="497" height="271" viewBox="0 0 497 271" fill="none" xmlns="http://www.w3.org/2000/svg">
<path d="M3.75 248.119C3.10795 248.119 2.56108 247.945 2.10938 247.595C1.65767 247.243 1.3125 246.733 1.07386 246.065C0.835227 245.395 0.715909 244.585 0.715909 243.636C0.715909 242.693 0.835227 241.888 1.07386 241.22C1.31534 240.55 1.66193 240.038 2.11364 239.686C2.56818 239.331 3.11364 239.153 3.75 239.153C4.38636 239.153 4.9304 239.331 5.3821 239.686C5.83665 240.038 6.18324 240.55 6.42188 241.22C6.66335 241.888 6.78409 242.693 6.78409 243.636C6.78409 244.585 6.66477 245.395 6.42614 246.065C6.1875 246.733 5.84233 247.243 5.39062 247.595C4.93892 247.945 4.39205 248.119 3.75 248.119ZM3.75 247.182C4.38636 247.182 4.88068 246.875 5.23295 246.261C5.58523 245.648 5.76136 244.773 5.76136 243.636C5.76136 242.881 5.6804 242.237 5.51847 241.706C5.35938 241.175 5.12926 240.77 4.82812 240.491C4.52983 240.213 4.17045 240.074 3.75 240.074C3.11932 240.074 2.62642 240.385 2.27131 241.007C1.91619 241.626 1.73864 242.503 1.73864 243.636C1.73864 244.392 1.81818 245.034 1.97727 245.562C2.13636 246.091 2.36506 246.493 2.66335 246.768C2.96449 247.044 3.3267 247.182 3.75 247.182Z" fill="#0F1324" fill-opacity="0.6"/>
<path d="M3.63068 200.32C3.13068 200.32 2.6804 200.22 2.27983 200.021C1.87926 199.822 1.55824 199.55 1.31676 199.203C1.07528 198.856 0.943182 198.462 0.920455 198.018H1.94318C1.98295 198.413 2.16193 198.74 2.48011 198.998C2.80114 199.254 3.18466 199.382 3.63068 199.382C3.98864 199.382 4.30682 199.298 4.58523 199.131C4.86648 198.963 5.08665 198.733 5.24574 198.44C5.40767 198.145 5.48864 197.811 5.48864 197.439C5.48864 197.058 5.40483 196.719 5.23722 196.42C5.07244 196.119 4.84517 195.882 4.5554 195.709C4.26563 195.535 3.93466 195.447 3.5625 195.445C3.29545 195.442 3.02131 195.483 2.74006 195.568C2.45881 195.65 2.22727 195.757 2.04545 195.888L1.05682 195.768L1.58523 191.473H6.11932V192.41H2.47159L2.16477 194.984H2.21591C2.39489 194.842 2.61932 194.724 2.8892 194.631C3.15909 194.537 3.44034 194.49 3.73295 194.49C4.26705 194.49 4.7429 194.618 5.16051 194.873C5.58097 195.126 5.91051 195.473 6.14915 195.913C6.39062 196.354 6.51136 196.856 6.51136 197.422C6.51136 197.979 6.38636 198.476 6.13636 198.913C5.8892 199.348 5.5483 199.692 5.11364 199.945C4.67898 200.195 4.18466 200.32 3.63068 200.32ZM8.22124 200.2V193.655H9.19283V194.677H9.27805C9.41442 194.328 9.63459 194.057 9.93857 193.864C10.2425 193.668 10.6076 193.57 11.0337 193.57C11.4656 193.57 11.8249 193.668 12.1119 193.864C12.4016 194.057 12.6275 194.328 12.7894 194.677H12.8576C13.0252 194.339 13.2766 194.071 13.6119 193.872C13.9471 193.67 14.3491 193.57 14.8178 193.57C15.4031 193.57 15.8817 193.753 16.2539 194.119C16.6261 194.483 16.8121 195.05 16.8121 195.82V200.2H15.8065V195.82C15.8065 195.337 15.6744 194.991 15.4102 194.784C15.146 194.577 14.8349 194.473 14.4769 194.473C14.0167 194.473 13.6602 194.612 13.4073 194.891C13.1545 195.166 13.0281 195.516 13.0281 195.939V200.2H12.0053V195.717C12.0053 195.345 11.8846 195.045 11.6431 194.818C11.4016 194.588 11.0906 194.473 10.7099 194.473C10.4485 194.473 10.2042 194.543 9.97692 194.682C9.75249 194.821 9.57067 195.014 9.43146 195.261C9.2951 195.506 9.22692 195.788 9.22692 196.109V200.2H8.22124Z" fill="#0F1324" fill-opacity="0.6"/>
<path d="M3.97159 143.673V152.4H2.91477V144.781H2.86364L0.732955 146.195V145.121L2.91477 143.673H3.97159ZM9.32812 152.519C8.68608 152.519 8.1392 152.345 7.6875 151.995C7.2358 151.643 6.89063 151.133 6.65199 150.465C6.41335 149.795 6.29403 148.985 6.29403 148.036C6.29403 147.093 6.41335 146.288 6.65199 145.62C6.89347 144.95 7.24006 144.438 7.69176 144.086C8.14631 143.731 8.69176 143.553 9.32812 143.553C9.96449 143.553 10.5085 143.731 10.9602 144.086C11.4148 144.438 11.7614 144.95 12 145.62C12.2415 146.288 12.3622 147.093 12.3622 148.036C12.3622 148.985 12.2429 149.795 12.0043 150.465C11.7656 151.133 11.4205 151.643 10.9688 151.995C10.517 152.345 9.97017 152.519 9.32812 152.519ZM9.32812 151.582C9.96449 151.582 10.4588 151.275 10.8111 150.661C11.1634 150.048 11.3395 149.173 11.3395 148.036C11.3395 147.281 11.2585 146.637 11.0966 146.106C10.9375 145.575 10.7074 145.17 10.4062 144.891C10.108 144.613 9.74858 144.474 9.32812 144.474C8.69744 144.474 8.20455 144.785 7.84943 145.407C7.49432 146.026 7.31676 146.903 7.31676 148.036C7.31676 148.792 7.39631 149.434 7.5554 149.962C7.71449 150.491 7.94318 150.893 8.24148 151.168C8.54261 151.444 8.90483 151.582 9.32812 151.582ZM13.9986 152.4V145.854H14.9702V146.877H15.0554C15.1918 146.528 15.4119 146.256 15.7159 146.063C16.0199 145.867 16.3849 145.769 16.8111 145.769C17.2429 145.769 17.6023 145.867 17.8892 146.063C18.179 146.256 18.4048 146.528 18.5668 146.877H18.6349C18.8026 146.539 19.054 146.271 19.3892 146.072C19.7244 145.87 20.1264 145.769 20.5952 145.769C21.1804 145.769 21.6591 145.952 22.0312 146.319C22.4034 146.683 22.5895 147.249 22.5895 148.019V152.4H21.5838V148.019C21.5838 147.536 21.4517 147.191 21.1875 146.984C20.9233 146.776 20.6122 146.673 20.2543 146.673C19.794 146.673 19.4375 146.812 19.1847 147.09C18.9318 147.366 18.8054 147.715 18.8054 148.139V152.4H17.7827V147.917C17.7827 147.545 17.6619 147.245 17.4205 147.018C17.179 146.788 16.8679 146.673 16.4872 146.673C16.2259 146.673 15.9815 146.742 15.7543 146.881C15.5298 147.021 15.348 147.214 15.2088 147.461C15.0724 147.705 15.0043 147.988 15.0043 148.309V152.4H13.9986Z" fill="#0F1324" fill-opacity="0.6"/>
<path d="M0.903409 104.6V103.833L3.78409 100.68C4.12216 100.31 4.40057 99.9893 4.61932 99.7166C4.83807 99.441 5 99.1825 5.10511 98.941C5.21307 98.6967 5.26705 98.441 5.26705 98.174C5.26705 97.8671 5.19318 97.6015 5.04545 97.3771C4.90057 97.1527 4.7017 96.9794 4.44886 96.8572C4.19602 96.735 3.91193 96.674 3.59659 96.674C3.26136 96.674 2.96875 96.7436 2.71875 96.8828C2.47159 97.0191 2.27983 97.2109 2.14347 97.4581C2.00994 97.7052 1.94318 97.995 1.94318 98.3274H0.9375C0.9375 97.816 1.0554 97.3671 1.29119 96.9808C1.52699 96.5944 1.84801 96.2933 2.25426 96.0774C2.66335 95.8615 3.12216 95.7535 3.63068 95.7535C4.14205 95.7535 4.59517 95.8615 4.99006 96.0774C5.38494 96.2933 5.6946 96.5845 5.91903 96.9509C6.14347 97.3174 6.25568 97.7251 6.25568 98.174C6.25568 98.495 6.19744 98.8089 6.08097 99.1157C5.96733 99.4197 5.76847 99.7592 5.48438 100.134C5.20312 100.506 4.8125 100.961 4.3125 101.498L2.35227 103.594V103.663H6.40909V104.6H0.903409ZM11.0156 104.719C10.3736 104.719 9.8267 104.545 9.375 104.195C8.9233 103.843 8.57813 103.333 8.33949 102.665C8.10085 101.995 7.98153 101.185 7.98153 100.236C7.98153 99.2933 8.10085 98.4879 8.33949 97.8203C8.58097 97.1498 8.92756 96.6384 9.37926 96.2862C9.83381 95.9311 10.3793 95.7535 11.0156 95.7535C11.652 95.7535 12.196 95.9311 12.6477 96.2862C13.1023 96.6384 13.4489 97.1498 13.6875 97.8203C13.929 98.4879 14.0497 99.2933 14.0497 100.236C14.0497 101.185 13.9304 101.995 13.6918 102.665C13.4531 103.333 13.108 103.843 12.6562 104.195C12.2045 104.545 11.6577 104.719 11.0156 104.719ZM11.0156 103.782C11.652 103.782 12.1463 103.475 12.4986 102.861C12.8509 102.248 13.027 101.373 13.027 100.236C13.027 99.4808 12.946 98.8373 12.7841 98.3061C12.625 97.7748 12.3949 97.37 12.0938 97.0916C11.7955 96.8132 11.4361 96.674 11.0156 96.674C10.3849 96.674 9.89205 96.985 9.53693 97.6072C9.18182 98.2265 9.00426 99.1029 9.00426 100.236C9.00426 100.992 9.08381 101.634 9.2429 102.163C9.40199 102.691 9.63068 103.093 9.92898 103.369C10.2301 103.644 10.5923 103.782 11.0156 103.782ZM15.6861 104.6V98.0546H16.6577V99.0774H16.7429C16.8793 98.7279 17.0994 98.4566 17.4034 98.2634C17.7074 98.0674 18.0724 97.9694 18.4986 97.9694C18.9304 97.9694 19.2898 98.0674 19.5767 98.2634C19.8665 98.4566 20.0923 98.7279 20.2543 99.0774H20.3224C20.4901 98.7393 20.7415 98.4708 21.0767 98.272C21.4119 98.0703 21.8139 97.9694 22.2827 97.9694C22.8679 97.9694 23.3466 98.1527 23.7188 98.5191C24.0909 98.8828 24.277 99.4495 24.277 100.219V104.6H23.2713V100.219C23.2713 99.7365 23.1392 99.3913 22.875 99.1839C22.6108 98.9765 22.2997 98.8728 21.9418 98.8728C21.4815 98.8728 21.125 99.012 20.8722 99.2904C20.6193 99.566 20.4929 99.9154 20.4929 100.339V104.6H19.4702V100.117C19.4702 99.745 19.3494 99.4453 19.108 99.218C18.8665 98.9879 18.5554 98.8728 18.1747 98.8728C17.9134 98.8728 17.669 98.9424 17.4418 99.0816C17.2173 99.2208 17.0355 99.414 16.8963 99.6612C16.7599 99.9055 16.6918 100.188 16.6918 100.509V104.6H15.6861Z" fill="#0F1324" fill-opacity="0.6"/>
<path d="M3.63068 56.9191C3.13068 56.9191 2.6804 56.8197 2.27983 56.6208C1.87926 56.422 1.55824 56.1492 1.31676 55.8026C1.07528 55.4561 0.943182 55.0612 0.920455 54.618H1.94318C1.98295 55.0129 2.16193 55.3396 2.48011 55.5981C2.80114 55.8538 3.18466 55.9816 3.63068 55.9816C3.98864 55.9816 4.30682 55.8978 4.58523 55.7302C4.86648 55.5626 5.08665 55.3325 5.24574 55.0399C5.40767 54.7444 5.48864 54.4106 5.48864 54.0384C5.48864 53.6578 5.40483 53.3183 5.23722 53.02C5.07244 52.7188 4.84517 52.4816 4.5554 52.3083C4.26563 52.135 3.93466 52.047 3.5625 52.0441C3.29545 52.0413 3.02131 52.0825 2.74006 52.1677C2.45881 52.2501 2.22727 52.3566 2.04545 52.4873L1.05682 52.368L1.58523 48.0725H6.11932V49.01H2.47159L2.16477 51.5839H2.21591C2.39489 51.4419 2.61932 51.324 2.8892 51.2302C3.15909 51.1365 3.44034 51.0896 3.73295 51.0896C4.26705 51.0896 4.7429 51.2174 5.16051 51.4731C5.58097 51.7259 5.91051 52.0725 6.14915 52.5129C6.39062 52.9532 6.51136 53.4561 6.51136 54.0214C6.51136 54.5782 6.38636 55.0754 6.13636 55.5129C5.8892 55.9475 5.5483 56.2913 5.11364 56.5441C4.67898 56.7941 4.18466 56.9191 3.63068 56.9191ZM11.0508 56.9191C10.4087 56.9191 9.86186 56.7444 9.41016 56.395C8.95845 56.0427 8.61328 55.5328 8.37464 54.8651C8.13601 54.1947 8.01669 53.385 8.01669 52.4362C8.01669 51.493 8.13601 50.6876 8.37464 50.02C8.61612 49.3495 8.96271 48.8382 9.41442 48.4859C9.86896 48.1308 10.4144 47.9532 11.0508 47.9532C11.6871 47.9532 12.2312 48.1308 12.6829 48.4859C13.1374 48.8382 13.484 49.3495 13.7227 50.02C13.9641 50.6876 14.0849 51.493 14.0849 52.4362C14.0849 53.385 13.9656 54.1947 13.7269 54.8651C13.4883 55.5328 13.1431 56.0427 12.6914 56.395C12.2397 56.7444 11.6928 56.9191 11.0508 56.9191ZM11.0508 55.9816C11.6871 55.9816 12.1815 55.6748 12.5337 55.0612C12.886 54.4475 13.0621 53.5725 13.0621 52.4362C13.0621 51.6805 12.9812 51.037 12.8192 50.5058C12.6602 49.9745 12.43 49.5697 12.1289 49.2913C11.8306 49.0129 11.4712 48.8737 11.0508 48.8737C10.4201 48.8737 9.9272 49.1847 9.57209 49.8069C9.21697 50.4262 9.03942 51.3026 9.03942 52.4362C9.03942 53.1918 9.11896 53.8339 9.27805 54.3623C9.43714 54.8907 9.66584 55.2927 9.96413 55.5683C10.2653 55.8438 10.6275 55.9816 11.0508 55.9816ZM15.7212 56.7998V50.2543H16.6928V51.2771H16.7781C16.9144 50.9276 17.1346 50.6563 17.4386 50.4632C17.7425 50.2671 18.1076 50.1691 18.5337 50.1691C18.9656 50.1691 19.3249 50.2671 19.6119 50.4632C19.9016 50.6563 20.1275 50.9276 20.2894 51.2771H20.3576C20.5252 50.939 20.7766 50.6705 21.1119 50.4717C21.4471 50.27 21.8491 50.1691 22.3178 50.1691C22.9031 50.1691 23.3817 50.3524 23.7539 50.7188C24.1261 51.0825 24.3121 51.6492 24.3121 52.4191V56.7998H23.3065V52.4191C23.3065 51.9362 23.1744 51.591 22.9102 51.3836C22.646 51.1762 22.3349 51.0725 21.9769 51.0725C21.5167 51.0725 21.1602 51.2117 20.9073 51.4901C20.6545 51.7657 20.5281 52.1151 20.5281 52.5384V56.7998H19.5053V52.3168C19.5053 51.9447 19.3846 51.645 19.1431 51.4177C18.9016 51.1876 18.5906 51.0725 18.2099 51.0725C17.9485 51.0725 17.7042 51.1421 17.4769 51.2813C17.2525 51.4205 17.0707 51.6137 16.9315 51.8609C16.7951 52.1052 16.7269 52.3879 16.7269 52.7089V56.7998H15.7212Z" fill="#0F1324" fill-opacity="0.6"/>
<path d="M3.97159 0.272727V9H2.91477V1.38068H2.86364L0.732955 2.79545V1.72159L2.91477 0.272727H3.97159ZM9.32812 9.11932C8.68608 9.11932 8.1392 8.9446 7.6875 8.59517C7.2358 8.2429 6.89063 7.73295 6.65199 7.06534C6.41335 6.39489 6.29403 5.58523 6.29403 4.63636C6.29403 3.69318 6.41335 2.88778 6.65199 2.22017C6.89347 1.54972 7.24006 1.03835 7.69176 0.686079C8.14631 0.330966 8.69176 0.153409 9.32812 0.153409C9.96449 0.153409 10.5085 0.330966 10.9602 0.686079C11.4148 1.03835 11.7614 1.54972 12 2.22017C12.2415 2.88778 12.3622 3.69318 12.3622 4.63636C12.3622 5.58523 12.2429 6.39489 12.0043 7.06534C11.7656 7.73295 11.4205 8.2429 10.9688 8.59517C10.517 8.9446 9.97017 9.11932 9.32812 9.11932ZM9.32812 8.18182C9.96449 8.18182 10.4588 7.875 10.8111 7.26136C11.1634 6.64773 11.3395 5.77273 11.3395 4.63636C11.3395 3.88068 11.2585 3.23722 11.0966 2.70597C10.9375 2.17472 10.7074 1.76989 10.4062 1.49148C10.108 1.21307 9.74858 1.07386 9.32812 1.07386C8.69744 1.07386 8.20455 1.38494 7.84943 2.0071C7.49432 2.62642 7.31676 3.50284 7.31676 4.63636C7.31676 5.39205 7.39631 6.03409 7.5554 6.5625C7.71449 7.09091 7.94318 7.4929 8.24148 7.76847C8.54261 8.04403 8.90483 8.18182 9.32812 8.18182ZM16.8281 9.11932C16.1861 9.11932 15.6392 8.9446 15.1875 8.59517C14.7358 8.2429 14.3906 7.73295 14.152 7.06534C13.9134 6.39489 13.794 5.58523 13.794 4.63636C13.794 3.69318 13.9134 2.88778 14.152 2.22017C14.3935 1.54972 14.7401 1.03835 15.1918 0.686079C15.6463 0.330966 16.1918 0.153409 16.8281 0.153409C17.4645 0.153409 18.0085 0.330966 18.4602 0.686079C18.9148 1.03835 19.2614 1.54972 19.5 2.22017C19.7415 2.88778 19.8622 3.69318 19.8622 4.63636C19.8622 5.58523 19.7429 6.39489 19.5043 7.06534C19.2656 7.73295 18.9205 8.2429 18.4688 8.59517C18.017 8.9446 17.4702 9.11932 16.8281 9.11932ZM16.8281 8.18182C17.4645 8.18182 17.9588 7.875 18.3111 7.26136C18.6634 6.64773 18.8395 5.77273 18.8395 4.63636C18.8395 3.88068 18.7585 3.23722 18.5966 2.70597C18.4375 2.17472 18.2074 1.76989 17.9062 1.49148C17.608 1.21307 17.2486 1.07386 16.8281 1.07386C16.1974 1.07386 15.7045 1.38494 15.3494 2.0071C14.9943 2.62642 14.8168 3.50284 14.8168 4.63636C14.8168 5.39205 14.8963 6.03409 15.0554 6.5625C15.2145 7.09091 15.4432 7.4929 15.7415 7.76847C16.0426 8.04403 16.4048 8.18182 16.8281 8.18182ZM21.4986 9V2.45455H22.4702V3.47727H22.5554C22.6918 3.12784 22.9119 2.85653 23.2159 2.66335C23.5199 2.46733 23.8849 2.36932 24.3111 2.36932C24.7429 2.36932 25.1023 2.46733 25.3892 2.66335C25.679 2.85653 25.9048 3.12784 26.0668 3.47727H26.1349C26.3026 3.1392 26.554 2.87074 26.8892 2.67188C27.2244 2.47017 27.6264 2.36932 28.0952 2.36932C28.6804 2.36932 29.1591 2.55256 29.5312 2.91903C29.9034 3.28267 30.0895 3.84943 30.0895 4.61932V9H29.0838V4.61932C29.0838 4.13636 28.9517 3.79119 28.6875 3.58381C28.4233 3.37642 28.1122 3.27273 27.7543 3.27273C27.294 3.27273 26.9375 3.41193 26.6847 3.69034C26.4318 3.96591 26.3054 4.31534 26.3054 4.73864V9H25.2827V4.51705C25.2827 4.14489 25.1619 3.84517 24.9205 3.6179C24.679 3.38778 24.3679 3.27273 23.9872 3.27273C23.7259 3.27273 23.4815 3.34233 23.2543 3.48153C23.0298 3.62074 22.848 3.81392 22.7088 4.06108C22.5724 4.3054 22.5043 4.58807 22.5043 4.90909V9H21.4986Z" fill="#0F1324" fill-opacity="0.6"/>
<path d="M36 4H496" stroke="#DEE0E3" stroke-dasharray="6 6"/>
<path d="M36 52H496" stroke="#DEE0E3" stroke-dasharray="6 6"/>
<path d="M36 100H496" stroke="#DEE0E3" stroke-dasharray="6 6"/>
<path d="M36 148H496" stroke="#DEE0E3" stroke-dasharray="6 6"/>
<path d="M36 196H496" stroke="#DEE0E3" stroke-dasharray="6 6"/>
<path d="M36 244H496" stroke="#DEE0E3" stroke-dasharray="6 6"/>
<path d="M40.6145 257.273H41.927V263.46C41.927 264.02 41.8162 264.499 41.5946 264.896C41.3759 265.294 41.0676 265.598 40.6699 265.808C40.2722 266.016 39.8063 266.119 39.2722 266.119C38.7807 266.119 38.339 266.03 37.9469 265.851C37.5577 265.672 37.2495 265.412 37.0222 265.071C36.7978 264.727 36.6855 264.31 36.6855 263.818H37.9938C37.9938 264.06 38.0492 264.268 38.16 264.445C38.2736 264.621 38.4284 264.759 38.6245 264.858C38.8233 264.955 39.0506 265.003 39.3063 265.003C39.5847 265.003 39.8205 264.945 40.0137 264.828C40.2097 264.709 40.3588 264.534 40.4611 264.304C40.5634 264.074 40.6145 263.793 40.6145 263.46V257.273ZM45.6461 266.145C45.2314 266.145 44.8564 266.068 44.5211 265.915C44.1859 265.759 43.9203 265.533 43.7243 265.237C43.5311 264.942 43.4345 264.58 43.4345 264.151C43.4345 263.781 43.5055 263.477 43.6475 263.239C43.7896 263 43.9814 262.811 44.2228 262.672C44.4643 262.533 44.7342 262.428 45.0325 262.357C45.3308 262.286 45.6348 262.232 45.9444 262.195C46.3365 262.149 46.6547 262.112 46.899 262.084C47.1433 262.053 47.3208 262.003 47.4316 261.935C47.5424 261.866 47.5978 261.756 47.5978 261.602V261.572C47.5978 261.2 47.4927 260.912 47.2825 260.707C47.0751 260.503 46.7654 260.401 46.3535 260.401C45.9245 260.401 45.5865 260.496 45.3393 260.686C45.095 260.874 44.926 261.082 44.8322 261.312L43.6348 261.04C43.7768 260.642 43.9842 260.321 44.2569 260.077C44.5325 259.83 44.8493 259.651 45.2072 259.54C45.5652 259.426 45.9416 259.369 46.3365 259.369C46.5978 259.369 46.8748 259.401 47.1674 259.463C47.4629 259.523 47.7385 259.634 47.9941 259.795C48.2527 259.957 48.4643 260.189 48.6291 260.49C48.7939 260.788 48.8762 261.176 48.8762 261.653V266H47.6319V265.105H47.5808C47.4984 265.27 47.3748 265.432 47.21 265.591C47.0453 265.75 46.8336 265.882 46.5751 265.987C46.3166 266.092 46.0069 266.145 45.6461 266.145ZM45.9231 265.122C46.2754 265.122 46.5765 265.053 46.8265 264.913C47.0794 264.774 47.2711 264.592 47.4018 264.368C47.5353 264.141 47.6021 263.898 47.6021 263.639V262.795C47.5566 262.841 47.4686 262.884 47.3379 262.923C47.21 262.96 47.0637 262.993 46.899 263.021C46.7342 263.047 46.5737 263.071 46.4174 263.094C46.2612 263.114 46.1305 263.131 46.0254 263.145C45.7782 263.176 45.5524 263.229 45.3478 263.303C45.1461 263.376 44.9842 263.483 44.862 263.622C44.7427 263.759 44.6831 263.94 44.6831 264.168C44.6831 264.483 44.7995 264.722 45.0325 264.884C45.2654 265.043 45.5623 265.122 45.9231 265.122ZM51.8475 262.114V266H50.5733V259.455H51.7963V260.52H51.8773C52.0279 260.173 52.2637 259.895 52.5847 259.685C52.9086 259.474 53.3162 259.369 53.8077 259.369C54.2537 259.369 54.6444 259.463 54.9796 259.651C55.3148 259.835 55.5748 260.111 55.7594 260.477C55.9441 260.844 56.0364 261.297 56.0364 261.837V266H54.7623V261.99C54.7623 261.516 54.6387 261.145 54.3915 260.878C54.1444 260.608 53.8049 260.473 53.373 260.473C53.0776 260.473 52.8148 260.537 52.5847 260.665C52.3574 260.793 52.177 260.98 52.0435 261.227C51.9128 261.472 51.8475 261.767 51.8475 262.114ZM64.215 257.273V266H62.894V258.594H62.8429L60.7548 259.957V258.696L62.9324 257.273H64.215Z" fill="#0F1324" fill-opacity="0.6"/>
<path d="M469.476 257.273H470.788V263.46C470.788 264.02 470.678 264.499 470.456 264.896C470.237 265.294 469.929 265.598 469.531 265.808C469.134 266.016 468.668 266.119 468.134 266.119C467.642 266.119 467.2 266.03 466.808 265.851C466.419 265.672 466.111 265.412 465.884 265.071C465.659 264.727 465.547 264.31 465.547 263.818H466.855C466.855 264.06 466.911 264.268 467.021 264.445C467.135 264.621 467.29 264.759 467.486 264.858C467.685 264.955 467.912 265.003 468.168 265.003C468.446 265.003 468.682 264.945 468.875 264.828C469.071 264.709 469.22 264.534 469.322 264.304C469.425 264.074 469.476 263.793 469.476 263.46V257.273ZM474.507 266.145C474.093 266.145 473.718 266.068 473.382 265.915C473.047 265.759 472.782 265.533 472.586 265.237C472.392 264.942 472.296 264.58 472.296 264.151C472.296 263.781 472.367 263.477 472.509 263.239C472.651 263 472.843 262.811 473.084 262.672C473.326 262.533 473.596 262.428 473.894 262.357C474.192 262.286 474.496 262.232 474.806 262.195C475.198 262.149 475.516 262.112 475.76 262.084C476.005 262.053 476.182 262.003 476.293 261.935C476.404 261.866 476.459 261.756 476.459 261.602V261.572C476.459 261.2 476.354 260.912 476.144 260.707C475.936 260.503 475.627 260.401 475.215 260.401C474.786 260.401 474.448 260.496 474.201 260.686C473.956 260.874 473.787 261.082 473.694 261.312L472.496 261.04C472.638 260.642 472.846 260.321 473.118 260.077C473.394 259.83 473.711 259.651 474.069 259.54C474.426 259.426 474.803 259.369 475.198 259.369C475.459 259.369 475.736 259.401 476.029 259.463C476.324 259.523 476.6 259.634 476.855 259.795C477.114 259.957 477.326 260.189 477.49 260.49C477.655 260.788 477.738 261.176 477.738 261.653V266H476.493V265.105H476.442C476.36 265.27 476.236 265.432 476.071 265.591C475.907 265.75 475.695 265.882 475.436 265.987C475.178 266.092 474.868 266.145 474.507 266.145ZM474.784 265.122C475.137 265.122 475.438 265.053 475.688 264.913C475.941 264.774 476.132 264.592 476.263 264.368C476.397 264.141 476.463 263.898 476.463 263.639V262.795C476.418 262.841 476.33 262.884 476.199 262.923C476.071 262.96 475.925 262.993 475.76 263.021C475.596 263.047 475.435 263.071 475.279 263.094C475.123 263.114 474.992 263.131 474.887 263.145C474.64 263.176 474.414 263.229 474.209 263.303C474.007 263.376 473.846 263.483 473.723 263.622C473.604 263.759 473.544 263.94 473.544 264.168C473.544 264.483 473.661 264.722 473.894 264.884C474.127 265.043 474.424 265.122 474.784 265.122ZM480.709 262.114V266H479.435V259.455H480.658V260.52H480.739C480.889 260.173 481.125 259.895 481.446 259.685C481.77 259.474 482.178 259.369 482.669 259.369C483.115 259.369 483.506 259.463 483.841 259.651C484.176 259.835 484.436 260.111 484.621 260.477C484.805 260.844 484.898 261.297 484.898 261.837V266H483.624V261.99C483.624 261.516 483.5 261.145 483.253 260.878C483.006 260.608 482.666 260.473 482.234 260.473C481.939 260.473 481.676 260.537 481.446 260.665C481.219 260.793 481.038 260.98 480.905 261.227C480.774 261.472 480.709 261.767 480.709 262.114ZM490.059 266L493.869 258.466V258.402H489.463V257.273H495.233V258.44L491.436 266H490.059Z" fill="#0F1324" fill-opacity="0.6"/>
<path d="M24 243L63.3333 195.515L102.667 243H142L181.333 230.402L220.667 243L260 125.74L299.333 105.713L338.667 165.796L378 125.74L417.333 148.998L456.667 105.713L496 34V243H220.667H142H102.667H24Z" fill="url(#paint0_linear_979_40215)"/>
<path d="M24 243L63.3333 195.515L102.667 243H142L181.333 230.402L220.667 243L260 125.74L299.333 105.713L338.667 165.796L378 125.74L417.333 148.998L456.667 105.713L496 34" stroke="#356D00" stroke-width="2" stroke-linecap="round" stroke-linejoin="round"/>
<defs>
<linearGradient id="paint0_linear_979_40215" x1="260" y1="34" x2="260" y2="243" gradientUnits="userSpaceOnUse">
<stop stop-color="#4D9E00" stop-opacity="0.5"/>
<stop offset="1" stop-color="white" stop-opacity="0"/>
</linearGradient>
</defs>
</svg>
