<svg width="496" height="271" viewBox="0 0 496 271" fill="none" xmlns="http://www.w3.org/2000/svg">
<path d="M3.75 248.119C3.10795 248.119 2.56108 247.945 2.10938 247.595C1.65767 247.243 1.3125 246.733 1.07386 246.065C0.835227 245.395 0.715909 244.585 0.715909 243.636C0.715909 242.693 0.835227 241.888 1.07386 241.22C1.31534 240.55 1.66193 240.038 2.11364 239.686C2.56818 239.331 3.11364 239.153 3.75 239.153C4.38636 239.153 4.9304 239.331 5.3821 239.686C5.83665 240.038 6.18324 240.55 6.42188 241.22C6.66335 241.888 6.78409 242.693 6.78409 243.636C6.78409 244.585 6.66477 245.395 6.42614 246.065C6.1875 246.733 5.84233 247.243 5.39062 247.595C4.93892 247.945 4.39205 248.119 3.75 248.119ZM3.75 247.182C4.38636 247.182 4.88068 246.875 5.23295 246.261C5.58523 245.648 5.76136 244.773 5.76136 243.636C5.76136 242.881 5.6804 242.237 5.51847 241.706C5.35938 241.175 5.12926 240.77 4.82812 240.491C4.52983 240.213 4.17045 240.074 3.75 240.074C3.11932 240.074 2.62642 240.385 2.27131 241.007C1.91619 241.626 1.73864 242.503 1.73864 243.636C1.73864 244.392 1.81818 245.034 1.97727 245.562C2.13636 246.091 2.36506 246.493 2.66335 246.768C2.96449 247.044 3.3267 247.182 3.75 247.182Z" fill="#0F1324" fill-opacity="0.6"/>
<path d="M3.97159 191.473V200.2H2.91477V192.581H2.86364L0.732955 193.996V192.922L2.91477 191.473H3.97159ZM6.49858 200.2V193.655H7.47017V194.677H7.5554C7.69176 194.328 7.91193 194.057 8.21591 193.864C8.51989 193.668 8.88494 193.57 9.31108 193.57C9.7429 193.57 10.1023 193.668 10.3892 193.864C10.679 194.057 10.9048 194.328 11.0668 194.677H11.1349C11.3026 194.339 11.554 194.071 11.8892 193.872C12.2244 193.67 12.6264 193.57 13.0952 193.57C13.6804 193.57 14.1591 193.753 14.5312 194.119C14.9034 194.483 15.0895 195.05 15.0895 195.82V200.2H14.0838V195.82C14.0838 195.337 13.9517 194.991 13.6875 194.784C13.4233 194.577 13.1122 194.473 12.7543 194.473C12.294 194.473 11.9375 194.612 11.6847 194.891C11.4318 195.166 11.3054 195.516 11.3054 195.939V200.2H10.2827V195.717C10.2827 195.345 10.1619 195.045 9.92045 194.818C9.67898 194.588 9.3679 194.473 8.98722 194.473C8.72585 194.473 8.48153 194.543 8.25426 194.682C8.02983 194.821 7.84801 195.014 7.70881 195.261C7.57244 195.506 7.50426 195.788 7.50426 196.109V200.2H6.49858Z" fill="#0F1324" fill-opacity="0.6"/>
<path d="M0.903409 152.4V151.633L3.78409 148.479C4.12216 148.11 4.40057 147.789 4.61932 147.516C4.83807 147.241 5 146.982 5.10511 146.741C5.21307 146.496 5.26705 146.241 5.26705 145.974C5.26705 145.667 5.19318 145.401 5.04545 145.177C4.90057 144.952 4.7017 144.779 4.44886 144.657C4.19602 144.535 3.91193 144.474 3.59659 144.474C3.26136 144.474 2.96875 144.543 2.71875 144.683C2.47159 144.819 2.27983 145.011 2.14347 145.258C2.00994 145.505 1.94318 145.795 1.94318 146.127H0.9375C0.9375 145.616 1.0554 145.167 1.29119 144.781C1.52699 144.394 1.84801 144.093 2.25426 143.877C2.66335 143.661 3.12216 143.553 3.63068 143.553C4.14205 143.553 4.59517 143.661 4.99006 143.877C5.38494 144.093 5.6946 144.384 5.91903 144.751C6.14347 145.117 6.25568 145.525 6.25568 145.974C6.25568 146.295 6.19744 146.609 6.08097 146.916C5.96733 147.22 5.76847 147.559 5.48438 147.934C5.20312 148.306 4.8125 148.761 4.3125 149.298L2.35227 151.394V151.462H6.40909V152.4H0.903409ZM8.18608 152.4V145.854H9.15767V146.877H9.2429C9.37926 146.528 9.59943 146.256 9.90341 146.063C10.2074 145.867 10.5724 145.769 10.9986 145.769C11.4304 145.769 11.7898 145.867 12.0767 146.063C12.3665 146.256 12.5923 146.528 12.7543 146.877H12.8224C12.9901 146.539 13.2415 146.271 13.5767 146.072C13.9119 145.87 14.3139 145.769 14.7827 145.769C15.3679 145.769 15.8466 145.952 16.2188 146.319C16.5909 146.683 16.777 147.249 16.777 148.019V152.4H15.7713V148.019C15.7713 147.536 15.6392 147.191 15.375 146.984C15.1108 146.776 14.7997 146.673 14.4418 146.673C13.9815 146.673 13.625 146.812 13.3722 147.09C13.1193 147.366 12.9929 147.715 12.9929 148.139V152.4H11.9702V147.917C11.9702 147.545 11.8494 147.245 11.608 147.018C11.3665 146.788 11.0554 146.673 10.6747 146.673C10.4134 146.673 10.169 146.742 9.94176 146.881C9.71733 147.021 9.53551 147.214 9.39631 147.461C9.25994 147.705 9.19176 147.988 9.19176 148.309V152.4H8.18608Z" fill="#0F1324" fill-opacity="0.6"/>
<path d="M3.63068 104.719C3.13068 104.719 2.6804 104.62 2.27983 104.421C1.87926 104.222 1.55824 103.95 1.31676 103.603C1.07528 103.256 0.943182 102.861 0.920455 102.418H1.94318C1.98295 102.813 2.16193 103.14 2.48011 103.398C2.80114 103.654 3.18466 103.782 3.63068 103.782C3.98864 103.782 4.30682 103.698 4.58523 103.53C4.86648 103.363 5.08665 103.133 5.24574 102.84C5.40767 102.545 5.48864 102.211 5.48864 101.839C5.48864 101.458 5.40483 101.119 5.23722 100.82C5.07244 100.519 4.84517 100.282 4.5554 100.109C4.26563 99.9353 3.93466 99.8473 3.5625 99.8444C3.29545 99.8416 3.02131 99.8828 2.74006 99.968C2.45881 100.05 2.22727 100.157 2.04545 100.288L1.05682 100.168L1.58523 95.8728H6.11932V96.8103H2.47159L2.16477 99.3842H2.21591C2.39489 99.2421 2.61932 99.1242 2.8892 99.0305C3.15909 98.9367 3.44034 98.8899 3.73295 98.8899C4.26705 98.8899 4.7429 99.0177 5.16051 99.2734C5.58097 99.5262 5.91051 99.8728 6.14915 100.313C6.39062 100.754 6.51136 101.256 6.51136 101.822C6.51136 102.379 6.38636 102.876 6.13636 103.313C5.8892 103.748 5.5483 104.092 5.11364 104.344C4.67898 104.594 4.18466 104.719 3.63068 104.719ZM8.22124 104.6V98.0546H9.19283V99.0774H9.27805C9.41442 98.7279 9.63459 98.4566 9.93857 98.2634C10.2425 98.0674 10.6076 97.9694 11.0337 97.9694C11.4656 97.9694 11.8249 98.0674 12.1119 98.2634C12.4016 98.4566 12.6275 98.7279 12.7894 99.0774H12.8576C13.0252 98.7393 13.2766 98.4708 13.6119 98.272C13.9471 98.0703 14.3491 97.9694 14.8178 97.9694C15.4031 97.9694 15.8817 98.1527 16.2539 98.5191C16.6261 98.8828 16.8121 99.4495 16.8121 100.219V104.6H15.8065V100.219C15.8065 99.7365 15.6744 99.3913 15.4102 99.1839C15.146 98.9765 14.8349 98.8728 14.4769 98.8728C14.0167 98.8728 13.6602 99.012 13.4073 99.2904C13.1545 99.566 13.0281 99.9154 13.0281 100.339V104.6H12.0053V100.117C12.0053 99.745 11.8846 99.4453 11.6431 99.218C11.4016 98.9879 11.0906 98.8728 10.7099 98.8728C10.4485 98.8728 10.2042 98.9424 9.97692 99.0816C9.75249 99.2208 9.57067 99.414 9.43146 99.6612C9.2951 99.9055 9.22692 100.188 9.22692 100.509V104.6H8.22124Z" fill="#0F1324" fill-opacity="0.6"/>
<path d="M3.97159 48.0725V56.7998H2.91477V49.1805H2.86364L0.732955 50.5953V49.5214L2.91477 48.0725H3.97159ZM9.32812 56.9191C8.68608 56.9191 8.1392 56.7444 7.6875 56.395C7.2358 56.0427 6.89063 55.5328 6.65199 54.8651C6.41335 54.1947 6.29403 53.385 6.29403 52.4362C6.29403 51.493 6.41335 50.6876 6.65199 50.02C6.89347 49.3495 7.24006 48.8382 7.69176 48.4859C8.14631 48.1308 8.69176 47.9532 9.32812 47.9532C9.96449 47.9532 10.5085 48.1308 10.9602 48.4859C11.4148 48.8382 11.7614 49.3495 12 50.02C12.2415 50.6876 12.3622 51.493 12.3622 52.4362C12.3622 53.385 12.2429 54.1947 12.0043 54.8651C11.7656 55.5328 11.4205 56.0427 10.9688 56.395C10.517 56.7444 9.97017 56.9191 9.32812 56.9191ZM9.32812 55.9816C9.96449 55.9816 10.4588 55.6748 10.8111 55.0612C11.1634 54.4475 11.3395 53.5725 11.3395 52.4362C11.3395 51.6805 11.2585 51.037 11.0966 50.5058C10.9375 49.9745 10.7074 49.5697 10.4062 49.2913C10.108 49.0129 9.74858 48.8737 9.32812 48.8737C8.69744 48.8737 8.20455 49.1847 7.84943 49.8069C7.49432 50.4262 7.31676 51.3026 7.31676 52.4362C7.31676 53.1918 7.39631 53.8339 7.5554 54.3623C7.71449 54.8907 7.94318 55.2927 8.24148 55.5683C8.54261 55.8438 8.90483 55.9816 9.32812 55.9816ZM13.9986 56.7998V50.2543H14.9702V51.2771H15.0554C15.1918 50.9276 15.4119 50.6563 15.7159 50.4632C16.0199 50.2671 16.3849 50.1691 16.8111 50.1691C17.2429 50.1691 17.6023 50.2671 17.8892 50.4632C18.179 50.6563 18.4048 50.9276 18.5668 51.2771H18.6349C18.8026 50.939 19.054 50.6705 19.3892 50.4717C19.7244 50.27 20.1264 50.1691 20.5952 50.1691C21.1804 50.1691 21.6591 50.3524 22.0312 50.7188C22.4034 51.0825 22.5895 51.6492 22.5895 52.4191V56.7998H21.5838V52.4191C21.5838 51.9362 21.4517 51.591 21.1875 51.3836C20.9233 51.1762 20.6122 51.0725 20.2543 51.0725C19.794 51.0725 19.4375 51.2117 19.1847 51.4901C18.9318 51.7657 18.8054 52.1151 18.8054 52.5384V56.7998H17.7827V52.3168C17.7827 51.9447 17.6619 51.645 17.4205 51.4177C17.179 51.1876 16.8679 51.0725 16.4872 51.0725C16.2259 51.0725 15.9815 51.1421 15.7543 51.2813C15.5298 51.4205 15.348 51.6137 15.2088 51.8609C15.0724 52.1052 15.0043 52.3879 15.0043 52.7089V56.7998H13.9986Z" fill="#0F1324" fill-opacity="0.6"/>
<path d="M0.903409 9V8.23295L3.78409 5.07955C4.12216 4.71023 4.40057 4.3892 4.61932 4.11648C4.83807 3.84091 5 3.58239 5.10511 3.34091C5.21307 3.09659 5.26705 2.84091 5.26705 2.57386C5.26705 2.26705 5.19318 2.00142 5.04545 1.77699C4.90057 1.55256 4.7017 1.37926 4.44886 1.2571C4.19602 1.13494 3.91193 1.07386 3.59659 1.07386C3.26136 1.07386 2.96875 1.14347 2.71875 1.28267C2.47159 1.41903 2.27983 1.6108 2.14347 1.85795C2.00994 2.10511 1.94318 2.39489 1.94318 2.72727H0.9375C0.9375 2.21591 1.0554 1.76705 1.29119 1.38068C1.52699 0.994318 1.84801 0.693181 2.25426 0.477272C2.66335 0.261363 3.12216 0.153409 3.63068 0.153409C4.14205 0.153409 4.59517 0.261363 4.99006 0.477272C5.38494 0.693181 5.6946 0.984375 5.91903 1.35085C6.14347 1.71733 6.25568 2.125 6.25568 2.57386C6.25568 2.89489 6.19744 3.20881 6.08097 3.51562C5.96733 3.8196 5.76847 4.15909 5.48438 4.53409C5.20312 4.90625 4.8125 5.3608 4.3125 5.89773L2.35227 7.99432V8.0625H6.40909V9H0.903409ZM11.0156 9.11932C10.3736 9.11932 9.8267 8.9446 9.375 8.59517C8.9233 8.2429 8.57813 7.73295 8.33949 7.06534C8.10085 6.39489 7.98153 5.58523 7.98153 4.63636C7.98153 3.69318 8.10085 2.88778 8.33949 2.22017C8.58097 1.54972 8.92756 1.03835 9.37926 0.686079C9.83381 0.330966 10.3793 0.153409 11.0156 0.153409C11.652 0.153409 12.196 0.330966 12.6477 0.686079C13.1023 1.03835 13.4489 1.54972 13.6875 2.22017C13.929 2.88778 14.0497 3.69318 14.0497 4.63636C14.0497 5.58523 13.9304 6.39489 13.6918 7.06534C13.4531 7.73295 13.108 8.2429 12.6562 8.59517C12.2045 8.9446 11.6577 9.11932 11.0156 9.11932ZM11.0156 8.18182C11.652 8.18182 12.1463 7.875 12.4986 7.26136C12.8509 6.64773 13.027 5.77273 13.027 4.63636C13.027 3.88068 12.946 3.23722 12.7841 2.70597C12.625 2.17472 12.3949 1.76989 12.0938 1.49148C11.7955 1.21307 11.4361 1.07386 11.0156 1.07386C10.3849 1.07386 9.89205 1.38494 9.53693 2.0071C9.18182 2.62642 9.00426 3.50284 9.00426 4.63636C9.00426 5.39205 9.08381 6.03409 9.2429 6.5625C9.40199 7.09091 9.63068 7.4929 9.92898 7.76847C10.2301 8.04403 10.5923 8.18182 11.0156 8.18182ZM15.6861 9V2.45455H16.6577V3.47727H16.7429C16.8793 3.12784 17.0994 2.85653 17.4034 2.66335C17.7074 2.46733 18.0724 2.36932 18.4986 2.36932C18.9304 2.36932 19.2898 2.46733 19.5767 2.66335C19.8665 2.85653 20.0923 3.12784 20.2543 3.47727H20.3224C20.4901 3.1392 20.7415 2.87074 21.0767 2.67188C21.4119 2.47017 21.8139 2.36932 22.2827 2.36932C22.8679 2.36932 23.3466 2.55256 23.7188 2.91903C24.0909 3.28267 24.277 3.84943 24.277 4.61932V9H23.2713V4.61932C23.2713 4.13636 23.1392 3.79119 22.875 3.58381C22.6108 3.37642 22.2997 3.27273 21.9418 3.27273C21.4815 3.27273 21.125 3.41193 20.8722 3.69034C20.6193 3.96591 20.4929 4.31534 20.4929 4.73864V9H19.4702V4.51705C19.4702 4.14489 19.3494 3.84517 19.108 3.6179C18.8665 3.38778 18.5554 3.27273 18.1747 3.27273C17.9134 3.27273 17.669 3.34233 17.4418 3.48153C17.2173 3.62074 17.0355 3.81392 16.8963 4.06108C16.7599 4.3054 16.6918 4.58807 16.6918 4.90909V9H15.6861Z" fill="#0F1324" fill-opacity="0.6"/>
<path d="M30 4H496" stroke="#DEE0E3" stroke-dasharray="6 6"/>
<path d="M30 52H496" stroke="#DEE0E3" stroke-dasharray="6 6"/>
<path d="M30 100H496" stroke="#DEE0E3" stroke-dasharray="6 6"/>
<path d="M30 148H496" stroke="#DEE0E3" stroke-dasharray="6 6"/>
<path d="M30 196H496" stroke="#DEE0E3" stroke-dasharray="6 6"/>
<path d="M30 244H496" stroke="#DEE0E3" stroke-dasharray="6 6"/>
<path d="M34.6145 257.273H35.927V263.46C35.927 264.02 35.8162 264.499 35.5946 264.896C35.3759 265.294 35.0676 265.598 34.6699 265.808C34.2722 266.016 33.8063 266.119 33.2722 266.119C32.7807 266.119 32.339 266.03 31.9469 265.851C31.5577 265.672 31.2495 265.412 31.0222 265.071C30.7978 264.727 30.6855 264.31 30.6855 263.818H31.9938C31.9938 264.06 32.0492 264.268 32.16 264.445C32.2736 264.621 32.4284 264.759 32.6245 264.858C32.8233 264.955 33.0506 265.003 33.3063 265.003C33.5847 265.003 33.8205 264.945 34.0137 264.828C34.2097 264.709 34.3588 264.534 34.4611 264.304C34.5634 264.074 34.6145 263.793 34.6145 263.46V257.273ZM39.6461 266.145C39.2314 266.145 38.8564 266.068 38.5211 265.915C38.1859 265.759 37.9203 265.533 37.7243 265.237C37.5311 264.942 37.4345 264.58 37.4345 264.151C37.4345 263.781 37.5055 263.477 37.6475 263.239C37.7896 263 37.9814 262.811 38.2228 262.672C38.4643 262.533 38.7342 262.428 39.0325 262.357C39.3308 262.286 39.6348 262.232 39.9444 262.195C40.3365 262.149 40.6547 262.112 40.899 262.084C41.1433 262.053 41.3208 262.003 41.4316 261.935C41.5424 261.866 41.5978 261.756 41.5978 261.602V261.572C41.5978 261.2 41.4927 260.912 41.2825 260.707C41.0751 260.503 40.7654 260.401 40.3535 260.401C39.9245 260.401 39.5865 260.496 39.3393 260.686C39.095 260.874 38.926 261.082 38.8322 261.312L37.6348 261.04C37.7768 260.642 37.9842 260.321 38.2569 260.077C38.5325 259.83 38.8493 259.651 39.2072 259.54C39.5652 259.426 39.9416 259.369 40.3365 259.369C40.5978 259.369 40.8748 259.401 41.1674 259.463C41.4629 259.523 41.7385 259.634 41.9941 259.795C42.2527 259.957 42.4643 260.189 42.6291 260.49C42.7939 260.788 42.8762 261.176 42.8762 261.653V266H41.6319V265.105H41.5808C41.4984 265.27 41.3748 265.432 41.21 265.591C41.0453 265.75 40.8336 265.882 40.5751 265.987C40.3166 266.092 40.0069 266.145 39.6461 266.145ZM39.9231 265.122C40.2754 265.122 40.5765 265.053 40.8265 264.913C41.0794 264.774 41.2711 264.592 41.4018 264.368C41.5353 264.141 41.6021 263.898 41.6021 263.639V262.795C41.5566 262.841 41.4686 262.884 41.3379 262.923C41.21 262.96 41.0637 262.993 40.899 263.021C40.7342 263.047 40.5737 263.071 40.4174 263.094C40.2612 263.114 40.1305 263.131 40.0254 263.145C39.7782 263.176 39.5524 263.229 39.3478 263.303C39.1461 263.376 38.9842 263.483 38.862 263.622C38.7427 263.759 38.6831 263.94 38.6831 264.168C38.6831 264.483 38.7995 264.722 39.0325 264.884C39.2654 265.043 39.5623 265.122 39.9231 265.122ZM45.8475 262.114V266H44.5733V259.455H45.7963V260.52H45.8773C46.0279 260.173 46.2637 259.895 46.5847 259.685C46.9086 259.474 47.3162 259.369 47.8077 259.369C48.2537 259.369 48.6444 259.463 48.9796 259.651C49.3148 259.835 49.5748 260.111 49.7594 260.477C49.9441 260.844 50.0364 261.297 50.0364 261.837V266H48.7623V261.99C48.7623 261.516 48.6387 261.145 48.3915 260.878C48.1444 260.608 47.8049 260.473 47.373 260.473C47.0776 260.473 46.8148 260.537 46.5847 260.665C46.3574 260.793 46.177 260.98 46.0435 261.227C45.9128 261.472 45.8475 261.767 45.8475 262.114ZM58.215 257.273V266H56.894V258.594H56.8429L54.7548 259.957V258.696L56.9324 257.273H58.215Z" fill="#0F1324" fill-opacity="0.6"/>
<path d="M469.476 257.273H470.788V263.46C470.788 264.02 470.678 264.499 470.456 264.896C470.237 265.294 469.929 265.598 469.531 265.808C469.134 266.016 468.668 266.119 468.134 266.119C467.642 266.119 467.2 266.03 466.808 265.851C466.419 265.672 466.111 265.412 465.884 265.071C465.659 264.727 465.547 264.31 465.547 263.818H466.855C466.855 264.06 466.911 264.268 467.021 264.445C467.135 264.621 467.29 264.759 467.486 264.858C467.685 264.955 467.912 265.003 468.168 265.003C468.446 265.003 468.682 264.945 468.875 264.828C469.071 264.709 469.22 264.534 469.322 264.304C469.425 264.074 469.476 263.793 469.476 263.46V257.273ZM474.507 266.145C474.093 266.145 473.718 266.068 473.382 265.915C473.047 265.759 472.782 265.533 472.586 265.237C472.392 264.942 472.296 264.58 472.296 264.151C472.296 263.781 472.367 263.477 472.509 263.239C472.651 263 472.843 262.811 473.084 262.672C473.326 262.533 473.596 262.428 473.894 262.357C474.192 262.286 474.496 262.232 474.806 262.195C475.198 262.149 475.516 262.112 475.76 262.084C476.005 262.053 476.182 262.003 476.293 261.935C476.404 261.866 476.459 261.756 476.459 261.602V261.572C476.459 261.2 476.354 260.912 476.144 260.707C475.936 260.503 475.627 260.401 475.215 260.401C474.786 260.401 474.448 260.496 474.201 260.686C473.956 260.874 473.787 261.082 473.694 261.312L472.496 261.04C472.638 260.642 472.846 260.321 473.118 260.077C473.394 259.83 473.711 259.651 474.069 259.54C474.426 259.426 474.803 259.369 475.198 259.369C475.459 259.369 475.736 259.401 476.029 259.463C476.324 259.523 476.6 259.634 476.855 259.795C477.114 259.957 477.326 260.189 477.49 260.49C477.655 260.788 477.738 261.176 477.738 261.653V266H476.493V265.105H476.442C476.36 265.27 476.236 265.432 476.071 265.591C475.907 265.75 475.695 265.882 475.436 265.987C475.178 266.092 474.868 266.145 474.507 266.145ZM474.784 265.122C475.137 265.122 475.438 265.053 475.688 264.913C475.941 264.774 476.132 264.592 476.263 264.368C476.397 264.141 476.463 263.898 476.463 263.639V262.795C476.418 262.841 476.33 262.884 476.199 262.923C476.071 262.96 475.925 262.993 475.76 263.021C475.596 263.047 475.435 263.071 475.279 263.094C475.123 263.114 474.992 263.131 474.887 263.145C474.64 263.176 474.414 263.229 474.209 263.303C474.007 263.376 473.846 263.483 473.723 263.622C473.604 263.759 473.544 263.94 473.544 264.168C473.544 264.483 473.661 264.722 473.894 264.884C474.127 265.043 474.424 265.122 474.784 265.122ZM480.709 262.114V266H479.435V259.455H480.658V260.52H480.739C480.889 260.173 481.125 259.895 481.446 259.685C481.77 259.474 482.178 259.369 482.669 259.369C483.115 259.369 483.506 259.463 483.841 259.651C484.176 259.835 484.436 260.111 484.621 260.477C484.805 260.844 484.898 261.297 484.898 261.837V266H483.624V261.99C483.624 261.516 483.5 261.145 483.253 260.878C483.006 260.608 482.666 260.473 482.234 260.473C481.939 260.473 481.676 260.537 481.446 260.665C481.219 260.793 481.038 260.98 480.905 261.227C480.774 261.472 480.709 261.767 480.709 262.114ZM490.059 266L493.869 258.466V258.402H489.463V257.273H495.233V258.44L491.436 266H490.059Z" fill="#0F1324" fill-opacity="0.6"/>
<path d="M24 243.816L27.2694 244L30.5387 243.816L33.8081 243.285L37.0774 243.408L40.3468 243.163L43.6161 242.571L46.8855 242.754H50.1548L53.4242 243.285L56.6935 243.408L59.9629 243.163L63.2323 243.285L66.5016 243.163L69.771 243.408L73.0403 240.447L76.3097 242.959H79.579L82.8484 243.285L86.1177 242.611L89.3871 241.366L92.6564 241.774L95.9258 242.428H99.1952L102.465 242.305L105.734 240.773L109.003 241.074L112.273 239.548L115.542 239.099L118.811 239.548L122.081 236.362L125.35 236.607L128.619 235.648H131.889L135.158 235.137L138.427 237.016L141.697 237.281L144.966 236.199L148.235 235.831L151.505 237.016L154.774 235.525L158.044 235.403L161.313 234.565L164.582 235.403L167.852 235.26L171.121 234.565L174.39 233.401L177.66 233.932L180.929 233.687L184.198 231.931L187.468 232.186L190.737 230.943L194.006 229.096L197.276 227.439L200.545 228.777L203.814 227.885L207.084 227.184L210.353 224.285L213.623 220.749L216.892 223.106L220.161 227.184L223.431 226.866L226.7 225.113L229.969 222.246L233.239 221.482L236.508 222.246L239.777 220.749L243.047 220.462L246.316 218.487L249.585 218.105L252.855 216.002L256.124 214.792L259.394 212.88L262.663 215.269L265.932 220.749L269.202 222.756L272.471 220.749L275.74 216.002L279.01 214.792L282.279 216.002L285.548 214.473L288.818 213.167L292.087 211.606L295.356 209.28L298.626 210.491L301.895 209.726L305.164 212.88L308.434 216.257L311.703 214.027L314.973 210.491L324.588 206.069L331.137 202.336L337.333 194.872H345.299L354.859 184.456L362.471 186.365L371.499 182.373L381.412 170.568L389.91 162.148L396.46 159.892L401.239 164.318L410.621 162.148L416.817 153.816L431.51 148L444.256 157.808L452.753 164.318L467.446 170.568L481.254 167.53L494 159.892V244H27.2694H24V243.816Z" fill="url(#paint0_linear_979_40276)"/>
<path d="M24 243.816L27.2694 244L30.5387 243.816L33.8081 243.285L37.0774 243.408L40.3468 243.163L43.6161 242.571L46.8855 242.754H50.1548L53.4242 243.285L56.6935 243.408L59.9629 243.163L63.2323 243.285L66.5016 243.163L69.771 243.408L73.0403 240.447L76.3097 242.959H79.579L82.8484 243.285L86.1177 242.611L89.3871 241.366L92.6564 241.774L95.9258 242.428H99.1952L102.465 242.305L105.734 240.773L109.003 241.074L112.273 239.548L115.542 239.099L118.811 239.548L122.081 236.362L125.35 236.607L128.619 235.648H131.889L135.158 235.137L138.427 237.016L141.697 237.281L144.966 236.199L148.235 235.831L151.505 237.016L154.774 235.525L158.044 235.403L161.313 234.565L164.582 235.403L167.852 235.26L171.121 234.565L174.39 233.401L177.66 233.932L180.929 233.687L184.198 231.931L187.468 232.186L190.737 230.943L194.006 229.096L197.276 227.439L200.545 228.777L203.814 227.885L207.084 227.184L210.353 224.285L213.623 220.749L216.892 223.106L220.161 227.184L223.431 226.866L226.7 225.113L229.969 222.246L233.239 221.482L236.508 222.246L239.777 220.749L243.047 220.462L246.316 218.487L249.585 218.105L252.855 216.002L256.124 214.792L259.394 212.88L262.663 215.269L265.932 220.749L269.202 222.756L272.471 220.749L275.74 216.002L279.01 214.792L282.279 216.002L285.548 214.473L288.818 213.167L292.087 211.606L295.356 209.28L298.626 210.491L301.895 209.726L305.164 212.88L308.434 216.257L311.703 214.027L314.973 210.491L324.588 206.069L331.137 202.336L337.333 194.872H345.299L354.859 184.456L362.471 186.365L371.499 182.373L381.412 170.568L389.91 162.148L396.459 159.892L401.239 164.318L410.621 162.148L416.817 153.816L431.51 148L444.256 157.808L452.753 164.318L467.446 170.568L481.254 167.53L494 159.892" stroke="#DF1C41" stroke-width="2" stroke-linecap="round" stroke-linejoin="round"/>
<defs>
<linearGradient id="paint0_linear_979_40276" x1="259" y1="148" x2="259" y2="244" gradientUnits="userSpaceOnUse">
<stop stop-color="#DF1C41" stop-opacity="0.5"/>
<stop offset="1" stop-color="white" stop-opacity="0"/>
</linearGradient>
</defs>
</svg>
