<svg width="49" height="48" viewBox="0 0 49 48" fill="none" xmlns="http://www.w3.org/2000/svg">
<path d="M3.33325 17.4C3.33325 12.3595 3.33325 9.83929 4.31419 7.91409C5.17705 6.22063 6.55388 4.8438 8.24734 3.98094C10.1725 3 12.6928 3 17.7333 3H30.9333C35.9737 3 38.494 3 40.4192 3.98094C42.1126 4.8438 43.4894 6.22063 44.3523 7.91409C45.3333 9.83929 45.3333 12.3595 45.3333 17.4V30.6C45.3333 35.6405 45.3333 38.1607 44.3523 40.0859C43.4894 41.7794 42.1126 43.1562 40.4192 44.0191C38.494 45 35.9737 45 30.9333 45H17.7333C12.6928 45 10.1725 45 8.24734 44.0191C6.55388 43.1562 5.17705 41.7794 4.31419 40.0859C3.33325 38.1607 3.33325 35.6405 3.33325 30.6V17.4Z" fill="url(#paint0_linear_6364_100893)"/>
<path d="M36.7461 15.04C34.4755 13.12 31.7507 12.16 28.8745 12L28.4204 12.48C30.9938 13.12 33.2644 14.4 35.3837 16.16C32.8103 14.72 29.9342 13.76 26.9066 13.44C25.9984 13.28 25.2415 13.28 24.3333 13.28C23.425 13.28 22.6681 13.28 21.7599 13.44C18.7323 13.76 15.8562 14.72 13.2828 16.16C15.4021 14.4 17.6727 13.12 20.2461 12.48L19.792 12C16.9158 12.16 14.1911 13.12 11.9204 15.04C9.34701 20.16 7.98463 25.92 7.83325 31.84C10.1039 34.4 13.2828 36 16.6131 36C16.6131 36 17.6727 34.72 18.4296 33.6C16.4617 33.12 14.6452 32 13.4342 30.24C14.4938 30.88 15.5534 31.52 16.6131 32C17.9755 32.64 19.3378 32.96 20.7002 33.28C21.9112 33.44 23.1222 33.6 24.3333 33.6C25.5443 33.6 26.7553 33.44 27.9663 33.28C29.3287 32.96 30.6911 32.64 32.0534 32C33.1131 31.52 34.1727 30.88 35.2323 30.24C34.0213 32 32.2048 33.12 30.2369 33.6C30.9938 34.72 32.0534 36 32.0534 36C35.3837 36 38.5626 34.4 40.8333 31.84C40.6819 25.92 39.3195 20.16 36.7461 15.04ZM19.3378 28.96C17.8241 28.96 16.4617 27.52 16.4617 25.76C16.4617 24 17.8241 22.56 19.3378 22.56C20.8516 22.56 22.214 24 22.214 25.76C22.214 27.52 20.8516 28.96 19.3378 28.96ZM29.3287 28.96C27.8149 28.96 26.4525 27.52 26.4525 25.76C26.4525 24 27.8149 22.56 29.3287 22.56C30.8424 22.56 32.2048 24 32.2048 25.76C32.2048 27.52 30.8424 28.96 29.3287 28.96Z" fill="white"/>
<defs>
<linearGradient id="paint0_linear_6364_100893" x1="24.3333" y1="3" x2="24.3333" y2="45" gradientUnits="userSpaceOnUse">
<stop stop-color="#687EC9"/>
<stop offset="1" stop-color="#5971C3"/>
</linearGradient>
</defs>
</svg>
