<svg width="110" height="111" viewBox="0 0 110 111" fill="none" xmlns="http://www.w3.org/2000/svg">
<path d="M51 101.451C78.6142 101.451 101 79.0654 101 51.4512C101 23.8369 78.6142 1.45117 51 1.45117C23.3858 1.45117 1 23.8369 1 51.4512C1 79.0654 23.3858 101.451 51 101.451Z" fill="#E7EFFF"/>
<path d="M101 51.4512C101 62.3124 97.4633 72.8783 90.9249 81.5509C84.3865 90.2236 75.2019 96.5314 64.76 99.5204C54.3182 102.509 43.187 102.017 33.0498 98.1178C22.9127 94.2186 14.3208 87.1246 8.57361 77.9085C2.8264 68.6925 0.236404 57.8556 1.19529 47.0368C2.15418 36.218 6.6098 26.0056 13.8884 17.944C21.1669 9.88248 30.8725 4.41017 41.5375 2.35467C52.2024 0.299167 63.2467 1.77227 73 6.55121C81.3999 10.667 88.4768 17.0565 93.4264 24.9936C98.3761 32.9308 101 42.0972 101 51.4512Z" fill="#F6F8FA"/>
<path d="M9.5 4.45117C9.5 5.83188 8.38071 6.95117 7 6.95117C5.61929 6.95117 4.5 5.83188 4.5 4.45117C4.5 3.07046 5.61929 1.95117 7 1.95117C8.38071 1.95117 9.5 3.07046 9.5 4.45117Z" stroke="#CDD0D5"/>
<path d="M108.5 13.4512C108.5 14.8319 107.381 15.9512 106 15.9512C104.619 15.9512 103.5 14.8319 103.5 13.4512C103.5 12.0705 104.619 10.9512 106 10.9512C107.381 10.9512 108.5 12.0705 108.5 13.4512Z" stroke="#CDD0D5"/>
<path d="M105.5 106.451C105.5 107.832 104.381 108.951 103 108.951C101.619 108.951 100.5 107.832 100.5 106.451C100.5 105.07 101.619 103.951 103 103.951C104.381 103.951 105.5 105.07 105.5 106.451Z" stroke="#CDD0D5"/>
<path d="M6.5 99.4512C6.5 100.832 5.38071 101.951 4 101.951C2.61929 101.951 1.5 100.832 1.5 99.4512C1.5 98.0705 2.61929 96.9512 4 96.9512C5.38071 96.9512 6.5 98.0705 6.5 99.4512Z" stroke="#CDD0D5"/>
<path d="M70.1763 32.3111C69.3874 31.8238 68.4871 31.5464 67.5607 31.5052C66.6344 31.4639 65.7129 31.6602 64.8838 32.0755L64.5032 32.2749C64.2502 32.4023 63.9709 32.4688 63.6876 32.4688C63.4043 32.4688 63.1249 32.4023 62.872 32.2749L58.8663 30.263C58.1094 29.8958 57.2789 29.705 56.4376 29.705C55.5962 29.705 54.7658 29.8958 54.0088 30.263L50.0032 32.2749C49.7502 32.4023 49.4709 32.4688 49.1876 32.4688C48.9043 32.4688 48.625 32.4023 48.372 32.2749L47.9913 32.0755C47.1615 31.6612 46.2395 31.4661 45.313 31.5086C44.3865 31.5512 43.4863 31.8301 42.698 32.3187C41.9096 32.8073 41.2594 33.4895 40.809 34.3003C40.3587 35.1111 40.1233 36.0236 40.1251 36.9511V65.9511C40.1341 66.0718 40.1341 66.193 40.1251 66.3136C40.0523 67.741 39.5593 69.1151 38.708 70.2632C37.8566 71.4112 36.6849 72.282 35.3401 72.7661C35.6637 73.0429 36.0743 73.1969 36.5001 73.2011H65.5001C67.4229 73.2011 69.267 72.4373 70.6266 71.0776C71.9862 69.718 72.7501 67.8739 72.7501 65.9511V36.9511C72.7531 36.0223 72.5181 35.1081 72.0676 34.2959C71.617 33.4836 70.9659 32.8003 70.1763 32.3111ZM43.7501 65.9511C43.759 66.0233 43.759 66.0964 43.7501 66.1686C43.7595 65.9996 43.7595 65.8302 43.7501 65.6611V65.9511ZM60.0626 60.9486H49.1876C48.7069 60.9486 48.2459 60.7577 47.906 60.4177C47.566 60.0778 47.3751 59.6168 47.3751 59.1361C47.3751 58.6554 47.566 58.1944 47.906 57.8545C48.2459 57.5146 48.7069 57.3236 49.1876 57.3236H60.0626C60.5433 57.3236 61.0043 57.5146 61.3442 57.8545C61.6841 58.1944 61.8751 58.6554 61.8751 59.1361C61.8751 59.6168 61.6841 60.0778 61.3442 60.4177C61.0043 60.7577 60.5433 60.9486 60.0626 60.9486ZM63.6876 50.0736H49.1876C48.7069 50.0736 48.2459 49.8827 47.906 49.5427C47.566 49.2028 47.3751 48.7418 47.3751 48.2611C47.3751 47.7804 47.566 47.3194 47.906 46.9795C48.2459 46.6396 48.7069 46.4486 49.1876 46.4486H63.6876C64.1683 46.4486 64.6293 46.6396 64.9692 46.9795C65.3091 47.3194 65.5001 47.7804 65.5001 48.2611C65.5001 48.7418 65.3091 49.2028 64.9692 49.5427C64.6293 49.8827 64.1683 50.0736 63.6876 50.0736Z" fill="#D6D9E0"/>
<path d="M34.6875 47.8262H36.5V65.9512C36.5 66.9126 36.1181 67.8346 35.4383 68.5144C34.7584 69.1943 33.8364 69.5762 32.875 69.5762C31.9136 69.5762 30.9916 69.1943 30.3117 68.5144C29.6319 67.8346 29.25 66.9126 29.25 65.9512V53.2637C29.25 51.8216 29.8229 50.4385 30.8426 49.4188C31.8623 48.399 33.2454 47.8262 34.6875 47.8262Z" fill="#868C98"/>
</svg>
