<svg width="40" height="40" viewBox="0 0 40 40" fill="none" xmlns="http://www.w3.org/2000/svg">
<path d="M26.6667 24.1666H28.3334V25.8333H11.6667V24.1666H13.3334V18.3333C13.3334 16.5652 14.0358 14.8695 15.286 13.6192C16.5363 12.369 18.232 11.6666 20.0001 11.6666C21.7682 11.6666 23.4639 12.369 24.7141 13.6192C25.9644 14.8695 26.6667 16.5652 26.6667 18.3333V24.1666ZM25.0001 24.1666V18.3333C25.0001 17.0072 24.4733 15.7354 23.5356 14.7978C22.5979 13.8601 21.3262 13.3333 20.0001 13.3333C18.674 13.3333 17.4022 13.8601 16.4645 14.7978C15.5269 15.7354 15.0001 17.0072 15.0001 18.3333V24.1666H25.0001ZM17.5001 27.5H22.5001V29.1666H17.5001V27.5Z" fill="#868C98"/>
</svg>
