<svg width="41" height="40" viewBox="0 0 41 40" fill="none" xmlns="http://www.w3.org/2000/svg">
<rect x="0.889052" y="0.555556" width="38.8889" height="38.8889" rx="19.4444" fill="white"/>
<rect x="0.889052" y="0.555556" width="38.8889" height="38.8889" rx="19.4444" stroke="#E2E4E9" stroke-width="1.11111"/>
<path d="M27.0001 28.3334H25.3334V26.6667C25.3334 26.0037 25.07 25.3678 24.6012 24.8989C24.1323 24.4301 23.4965 24.1667 22.8334 24.1667H17.8334C17.1704 24.1667 16.5345 24.4301 16.0656 24.8989C15.5968 25.3678 15.3334 26.0037 15.3334 26.6667V28.3334H13.6667V26.6667C13.6667 25.5616 14.1057 24.5018 14.8871 23.7204C15.6685 22.939 16.7283 22.5 17.8334 22.5H22.8334C23.9385 22.5 24.9983 22.939 25.7797 23.7204C26.5611 24.5018 27.0001 25.5616 27.0001 26.6667V28.3334ZM20.3334 20.8334C19.6768 20.8334 19.0266 20.704 18.42 20.4528C17.8134 20.2015 17.2622 19.8332 16.7979 19.3689C16.3336 18.9046 15.9653 18.3534 15.714 17.7468C15.4627 17.1402 15.3334 16.49 15.3334 15.8334C15.3334 15.1768 15.4627 14.5266 15.714 13.92C15.9653 13.3133 16.3336 12.7621 16.7979 12.2978C17.2622 11.8335 17.8134 11.4652 18.42 11.214C19.0266 10.9627 19.6768 10.8334 20.3334 10.8334C21.6595 10.8334 22.9313 11.3602 23.8689 12.2978C24.8066 13.2355 25.3334 14.5073 25.3334 15.8334C25.3334 17.1595 24.8066 18.4312 23.8689 19.3689C22.9313 20.3066 21.6595 20.8334 20.3334 20.8334ZM20.3334 19.1667C21.2175 19.1667 22.0653 18.8155 22.6904 18.1904C23.3156 17.5653 23.6667 16.7174 23.6667 15.8334C23.6667 14.9493 23.3156 14.1015 22.6904 13.4764C22.0653 12.8512 21.2175 12.5 20.3334 12.5C19.4494 12.5 18.6015 12.8512 17.9764 13.4764C17.3513 14.1015 17.0001 14.9493 17.0001 15.8334C17.0001 16.7174 17.3513 17.5653 17.9764 18.1904C18.6015 18.8155 19.4494 19.1667 20.3334 19.1667Z" fill="#356D00"/>
</svg>
