<svg width="48" height="48" viewBox="0 0 48 48" fill="none" xmlns="http://www.w3.org/2000/svg">
<rect width="48" height="48" rx="24" fill="#F6F8FA"/>
<path d="M24 34C18.477 34 14 29.523 14 24C14 18.477 18.477 14 24 14C29.523 14 34 18.477 34 24C34 29.523 29.523 34 24 34ZM24 32C26.1217 32 28.1566 31.1571 29.6569 29.6569C31.1571 28.1566 32 26.1217 32 24C32 21.8783 31.1571 19.8434 29.6569 18.3431C28.1566 16.8429 26.1217 16 24 16C21.8783 16 19.8434 16.8429 18.3431 18.3431C16.8429 19.8434 16 21.8783 16 24C16 26.1217 16.8429 28.1566 18.3431 29.6569C19.8434 31.1571 21.8783 32 24 32ZM23 27H25V29H23V27ZM25 25.355V26H23V24.5C23 24.2348 23.1054 23.9804 23.2929 23.7929C23.4804 23.6054 23.7348 23.5 24 23.5C24.2841 23.5 24.5623 23.4193 24.8023 23.2673C25.0423 23.1154 25.2343 22.8984 25.3558 22.6416C25.4773 22.3848 25.5234 22.0988 25.4887 21.8168C25.454 21.5349 25.34 21.2686 25.1598 21.0489C24.9797 20.8292 24.7409 20.6652 24.4712 20.576C24.2015 20.4867 23.912 20.4759 23.6364 20.5447C23.3608 20.6135 23.1104 20.7592 22.9144 20.9648C22.7183 21.1704 22.5847 21.4274 22.529 21.706L20.567 21.313C20.6886 20.7051 20.9695 20.1404 21.3809 19.6766C21.7923 19.2128 22.3195 18.8666 22.9086 18.6733C23.4977 18.4801 24.1275 18.4467 24.7337 18.5766C25.3399 18.7065 25.9007 18.9951 26.3588 19.4128C26.8169 19.8305 27.1559 20.3624 27.3411 20.9541C27.5263 21.5457 27.5511 22.1759 27.4129 22.7803C27.2747 23.3847 26.9785 23.9415 26.5545 24.3939C26.1306 24.8462 25.5941 25.1779 25 25.355Z" fill="#525866"/>
<path d="M24 34C18.477 34 14 29.523 14 24C14 18.477 18.477 14 24 14C29.523 14 34 18.477 34 24C34 29.523 29.523 34 24 34ZM24 32C26.1217 32 28.1566 31.1571 29.6569 29.6569C31.1571 28.1566 32 26.1217 32 24C32 21.8783 31.1571 19.8434 29.6569 18.3431C28.1566 16.8429 26.1217 16 24 16C21.8783 16 19.8434 16.8429 18.3431 18.3431C16.8429 19.8434 16 21.8783 16 24C16 26.1217 16.8429 28.1566 18.3431 29.6569C19.8434 31.1571 21.8783 32 24 32ZM23 27H25V29H23V27ZM25 25.355V26H23V24.5C23 24.2348 23.1054 23.9804 23.2929 23.7929C23.4804 23.6054 23.7348 23.5 24 23.5C24.2841 23.5 24.5623 23.4193 24.8023 23.2673C25.0423 23.1154 25.2343 22.8984 25.3558 22.6416C25.4773 22.3848 25.5234 22.0988 25.4887 21.8168C25.454 21.5349 25.34 21.2686 25.1598 21.0489C24.9797 20.8292 24.7409 20.6652 24.4712 20.576C24.2015 20.4867 23.912 20.4759 23.6364 20.5447C23.3608 20.6135 23.1104 20.7592 22.9144 20.9648C22.7183 21.1704 22.5847 21.4274 22.529 21.706L20.567 21.313C20.6886 20.7051 20.9695 20.1404 21.3809 19.6766C21.7923 19.2128 22.3195 18.8666 22.9086 18.6733C23.4977 18.4801 24.1275 18.4467 24.7337 18.5766C25.3399 18.7065 25.9007 18.9951 26.3588 19.4128C26.8169 19.8305 27.1559 20.3624 27.3411 20.9541C27.5263 21.5457 27.5511 22.1759 27.4129 22.7803C27.2747 23.3847 26.9785 23.9415 26.5545 24.3939C26.1306 24.8462 25.5941 25.1779 25 25.355Z" fill="#525866"/>
<circle cx="24" cy="24" r="7" fill="#F6F8FA"/>
<path fill-rule="evenodd" clip-rule="evenodd" d="M20.7882 24.823V23.8429H20V22.2089H20.7882V20H21.2235H22.2824H22.4588L23.8367 22.2089H25.9404L25.9177 20H27.4941V22.2089H28.4967V23.8429H27.4941V24.823H28.4967V26.457H27.4941V28H27.0706H26H25.8353L24.8705 26.457H22.3583L22.3765 28H20.7882V26.457H20V24.823H20.7882ZM22.3391 24.823H23.8487L23.2358 23.8429H22.3276L22.3391 24.823ZM25.9673 24.823H25.4591L25.4235 24.7529L24.8559 23.8429H25.9572L25.9673 24.823ZM22.3399 22.2089H22.3083L22.3076 22.1449L22.3399 22.2089Z" fill="#525866"/>
</svg>
