<svg width="48" height="48" viewBox="0 0 48 48" fill="none" xmlns="http://www.w3.org/2000/svg">
<rect width="48" height="48" rx="24" fill="#F6F8FA"/>
<path d="M25.06 20.1102L26.475 21.5252C27.1251 22.1753 27.6408 22.947 27.9926 23.7963C28.3444 24.6456 28.5255 25.5559 28.5255 26.4752C28.5255 27.3945 28.3444 28.3049 27.9926 29.1542C27.6408 30.0035 27.1251 30.7752 26.475 31.4252L26.121 31.7782C24.8082 33.0911 23.0276 33.8286 21.171 33.8286C19.3144 33.8286 17.5338 33.0911 16.221 31.7782C14.9082 30.4654 14.1707 28.6848 14.1707 26.8282C14.1707 24.9716 14.9082 23.1911 16.221 21.8782L17.636 23.2932C17.1684 23.7568 16.7969 24.3081 16.5429 24.9156C16.289 25.5231 16.1575 26.1748 16.156 26.8333C16.1546 27.4917 16.2832 28.144 16.5345 28.7526C16.7859 29.3612 17.1549 29.9142 17.6205 30.3798C18.0861 30.8453 18.6391 31.2144 19.2477 31.4657C19.8563 31.717 20.5085 31.8456 21.167 31.8442C21.8254 31.8428 22.4771 31.7113 23.0846 31.4573C23.6921 31.2033 24.2435 30.8319 24.707 30.3642L25.061 30.0102C25.9984 29.0726 26.5249 27.8011 26.5249 26.4752C26.5249 25.1494 25.9984 23.8779 25.061 22.9402L23.646 21.5252L25.061 20.1112L25.06 20.1102ZM31.778 26.1212L30.364 24.7072C30.8316 24.2437 31.2031 23.6923 31.4571 23.0848C31.7111 22.4773 31.8425 21.8256 31.844 21.1672C31.8454 20.5087 31.7168 19.8565 31.4655 19.2479C31.2142 18.6393 30.8451 18.0863 30.3795 17.6207C29.9139 17.1551 29.361 16.7861 28.7524 16.5348C28.1437 16.2834 27.4915 16.1548 26.833 16.1563C26.1746 16.1577 25.5229 16.2892 24.9154 16.5432C24.3079 16.7971 23.7566 17.1686 23.293 17.6362L22.939 17.9902C22.0017 18.9279 21.4751 20.1994 21.4751 21.5252C21.4751 22.8511 22.0017 24.1226 22.939 25.0602L24.354 26.4752L22.939 27.8892L21.525 26.4752C20.8749 25.8252 20.3592 25.0535 20.0074 24.2042C19.6556 23.3549 19.4745 22.4445 19.4745 21.5252C19.4745 20.6059 19.6556 19.6956 20.0074 18.8463C20.3592 17.997 20.8749 17.2253 21.525 16.5752L21.879 16.2222C23.1918 14.9094 24.9724 14.1719 26.829 14.1719C28.6856 14.1719 30.4662 14.9094 31.779 16.2222C33.0918 17.5351 33.8294 19.3156 33.8294 21.1722C33.8294 23.0288 33.0918 24.8094 31.779 26.1222L31.778 26.1212Z" fill="#525866"/>
</svg>
