<svg width="48" height="48" viewBox="0 0 48 48" fill="none" xmlns="http://www.w3.org/2000/svg">
<rect width="48" height="48" rx="24" fill="#F6F8FA"/>
<path d="M16.965 17.096L20.511 29.506L23.551 23.426L29.188 21.171L16.965 17.096ZM14.899 14.3L33.705 20.568C33.8023 20.6003 33.8874 20.6617 33.9486 20.7439C34.0099 20.8262 34.0444 20.9253 34.0474 21.0278C34.0505 21.1302 34.022 21.2312 33.9657 21.3169C33.9095 21.4027 33.8282 21.469 33.733 21.507L25 25L20.575 33.85C20.53 33.9402 20.4588 34.0146 20.3707 34.0635C20.2827 34.1125 20.1819 34.1337 20.0816 34.1244C19.9813 34.1151 19.8861 34.0758 19.8085 34.0114C19.731 33.9471 19.6747 33.8609 19.647 33.764L14.26 14.911C14.235 14.8235 14.2345 14.7307 14.2584 14.6428C14.2823 14.555 14.3297 14.4753 14.3956 14.4124C14.4615 14.3495 14.5432 14.3058 14.6321 14.286C14.721 14.2662 14.8136 14.2711 14.9 14.3H14.899Z" fill="#525866"/>
</svg>
