<svg width="48" height="48" viewBox="0 0 48 48" fill="none" xmlns="http://www.w3.org/2000/svg">
<rect width="48" height="48" rx="24" fill="#F6F8FA"/>
<path d="M17 20V32H31V20H17ZM17 18H31V16H17V18ZM32 34H16C15.7348 34 15.4804 33.8946 15.2929 33.7071C15.1054 33.5196 15 33.2652 15 33V15C15 14.7348 15.1054 14.4804 15.2929 14.2929C15.4804 14.1054 15.7348 14 16 14H32C32.2652 14 32.5196 14.1054 32.7071 14.2929C32.8946 14.4804 33 14.7348 33 15V33C33 33.2652 32.8946 33.5196 32.7071 33.7071C32.5196 33.8946 32.2652 34 32 34ZM19 22H23V26H19V22ZM19 28H29V30H19V28ZM25 23H29V25H25V23Z" fill="#525866"/>
</svg>
