<svg width="32" height="32" viewBox="0 0 32 32" fill="none" xmlns="http://www.w3.org/2000/svg">
<rect x="0.363636" y="0.363636" width="31.2727" height="31.2727" rx="15.6364" fill="white"/>
<rect x="0.363636" y="0.363636" width="31.2727" height="31.2727" rx="15.6364" stroke="#E2E4E9" stroke-width="0.727273"/>
<path d="M13.576 21.2891L14.3076 20.0222C14.9285 20.2835 15.6014 20.3976 16.2737 20.3555C16.946 20.3134 17.5994 20.1162 18.1827 19.7794C18.7661 19.4427 19.2636 18.9754 19.6363 18.4143C20.009 17.8532 20.2467 17.2134 20.3309 16.5451H21.7942C21.7159 17.3783 21.4581 18.1847 21.0385 18.9088C20.7539 19.403 20.3981 19.8526 19.9825 20.2433C19.7445 20.1707 19.4941 20.1479 19.2468 20.1763C18.9996 20.2047 18.7608 20.2837 18.5455 20.4084C18.33 20.5325 18.1424 20.6996 17.9943 20.8993C17.8461 21.0989 17.7406 21.327 17.6844 21.5691C16.3265 21.9814 14.8647 21.8817 13.5753 21.2891H13.576ZM12.6305 20.7437C11.4734 19.9231 10.6568 18.7071 10.3353 17.3255C10.688 16.9939 10.9091 16.5233 10.9091 15.9997C10.9091 15.476 10.688 15.004 10.3338 14.6724C10.4644 14.1172 10.6758 13.5842 10.9615 13.0906C11.3788 12.3654 11.9482 11.7392 12.6305 11.2549L13.3622 12.5219C12.8255 12.9289 12.3902 13.4546 12.0906 14.0579C11.791 14.6612 11.635 15.3257 11.635 15.9993C11.635 16.6729 11.791 17.3374 12.0906 17.9407C12.3902 18.544 12.8255 19.0697 13.3622 19.4768L12.6313 20.7437H12.6305ZM13.576 10.7102C14.8653 10.1193 16.3258 10.0193 17.6836 10.4288C17.7942 10.9015 18.0924 11.3291 18.5455 11.5909C18.9985 11.8528 19.5178 11.8964 19.9825 11.756C21.0164 12.7271 21.6604 14.0421 21.7935 15.4542H20.3295C20.2458 14.7859 20.0083 14.1461 19.6357 13.5851C19.263 13.024 18.7654 12.557 18.1818 12.2208C17.5988 11.8834 16.9456 11.6859 16.2734 11.6436C15.6011 11.6013 14.9283 11.7155 14.3076 11.9771L13.576 10.7102ZM18.9091 10.9611C18.784 10.89 18.6743 10.7949 18.5861 10.6812C18.498 10.5675 18.4332 10.4375 18.3955 10.2986C18.3578 10.1598 18.3479 10.0148 18.3665 9.87217C18.385 9.7295 18.4316 9.59191 18.5035 9.46732C18.5755 9.34272 18.6713 9.23359 18.7856 9.1462C18.8999 9.05881 19.0303 8.99489 19.1694 8.95811C19.3085 8.92134 19.4535 8.91244 19.5961 8.93193C19.7386 8.95142 19.8759 8.99891 20 9.07168C20.2485 9.21737 20.4293 9.45544 20.5029 9.73395C20.5766 10.0125 20.5371 10.3088 20.393 10.5583C20.249 10.8077 20.0121 10.9901 19.7341 11.0656C19.4561 11.1411 19.1595 11.1035 18.9091 10.9611ZM10.1818 15.9997C10.1818 16.289 10.0669 16.5665 9.8623 16.7711C9.65771 16.9756 9.38024 17.0906 9.09091 17.0906C8.80158 17.0906 8.52411 16.9756 8.31952 16.7711C8.11493 16.5665 8 16.289 8 15.9997C8 15.7103 8.11493 15.4329 8.31952 15.2283C8.52411 15.0237 8.80158 14.9088 9.09091 14.9088C9.38024 14.9088 9.65771 15.0237 9.8623 15.2283C10.0669 15.4329 10.1818 15.7103 10.1818 15.9997ZM18.9091 21.0382C19.0332 20.9655 19.1705 20.918 19.313 20.8985C19.4556 20.879 19.6006 20.8879 19.7396 20.9247C19.8787 20.9614 20.0092 21.0254 20.1235 21.1127C20.2378 21.2001 20.3336 21.3093 20.4056 21.4339C20.4775 21.5585 20.5241 21.696 20.5426 21.8387C20.5612 21.9814 20.5513 22.1263 20.5136 22.2652C20.4759 22.404 20.4111 22.534 20.323 22.6477C20.2348 22.7614 20.1251 22.8566 20 22.9277C19.7496 23.0701 19.453 23.1076 19.175 23.0321C18.897 22.9566 18.6601 22.7743 18.5161 22.5248C18.372 22.2753 18.3325 21.979 18.4061 21.7005C18.4798 21.422 18.6606 21.1839 18.9091 21.0382Z" fill="#868C98"/>
</svg>
