<svg width="496" height="289" viewBox="0 0 496 289" fill="none" xmlns="http://www.w3.org/2000/svg">
<path d="M280 140C280 217.32 217.32 280 140 280C62.6801 280 0 217.32 0 140C0 62.6801 62.6801 0 140 0C217.32 0 280 62.6801 280 140ZM35 140C35 197.99 82.0101 245 140 245C197.99 245 245 197.99 245 140C245 82.0101 197.99 35 140 35C82.0101 35 35 82.0101 35 140Z" fill="#EAECF0"/>
<path d="M140 0C169.565 3.5256e-07 198.371 9.35969 222.29 26.7376C246.209 44.1156 264.012 68.6196 273.148 96.7376L239.861 107.553C233.009 86.4647 219.656 68.0867 201.717 55.0532C183.778 42.0198 162.174 35 140 35V0Z" fill="#112400"/>
<path d="M273.148 96.7376C281.126 121.293 282.159 147.577 276.132 172.682C270.104 197.788 257.252 220.738 238.995 238.995C220.738 257.252 197.788 270.104 172.682 276.132C147.577 282.159 121.293 281.126 96.7377 273.148L107.553 239.861C125.97 245.845 145.682 246.619 164.512 242.099C183.341 237.578 200.554 227.939 214.246 214.246C227.939 200.554 237.578 183.341 242.099 164.512C246.619 145.682 245.845 125.97 239.861 107.553L273.148 96.7376Z" fill="#1B3800"/>
<path d="M96.7376 273.148C68.6195 264.012 44.1155 246.209 26.7376 222.29L55.0532 201.717C68.0867 219.656 86.4647 233.009 107.553 239.861L96.7376 273.148Z" fill="#356D00"/>
<path d="M26.7376 222.29C5.80742 193.482 -3.359 157.781 1.10394 122.453L35.828 126.84C32.4808 153.336 39.3556 180.111 55.0532 201.717L26.7376 222.29Z" fill="#4D9E00"/>
<path d="M1.04354 122.938C4.2812 96.5697 14.9547 71.6666 31.8173 51.1377C48.6799 30.6088 71.0356 15.3016 96.2731 7.00391L107.205 40.2529C88.2767 46.4762 71.51 57.9566 58.863 73.3533C46.216 88.75 38.2109 107.427 35.7827 127.204L1.04354 122.938Z" fill="#CDFF9E"/>
<path d="M95.5774 7.23467C110.209 2.33905 125.549 -0.104309 140.977 0.00341223L140.733 35.0026C129.162 34.9218 117.657 36.7543 106.683 40.426L95.5774 7.23467Z" fill="#EAECF0"/>
<circle cx="300" cy="10" r="4" fill="#112400"/>
<path d="M319.915 4.81818H321.148V11.5597C321.148 12.2557 320.984 12.8771 320.656 13.424C320.331 13.9676 319.872 14.3968 319.278 14.7116C318.685 15.0232 317.989 15.179 317.19 15.179C316.392 15.179 315.696 15.0232 315.102 14.7116C314.509 14.3968 314.048 13.9676 313.72 13.424C313.395 12.8771 313.233 12.2557 313.233 11.5597V4.81818H314.466V11.4602C314.466 11.9574 314.575 12.3999 314.794 12.7876C315.013 13.1721 315.324 13.4754 315.729 13.6974C316.136 13.9162 316.624 14.0256 317.19 14.0256C317.757 14.0256 318.244 13.9162 318.652 13.6974C319.06 13.4754 319.371 13.1721 319.587 12.7876C319.805 12.3999 319.915 11.9574 319.915 11.4602V4.81818ZM328.86 9.07386L327.806 9.37216C327.74 9.1965 327.642 9.0258 327.513 8.86009C327.387 8.69105 327.214 8.55185 326.996 8.44247C326.777 8.3331 326.497 8.27841 326.155 8.27841C325.688 8.27841 325.299 8.38613 324.987 8.60156C324.679 8.81368 324.525 9.08381 324.525 9.41193C324.525 9.7036 324.631 9.93395 324.843 10.103C325.055 10.272 325.386 10.4129 325.837 10.5256L326.971 10.804C327.653 10.9697 328.162 11.2232 328.497 11.5646C328.832 11.9027 328.999 12.3385 328.999 12.8722C328.999 13.3097 328.873 13.7008 328.621 14.0455C328.373 14.3902 328.025 14.6619 327.577 14.8608C327.13 15.0597 326.609 15.1591 326.016 15.1591C325.237 15.1591 324.593 14.9901 324.082 14.652C323.572 14.3139 323.249 13.8201 323.113 13.1705L324.226 12.892C324.332 13.303 324.533 13.6113 324.828 13.8168C325.126 14.0223 325.516 14.125 325.996 14.125C326.543 14.125 326.977 14.009 327.299 13.777C327.624 13.5417 327.786 13.2599 327.786 12.9318C327.786 12.6667 327.693 12.4446 327.508 12.2656C327.322 12.0833 327.037 11.9474 326.653 11.858L325.38 11.5597C324.68 11.3939 324.167 11.1371 323.839 10.7891C323.514 10.4377 323.351 9.99858 323.351 9.47159C323.351 9.04072 323.472 8.65956 323.714 8.32812C323.96 7.99669 324.293 7.73651 324.714 7.54758C325.138 7.35866 325.618 7.2642 326.155 7.2642C326.911 7.2642 327.504 7.42992 327.935 7.76136C328.369 8.0928 328.678 8.5303 328.86 9.07386ZM336.174 9.07386L335.12 9.37216C335.054 9.1965 334.956 9.0258 334.827 8.86009C334.701 8.69105 334.529 8.55185 334.31 8.44247C334.091 8.3331 333.811 8.27841 333.47 8.27841C333.002 8.27841 332.613 8.38613 332.301 8.60156C331.993 8.81368 331.839 9.08381 331.839 9.41193C331.839 9.7036 331.945 9.93395 332.157 10.103C332.369 10.272 332.701 10.4129 333.152 10.5256L334.285 10.804C334.968 10.9697 335.477 11.2232 335.811 11.5646C336.146 11.9027 336.314 12.3385 336.314 12.8722C336.314 13.3097 336.188 13.7008 335.936 14.0455C335.687 14.3902 335.339 14.6619 334.892 14.8608C334.444 15.0597 333.924 15.1591 333.331 15.1591C332.552 15.1591 331.907 14.9901 331.397 14.652C330.886 14.3139 330.563 13.8201 330.427 13.1705L331.541 12.892C331.647 13.303 331.847 13.6113 332.142 13.8168C332.441 14.0223 332.83 14.125 333.311 14.125C333.858 14.125 334.292 14.009 334.613 13.777C334.938 13.5417 335.1 13.2599 335.1 12.9318C335.1 12.6667 335.008 12.4446 334.822 12.2656C334.636 12.0833 334.351 11.9474 333.967 11.858L332.694 11.5597C331.995 11.3939 331.481 11.1371 331.153 10.7891C330.828 10.4377 330.666 9.99858 330.666 9.47159C330.666 9.04072 330.787 8.65956 331.029 8.32812C331.274 7.99669 331.607 7.73651 332.028 7.54758C332.452 7.35866 332.933 7.2642 333.47 7.2642C334.225 7.2642 334.819 7.42992 335.25 7.76136C335.684 8.0928 335.992 8.5303 336.174 9.07386ZM340.963 15.1591C340.327 15.1591 339.765 14.9983 339.278 14.6768C338.791 14.352 338.41 13.8946 338.134 13.3047C337.859 12.7114 337.722 12.0104 337.722 11.2017C337.722 10.3996 337.859 9.7036 338.134 9.11364C338.41 8.52367 338.792 8.06794 339.283 7.74645C339.773 7.42495 340.34 7.2642 340.983 7.2642C341.48 7.2642 341.873 7.34706 342.161 7.51278C342.453 7.67519 342.675 7.8608 342.828 8.0696C342.983 8.27509 343.104 8.44413 343.191 8.5767H343.29V4.81818H344.463V15H343.33V13.8267H343.191C343.104 13.9659 342.982 14.1416 342.823 14.3537C342.664 14.5625 342.436 14.7498 342.142 14.9155C341.847 15.0779 341.454 15.1591 340.963 15.1591ZM341.122 14.1051C341.593 14.1051 341.991 13.9825 342.316 13.7372C342.64 13.4886 342.887 13.1456 343.056 12.7081C343.225 12.2673 343.31 11.7585 343.31 11.1818C343.31 10.6117 343.227 10.1129 343.061 9.68537C342.896 9.2545 342.65 8.91974 342.325 8.68111C342.001 8.43916 341.6 8.31818 341.122 8.31818C340.625 8.31818 340.211 8.44579 339.879 8.70099C339.551 8.95289 339.304 9.29593 339.139 9.73011C338.976 10.161 338.895 10.6449 338.895 11.1818C338.895 11.7254 338.978 12.2192 339.144 12.6634C339.313 13.1042 339.561 13.4555 339.889 13.7173C340.221 13.9759 340.632 14.1051 341.122 14.1051ZM359.065 8H357.832C357.759 7.64536 357.631 7.33381 357.449 7.06534C357.27 6.79688 357.051 6.5715 356.793 6.3892C356.538 6.2036 356.254 6.06439 355.943 5.97159C355.631 5.87879 355.306 5.83239 354.968 5.83239C354.352 5.83239 353.793 5.98816 353.293 6.29972C352.796 6.61127 352.4 7.07031 352.105 7.67685C351.813 8.28338 351.667 9.02746 351.667 9.90909C351.667 10.7907 351.813 11.5348 352.105 12.1413C352.4 12.7479 352.796 13.2069 353.293 13.5185C353.793 13.83 354.352 13.9858 354.968 13.9858C355.306 13.9858 355.631 13.9394 355.943 13.8466C356.254 13.7538 356.538 13.6162 356.793 13.4339C357.051 13.2483 357.27 13.0213 357.449 12.7528C357.631 12.4811 357.759 12.1695 357.832 11.8182H359.065C358.972 12.3385 358.803 12.8042 358.558 13.2152C358.312 13.6262 358.008 13.9759 357.643 14.2642C357.278 14.5492 356.869 14.7663 356.415 14.9155C355.964 15.0646 355.482 15.1392 354.968 15.1392C354.1 15.1392 353.328 14.9271 352.651 14.5028C351.975 14.0786 351.443 13.4754 351.056 12.6932C350.668 11.911 350.474 10.983 350.474 9.90909C350.474 8.83523 350.668 7.9072 351.056 7.125C351.443 6.3428 351.975 5.73958 352.651 5.31534C353.328 4.8911 354.1 4.67898 354.968 4.67898C355.482 4.67898 355.964 4.75355 356.415 4.9027C356.869 5.05185 357.278 5.2706 357.643 5.55895C358.008 5.84399 358.312 6.192 358.558 6.60298C358.803 7.01065 358.972 7.47633 359.065 8ZM364 15.1591C363.311 15.1591 362.706 14.995 362.186 14.6669C361.669 14.3388 361.264 13.8797 360.973 13.2898C360.684 12.6998 360.54 12.0104 360.54 11.2216C360.54 10.4261 360.684 9.73177 360.973 9.13849C361.264 8.54522 361.669 8.08452 362.186 7.75639C362.706 7.42827 363.311 7.2642 364 7.2642C364.69 7.2642 365.293 7.42827 365.81 7.75639C366.33 8.08452 366.735 8.54522 367.023 9.13849C367.315 9.73177 367.461 10.4261 367.461 11.2216C367.461 12.0104 367.315 12.6998 367.023 13.2898C366.735 13.8797 366.33 14.3388 365.81 14.6669C365.293 14.995 364.69 15.1591 364 15.1591ZM364 14.1051C364.524 14.1051 364.955 13.9709 365.293 13.7024C365.631 13.4339 365.881 13.081 366.044 12.6435C366.206 12.206 366.287 11.732 366.287 11.2216C366.287 10.7112 366.206 10.2356 366.044 9.79474C365.881 9.35393 365.631 8.99763 365.293 8.72585C364.955 8.45407 364.524 8.31818 364 8.31818C363.477 8.31818 363.046 8.45407 362.708 8.72585C362.37 8.99763 362.119 9.35393 361.957 9.79474C361.795 10.2356 361.713 10.7112 361.713 11.2216C361.713 11.732 361.795 12.206 361.957 12.6435C362.119 13.081 362.37 13.4339 362.708 13.7024C363.046 13.9709 363.477 14.1051 364 14.1051ZM369.252 15V7.36364H370.385V8.55682H370.485C370.644 8.14915 370.901 7.83262 371.255 7.60724C371.61 7.37855 372.036 7.2642 372.533 7.2642C373.037 7.2642 373.456 7.37855 373.791 7.60724C374.129 7.83262 374.392 8.14915 374.581 8.55682H374.661C374.856 8.16241 375.15 7.84919 375.541 7.61719C375.932 7.38187 376.401 7.2642 376.948 7.2642C377.63 7.2642 378.189 7.47798 378.623 7.90554C379.057 8.32978 379.274 8.991 379.274 9.8892V15H378.101V9.8892C378.101 9.32576 377.947 8.92306 377.639 8.68111C377.33 8.43916 376.968 8.31818 376.55 8.31818C376.013 8.31818 375.597 8.48059 375.302 8.8054C375.007 9.12689 374.86 9.53456 374.86 10.0284V15H373.666V9.76989C373.666 9.3357 373.526 8.98603 373.244 8.72088C372.962 8.45241 372.599 8.31818 372.155 8.31818C371.85 8.31818 371.565 8.39938 371.3 8.56179C371.038 8.72419 370.826 8.94957 370.664 9.23793C370.504 9.52296 370.425 9.85275 370.425 10.2273V15H369.252ZM381.42 17.8636V7.36364H382.553V8.5767H382.692C382.778 8.44413 382.898 8.27509 383.05 8.0696C383.206 7.8608 383.428 7.67519 383.716 7.51278C384.008 7.34706 384.403 7.2642 384.9 7.2642C385.543 7.2642 386.109 7.42495 386.6 7.74645C387.09 8.06794 387.473 8.52367 387.748 9.11364C388.023 9.7036 388.161 10.3996 388.161 11.2017C388.161 12.0104 388.023 12.7114 387.748 13.3047C387.473 13.8946 387.092 14.352 386.605 14.6768C386.118 14.9983 385.556 15.1591 384.92 15.1591C384.429 15.1591 384.036 15.0779 383.741 14.9155C383.446 14.7498 383.219 14.5625 383.06 14.3537C382.901 14.1416 382.778 13.9659 382.692 13.8267H382.593V17.8636H381.42ZM382.573 11.1818C382.573 11.7585 382.657 12.2673 382.827 12.7081C382.996 13.1456 383.242 13.4886 383.567 13.7372C383.892 13.9825 384.29 14.1051 384.76 14.1051C385.251 14.1051 385.66 13.9759 385.988 13.7173C386.32 13.4555 386.568 13.1042 386.734 12.6634C386.903 12.2192 386.988 11.7254 386.988 11.1818C386.988 10.6449 386.905 10.161 386.739 9.73011C386.577 9.29593 386.33 8.95289 385.998 8.70099C385.67 8.44579 385.258 8.31818 384.76 8.31818C384.283 8.31818 383.882 8.43916 383.557 8.68111C383.233 8.91974 382.987 9.2545 382.822 9.68537C382.656 10.1129 382.573 10.6117 382.573 11.1818ZM391.124 4.81818V15H389.951V4.81818H391.124ZM395.52 15.179C395.036 15.179 394.597 15.0878 394.203 14.9055C393.808 14.7199 393.495 14.4531 393.263 14.1051C393.031 13.7538 392.915 13.3295 392.915 12.8324C392.915 12.3949 393.001 12.0402 393.174 11.7685C393.346 11.4934 393.576 11.2779 393.865 11.1222C394.153 10.9664 394.471 10.8504 394.819 10.7741C395.171 10.6946 395.524 10.6316 395.878 10.5852C396.342 10.5256 396.718 10.4808 397.007 10.451C397.298 10.4179 397.511 10.3632 397.643 10.2869C397.779 10.2107 397.847 10.0781 397.847 9.8892V9.84943C397.847 9.3589 397.713 8.97775 397.444 8.70597C397.179 8.43419 396.776 8.2983 396.236 8.2983C395.676 8.2983 395.237 8.42093 394.919 8.66619C394.6 8.91146 394.377 9.1733 394.248 9.4517L393.134 9.05398C393.333 8.58996 393.598 8.22869 393.929 7.97017C394.264 7.70833 394.629 7.52604 395.023 7.4233C395.421 7.31723 395.812 7.2642 396.196 7.2642C396.442 7.2642 396.723 7.29403 397.042 7.35369C397.363 7.41004 397.673 7.5277 397.971 7.70668C398.273 7.88565 398.523 8.15578 398.722 8.51705C398.921 8.87831 399.02 9.36222 399.02 9.96875V15H397.847V13.9659H397.787C397.708 14.1316 397.575 14.3089 397.39 14.4979C397.204 14.6868 396.957 14.8475 396.649 14.9801C396.341 15.1127 395.964 15.179 395.52 15.179ZM395.699 14.125C396.163 14.125 396.554 14.0339 396.873 13.8516C397.194 13.6693 397.436 13.4339 397.598 13.1456C397.764 12.8572 397.847 12.554 397.847 12.2358V11.1619C397.797 11.2216 397.688 11.2763 397.519 11.326C397.353 11.3724 397.161 11.4138 396.942 11.4503C396.727 11.4834 396.516 11.5133 396.311 11.5398C396.109 11.563 395.944 11.5829 395.819 11.5994C395.514 11.6392 395.229 11.7038 394.963 11.7933C394.702 11.8795 394.489 12.0104 394.327 12.1861C394.168 12.3584 394.088 12.5937 394.088 12.892C394.088 13.2997 394.239 13.608 394.541 13.8168C394.846 14.0223 395.232 14.125 395.699 14.125ZM401.162 15V7.36364H402.335V15H401.162ZM401.758 6.09091C401.53 6.09091 401.332 6.01302 401.167 5.85724C401.004 5.70147 400.923 5.5142 400.923 5.29545C400.923 5.0767 401.004 4.88944 401.167 4.73366C401.332 4.57789 401.53 4.5 401.758 4.5C401.987 4.5 402.183 4.57789 402.345 4.73366C402.511 4.88944 402.594 5.0767 402.594 5.29545C402.594 5.5142 402.511 5.70147 402.345 5.85724C402.183 6.01302 401.987 6.09091 401.758 6.09091ZM405.657 10.4062V15H404.484V7.36364H405.618V8.55682H405.717C405.896 8.16903 406.168 7.85748 406.532 7.62216C406.897 7.38352 407.368 7.2642 407.944 7.2642C408.461 7.2642 408.914 7.37027 409.301 7.58239C409.689 7.79119 409.991 8.10938 410.206 8.53693C410.422 8.96117 410.529 9.49811 410.529 10.1477V15H409.356V10.2273C409.356 9.62737 409.2 9.16004 408.889 8.82528C408.577 8.48722 408.15 8.31818 407.606 8.31818C407.232 8.31818 406.897 8.39938 406.602 8.56179C406.31 8.72419 406.08 8.96117 405.911 9.27273C405.742 9.58428 405.657 9.96212 405.657 10.4062Z" fill="#475467"/>
<circle cx="300" cy="34" r="4" fill="#1B3800"/>
<path d="M316.395 31.3636V32.358H312.438V31.3636H316.395ZM313.591 29.5341H314.764V36.8125C314.764 37.1439 314.812 37.3925 314.908 37.5582C315.008 37.7206 315.134 37.83 315.286 37.8864C315.442 37.9394 315.606 37.9659 315.778 37.9659C315.908 37.9659 316.014 37.9593 316.097 37.946C316.179 37.9295 316.246 37.9162 316.295 37.9062L316.534 38.9602C316.455 38.9901 316.344 39.0199 316.201 39.0497C316.058 39.0829 315.878 39.0994 315.659 39.0994C315.328 39.0994 315.003 39.0282 314.685 38.8857C314.37 38.7431 314.108 38.526 313.899 38.2344C313.694 37.9427 313.591 37.5748 313.591 37.1307V29.5341ZM318.16 39V31.3636H319.293V32.517H319.373C319.512 32.1392 319.764 31.8326 320.129 31.5973C320.493 31.362 320.904 31.2443 321.362 31.2443C321.448 31.2443 321.555 31.246 321.685 31.2493C321.814 31.2526 321.912 31.2576 321.978 31.2642V32.4574C321.938 32.4474 321.847 32.4325 321.705 32.4126C321.565 32.3894 321.418 32.3778 321.262 32.3778C320.891 32.3778 320.559 32.4557 320.268 32.6115C319.979 32.764 319.751 32.9761 319.582 33.2479C319.416 33.5163 319.333 33.8229 319.333 34.1676V39H318.16ZM325.616 39.179C325.132 39.179 324.693 39.0878 324.298 38.9055C323.904 38.7199 323.591 38.4531 323.359 38.1051C323.127 37.7538 323.011 37.3295 323.011 36.8324C323.011 36.3949 323.097 36.0402 323.269 35.7685C323.442 35.4934 323.672 35.2779 323.96 35.1222C324.249 34.9664 324.567 34.8504 324.915 34.7741C325.266 34.6946 325.619 34.6316 325.974 34.5852C326.438 34.5256 326.814 34.4808 327.102 34.451C327.394 34.4179 327.606 34.3632 327.739 34.2869C327.875 34.2107 327.943 34.0781 327.943 33.8892V33.8494C327.943 33.3589 327.808 32.9777 327.54 32.706C327.275 32.4342 326.872 32.2983 326.332 32.2983C325.772 32.2983 325.333 32.4209 325.014 32.6662C324.696 32.9115 324.472 33.1733 324.343 33.4517L323.23 33.054C323.428 32.59 323.694 32.2287 324.025 31.9702C324.36 31.7083 324.724 31.526 325.119 31.4233C325.517 31.3172 325.908 31.2642 326.292 31.2642C326.537 31.2642 326.819 31.294 327.137 31.3537C327.459 31.41 327.769 31.5277 328.067 31.7067C328.369 31.8857 328.619 32.1558 328.818 32.517C329.017 32.8783 329.116 33.3622 329.116 33.9688V39H327.943V37.9659H327.883C327.803 38.1316 327.671 38.3089 327.485 38.4979C327.3 38.6868 327.053 38.8475 326.744 38.9801C326.436 39.1127 326.06 39.179 325.616 39.179ZM325.795 38.125C326.259 38.125 326.65 38.0339 326.968 37.8516C327.29 37.6693 327.532 37.4339 327.694 37.1456C327.86 36.8572 327.943 36.554 327.943 36.2358V35.1619C327.893 35.2216 327.784 35.2763 327.615 35.326C327.449 35.3724 327.257 35.4138 327.038 35.4503C326.822 35.4834 326.612 35.5133 326.406 35.5398C326.204 35.563 326.04 35.5829 325.914 35.5994C325.609 35.6392 325.324 35.7038 325.059 35.7933C324.797 35.8795 324.585 36.0104 324.423 36.1861C324.264 36.3584 324.184 36.5937 324.184 36.892C324.184 37.2997 324.335 37.608 324.637 37.8168C324.941 38.0223 325.328 38.125 325.795 38.125ZM332.431 34.4062V39H331.257V31.3636H332.391V32.5568H332.49C332.669 32.169 332.941 31.8575 333.306 31.6222C333.67 31.3835 334.141 31.2642 334.718 31.2642C335.235 31.2642 335.687 31.3703 336.075 31.5824C336.463 31.7912 336.764 32.1094 336.98 32.5369C337.195 32.9612 337.303 33.4981 337.303 34.1477V39H336.13V34.2273C336.13 33.6274 335.974 33.16 335.662 32.8253C335.351 32.4872 334.923 32.3182 334.38 32.3182C334.005 32.3182 333.67 32.3994 333.375 32.5618C333.084 32.7242 332.853 32.9612 332.684 33.2727C332.515 33.5843 332.431 33.9621 332.431 34.4062ZM344.856 33.0739L343.802 33.3722C343.736 33.1965 343.638 33.0258 343.509 32.8601C343.383 32.6911 343.21 32.5518 342.992 32.4425C342.773 32.3331 342.493 32.2784 342.151 32.2784C341.684 32.2784 341.295 32.3861 340.983 32.6016C340.675 32.8137 340.521 33.0838 340.521 33.4119C340.521 33.7036 340.627 33.9339 340.839 34.103C341.051 34.272 341.383 34.4129 341.833 34.5256L342.967 34.804C343.65 34.9697 344.158 35.2232 344.493 35.5646C344.828 35.9027 344.995 36.3385 344.995 36.8722C344.995 37.3097 344.869 37.7008 344.617 38.0455C344.369 38.3902 344.021 38.6619 343.573 38.8608C343.126 39.0597 342.606 39.1591 342.012 39.1591C341.233 39.1591 340.589 38.9901 340.078 38.652C339.568 38.3139 339.245 37.8201 339.109 37.1705L340.222 36.892C340.329 37.303 340.529 37.6113 340.824 37.8168C341.122 38.0223 341.512 38.125 341.992 38.125C342.539 38.125 342.973 38.009 343.295 37.777C343.62 37.5417 343.782 37.2599 343.782 36.9318C343.782 36.6667 343.689 36.4446 343.504 36.2656C343.318 36.0833 343.033 35.9474 342.649 35.858L341.376 35.5597C340.677 35.3939 340.163 35.1371 339.835 34.7891C339.51 34.4377 339.347 33.9986 339.347 33.4716C339.347 33.0407 339.468 32.6596 339.71 32.3281C339.956 31.9967 340.289 31.7365 340.71 31.5476C341.134 31.3587 341.615 31.2642 342.151 31.2642C342.907 31.2642 343.5 31.4299 343.931 31.7614C344.365 32.0928 344.674 32.5303 344.856 33.0739ZM349.009 39.179C348.525 39.179 348.085 39.0878 347.691 38.9055C347.297 38.7199 346.983 38.4531 346.751 38.1051C346.519 37.7538 346.403 37.3295 346.403 36.8324C346.403 36.3949 346.49 36.0402 346.662 35.7685C346.834 35.4934 347.065 35.2779 347.353 35.1222C347.641 34.9664 347.96 34.8504 348.308 34.7741C348.659 34.6946 349.012 34.6316 349.366 34.5852C349.83 34.5256 350.207 34.4808 350.495 34.451C350.787 34.4179 350.999 34.3632 351.131 34.2869C351.267 34.2107 351.335 34.0781 351.335 33.8892V33.8494C351.335 33.3589 351.201 32.9777 350.933 32.706C350.667 32.4342 350.265 32.2983 349.724 32.2983C349.164 32.2983 348.725 32.4209 348.407 32.6662C348.089 32.9115 347.865 33.1733 347.736 33.4517L346.622 33.054C346.821 32.59 347.086 32.2287 347.418 31.9702C347.752 31.7083 348.117 31.526 348.511 31.4233C348.909 31.3172 349.3 31.2642 349.685 31.2642C349.93 31.2642 350.212 31.294 350.53 31.3537C350.851 31.41 351.161 31.5277 351.46 31.7067C351.761 31.8857 352.011 32.1558 352.21 32.517C352.409 32.8783 352.509 33.3622 352.509 33.9688V39H351.335V37.9659H351.276C351.196 38.1316 351.063 38.3089 350.878 38.4979C350.692 38.6868 350.445 38.8475 350.137 38.9801C349.829 39.1127 349.453 39.179 349.009 39.179ZM349.188 38.125C349.652 38.125 350.043 38.0339 350.361 37.8516C350.682 37.6693 350.924 37.4339 351.087 37.1456C351.252 36.8572 351.335 36.554 351.335 36.2358V35.1619C351.286 35.2216 351.176 35.2763 351.007 35.326C350.841 35.3724 350.649 35.4138 350.43 35.4503C350.215 35.4834 350.004 35.5133 349.799 35.5398C349.597 35.563 349.433 35.5829 349.307 35.5994C349.002 35.6392 348.717 35.7038 348.452 35.7933C348.19 35.8795 347.978 36.0104 347.815 36.1861C347.656 36.3584 347.577 36.5937 347.577 36.892C347.577 37.2997 347.728 37.608 348.029 37.8168C348.334 38.0223 348.72 38.125 349.188 38.125ZM357.752 39.1591C357.036 39.1591 356.42 38.9901 355.903 38.652C355.386 38.3139 354.988 37.8482 354.71 37.255C354.431 36.6617 354.292 35.9839 354.292 35.2216C354.292 34.446 354.435 33.7616 354.72 33.1683C355.008 32.5717 355.409 32.1061 355.923 31.7713C356.44 31.4332 357.043 31.2642 357.732 31.2642C358.269 31.2642 358.753 31.3636 359.184 31.5625C359.615 31.7614 359.968 32.0398 360.243 32.3977C360.518 32.7557 360.689 33.1733 360.755 33.6506H359.582C359.492 33.3026 359.294 32.9943 358.985 32.7259C358.68 32.4541 358.269 32.3182 357.752 32.3182C357.295 32.3182 356.894 32.4375 356.549 32.6761C356.208 32.9115 355.941 33.2446 355.749 33.6754C355.56 34.103 355.465 34.6051 355.465 35.1818C355.465 35.7718 355.558 36.2855 355.744 36.723C355.933 37.1605 356.198 37.5002 356.539 37.7422C356.884 37.9841 357.288 38.1051 357.752 38.1051C358.057 38.1051 358.334 38.0521 358.583 37.946C358.831 37.84 359.042 37.6875 359.214 37.4886C359.386 37.2898 359.509 37.0511 359.582 36.7727H360.755C360.689 37.2235 360.525 37.6295 360.263 37.9908C360.004 38.3487 359.661 38.6338 359.234 38.8459C358.81 39.0547 358.316 39.1591 357.752 39.1591ZM365.791 31.3636V32.358H361.834V31.3636H365.791ZM362.987 29.5341H364.161V36.8125C364.161 37.1439 364.209 37.3925 364.305 37.5582C364.404 37.7206 364.53 37.83 364.683 37.8864C364.838 37.9394 365.003 37.9659 365.175 37.9659C365.304 37.9659 365.41 37.9593 365.493 37.946C365.576 37.9295 365.642 37.9162 365.692 37.9062L365.931 38.9602C365.851 38.9901 365.74 39.0199 365.597 39.0497C365.455 39.0829 365.274 39.0994 365.056 39.0994C364.724 39.0994 364.399 39.0282 364.081 38.8857C363.766 38.7431 363.504 38.526 363.296 38.2344C363.09 37.9427 362.987 37.5748 362.987 37.1307V29.5341ZM367.556 39V31.3636H368.73V39H367.556ZM368.153 30.0909C367.924 30.0909 367.727 30.013 367.561 29.8572C367.399 29.7015 367.318 29.5142 367.318 29.2955C367.318 29.0767 367.399 28.8894 367.561 28.7337C367.727 28.5779 367.924 28.5 368.153 28.5C368.382 28.5 368.577 28.5779 368.74 28.7337C368.905 28.8894 368.988 29.0767 368.988 29.2955C368.988 29.5142 368.905 29.7015 368.74 29.8572C368.577 30.013 368.382 30.0909 368.153 30.0909ZM373.981 39.1591C373.291 39.1591 372.687 38.995 372.166 38.6669C371.649 38.3388 371.245 37.8797 370.953 37.2898C370.665 36.6998 370.521 36.0104 370.521 35.2216C370.521 34.4261 370.665 33.7318 370.953 33.1385C371.245 32.5452 371.649 32.0845 372.166 31.7564C372.687 31.4283 373.291 31.2642 373.981 31.2642C374.67 31.2642 375.273 31.4283 375.79 31.7564C376.311 32.0845 376.715 32.5452 377.004 33.1385C377.295 33.7318 377.441 34.4261 377.441 35.2216C377.441 36.0104 377.295 36.6998 377.004 37.2898C376.715 37.8797 376.311 38.3388 375.79 38.6669C375.273 38.995 374.67 39.1591 373.981 39.1591ZM373.981 38.1051C374.504 38.1051 374.935 37.9709 375.273 37.7024C375.612 37.4339 375.862 37.081 376.024 36.6435C376.187 36.206 376.268 35.732 376.268 35.2216C376.268 34.7112 376.187 34.2356 376.024 33.7947C375.862 33.3539 375.612 32.9976 375.273 32.7259C374.935 32.4541 374.504 32.3182 373.981 32.3182C373.457 32.3182 373.026 32.4541 372.688 32.7259C372.35 32.9976 372.1 33.3539 371.938 33.7947C371.775 34.2356 371.694 34.7112 371.694 35.2216C371.694 35.732 371.775 36.206 371.938 36.6435C372.1 37.081 372.35 37.4339 372.688 37.7024C373.026 37.9709 373.457 38.1051 373.981 38.1051ZM380.405 34.4062V39H379.232V31.3636H380.366V32.5568H380.465C380.644 32.169 380.916 31.8575 381.28 31.6222C381.645 31.3835 382.116 31.2642 382.692 31.2642C383.209 31.2642 383.662 31.3703 384.05 31.5824C384.437 31.7912 384.739 32.1094 384.954 32.5369C385.17 32.9612 385.278 33.4981 385.278 34.1477V39H384.104V34.2273C384.104 33.6274 383.948 33.16 383.637 32.8253C383.325 32.4872 382.898 32.3182 382.354 32.3182C381.98 32.3182 381.645 32.3994 381.35 32.5618C381.058 32.7242 380.828 32.9612 380.659 33.2727C380.49 33.5843 380.405 33.9621 380.405 34.4062ZM391.518 39V28.8182H397.663V29.9119H392.751V33.3523H397.345V34.446H392.751V37.9062H397.743V39H391.518ZM399.726 39V31.3636H400.86V32.517H400.939C401.078 32.1392 401.33 31.8326 401.695 31.5973C402.06 31.362 402.471 31.2443 402.928 31.2443C403.014 31.2443 403.122 31.246 403.251 31.2493C403.38 31.2526 403.478 31.2576 403.544 31.2642V32.4574C403.505 32.4474 403.413 32.4325 403.271 32.4126C403.132 32.3894 402.984 32.3778 402.828 32.3778C402.457 32.3778 402.126 32.4557 401.834 32.6115C401.546 32.764 401.317 32.9761 401.148 33.2479C400.982 33.5163 400.9 33.8229 400.9 34.1676V39H399.726ZM404.935 39V31.3636H406.069V32.517H406.148C406.287 32.1392 406.539 31.8326 406.904 31.5973C407.269 31.362 407.68 31.2443 408.137 31.2443C408.223 31.2443 408.331 31.246 408.46 31.2493C408.589 31.2526 408.687 31.2576 408.753 31.2642V32.4574C408.714 32.4474 408.622 32.4325 408.48 32.4126C408.341 32.3894 408.193 32.3778 408.037 32.3778C407.666 32.3778 407.335 32.4557 407.043 32.6115C406.755 32.764 406.526 32.9761 406.357 33.2479C406.191 33.5163 406.108 33.8229 406.108 34.1676V39H404.935ZM413.014 39.1591C412.325 39.1591 411.72 38.995 411.199 38.6669C410.682 38.3388 410.278 37.8797 409.986 37.2898C409.698 36.6998 409.554 36.0104 409.554 35.2216C409.554 34.4261 409.698 33.7318 409.986 33.1385C410.278 32.5452 410.682 32.0845 411.199 31.7564C411.72 31.4283 412.325 31.2642 413.014 31.2642C413.703 31.2642 414.307 31.4283 414.824 31.7564C415.344 32.0845 415.748 32.5452 416.037 33.1385C416.328 33.7318 416.474 34.4261 416.474 35.2216C416.474 36.0104 416.328 36.6998 416.037 37.2898C415.748 37.8797 415.344 38.3388 414.824 38.6669C414.307 38.995 413.703 39.1591 413.014 39.1591ZM413.014 38.1051C413.538 38.1051 413.969 37.9709 414.307 37.7024C414.645 37.4339 414.895 37.081 415.057 36.6435C415.22 36.206 415.301 35.732 415.301 35.2216C415.301 34.7112 415.22 34.2356 415.057 33.7947C414.895 33.3539 414.645 32.9976 414.307 32.7259C413.969 32.4541 413.538 32.3182 413.014 32.3182C412.49 32.3182 412.059 32.4541 411.721 32.7259C411.383 32.9976 411.133 33.3539 410.971 33.7947C410.808 34.2356 410.727 34.7112 410.727 35.2216C410.727 35.732 410.808 36.206 410.971 36.6435C411.133 37.081 411.383 37.4339 411.721 37.7024C412.059 37.9709 412.49 38.1051 413.014 38.1051ZM418.265 39V31.3636H419.399V32.517H419.478C419.618 32.1392 419.869 31.8326 420.234 31.5973C420.599 31.362 421.01 31.2443 421.467 31.2443C421.553 31.2443 421.661 31.246 421.79 31.2493C421.919 31.2526 422.017 31.2576 422.083 31.2642V32.4574C422.044 32.4474 421.953 32.4325 421.81 32.4126C421.671 32.3894 421.523 32.3778 421.368 32.3778C420.996 32.3778 420.665 32.4557 420.373 32.6115C420.085 32.764 419.856 32.9761 419.687 33.2479C419.521 33.5163 419.439 33.8229 419.439 34.1676V39H418.265Z" fill="#475467"/>
<circle cx="300" cy="58" r="4" fill="#356D00"/>
<path d="M313.233 63V52.8182H316.673C317.472 52.8182 318.125 52.9624 318.632 53.2507C319.143 53.5357 319.52 53.9219 319.766 54.4091C320.011 54.8963 320.134 55.4399 320.134 56.0398C320.134 56.6397 320.011 57.1849 319.766 57.6754C319.524 58.166 319.149 58.5571 318.642 58.8487C318.135 59.1371 317.485 59.2812 316.693 59.2812H314.227V58.1875H316.653C317.2 58.1875 317.639 58.093 317.971 57.9041C318.302 57.7152 318.543 57.46 318.692 57.1385C318.844 56.8137 318.92 56.4474 318.92 56.0398C318.92 55.6321 318.844 55.2675 318.692 54.946C318.543 54.6245 318.301 54.3726 317.966 54.1903C317.631 54.0047 317.187 53.9119 316.634 53.9119H314.466V63H313.233ZM324.208 63.179C323.724 63.179 323.285 63.0878 322.89 62.9055C322.496 62.7199 322.183 62.4531 321.951 62.1051C321.719 61.7538 321.603 61.3295 321.603 60.8324C321.603 60.3949 321.689 60.0402 321.861 59.7685C322.033 59.4934 322.264 59.2779 322.552 59.1222C322.841 58.9664 323.159 58.8504 323.507 58.7741C323.858 58.6946 324.211 58.6316 324.566 58.5852C325.03 58.5256 325.406 58.4808 325.694 58.451C325.986 58.4179 326.198 58.3632 326.331 58.2869C326.467 58.2107 326.534 58.0781 326.534 57.8892V57.8494C326.534 57.3589 326.4 56.9777 326.132 56.706C325.867 56.4342 325.464 56.2983 324.924 56.2983C324.364 56.2983 323.924 56.4209 323.606 56.6662C323.288 56.9115 323.064 57.1733 322.935 57.4517L321.821 57.054C322.02 56.59 322.285 56.2287 322.617 55.9702C322.952 55.7083 323.316 55.526 323.711 55.4233C324.108 55.3172 324.499 55.2642 324.884 55.2642C325.129 55.2642 325.411 55.294 325.729 55.3537C326.051 55.41 326.36 55.5277 326.659 55.7067C326.96 55.8857 327.211 56.1558 327.409 56.517C327.608 56.8783 327.708 57.3622 327.708 57.9688V63H326.534V61.9659H326.475C326.395 62.1316 326.263 62.3089 326.077 62.4979C325.891 62.6868 325.645 62.8475 325.336 62.9801C325.028 63.1127 324.652 63.179 324.208 63.179ZM324.387 62.125C324.851 62.125 325.242 62.0339 325.56 61.8516C325.882 61.6693 326.123 61.4339 326.286 61.1456C326.452 60.8572 326.534 60.554 326.534 60.2358V59.1619C326.485 59.2216 326.375 59.2763 326.206 59.326C326.041 59.3724 325.848 59.4138 325.63 59.4503C325.414 59.4834 325.204 59.5133 324.998 59.5398C324.796 59.563 324.632 59.5829 324.506 59.5994C324.201 59.6392 323.916 59.7038 323.651 59.7933C323.389 59.8795 323.177 60.0104 323.015 60.1861C322.855 60.3584 322.776 60.5937 322.776 60.892C322.776 61.2997 322.927 61.608 323.228 61.8168C323.533 62.0223 323.919 62.125 324.387 62.125ZM329.849 63V55.3636H330.983V56.517H331.062C331.202 56.1392 331.453 55.8326 331.818 55.5973C332.183 55.362 332.594 55.2443 333.051 55.2443C333.137 55.2443 333.245 55.246 333.374 55.2493C333.503 55.2526 333.601 55.2576 333.667 55.2642V56.4574C333.628 56.4474 333.537 56.4325 333.394 56.4126C333.255 56.3894 333.107 56.3778 332.952 56.3778C332.58 56.3778 332.249 56.4557 331.957 56.6115C331.669 56.764 331.44 56.9761 331.271 57.2479C331.105 57.5163 331.023 57.8229 331.023 58.1676V63H329.849ZM338.858 55.3636V56.358H334.9V55.3636H338.858ZM336.054 53.5341H337.227V60.8125C337.227 61.1439 337.275 61.3925 337.371 61.5582C337.471 61.7206 337.597 61.83 337.749 61.8864C337.905 61.9394 338.069 61.9659 338.241 61.9659C338.371 61.9659 338.477 61.9593 338.559 61.946C338.642 61.9295 338.709 61.9162 338.758 61.9062L338.997 62.9602C338.917 62.9901 338.806 63.0199 338.664 63.0497C338.521 63.0829 338.341 63.0994 338.122 63.0994C337.791 63.0994 337.466 63.0282 337.148 62.8857C336.833 62.7431 336.571 62.526 336.362 62.2344C336.157 61.9427 336.054 61.5748 336.054 61.1307V53.5341ZM341.796 58.4062V63H340.623V55.3636H341.756V56.5568H341.856C342.035 56.169 342.306 55.8575 342.671 55.6222C343.036 55.3835 343.506 55.2642 344.083 55.2642C344.6 55.2642 345.052 55.3703 345.44 55.5824C345.828 55.7912 346.13 56.1094 346.345 56.5369C346.56 56.9612 346.668 57.4981 346.668 58.1477V63H345.495V58.2273C345.495 57.6274 345.339 57.16 345.028 56.8253C344.716 56.4872 344.288 56.3182 343.745 56.3182C343.37 56.3182 343.036 56.3994 342.741 56.5618C342.449 56.7242 342.219 56.9612 342.05 57.2727C341.881 57.5843 341.796 57.9621 341.796 58.4062ZM352.014 63.1591C351.278 63.1591 350.643 62.9967 350.11 62.6719C349.579 62.3438 349.17 61.8864 348.882 61.2997C348.597 60.7098 348.454 60.0237 348.454 59.2415C348.454 58.4593 348.597 57.7699 348.882 57.1733C349.17 56.5734 349.571 56.1061 350.085 55.7713C350.602 55.4332 351.205 55.2642 351.895 55.2642C352.292 55.2642 352.685 55.3305 353.073 55.4631C353.461 55.5956 353.814 55.8111 354.132 56.1094C354.45 56.4044 354.703 56.7955 354.892 57.2827C355.081 57.7699 355.176 58.3698 355.176 59.0824V59.5795H349.289V58.5653H353.983C353.983 58.1345 353.896 57.75 353.724 57.4119C353.555 57.0739 353.313 56.8071 352.998 56.6115C352.687 56.416 352.319 56.3182 351.895 56.3182C351.427 56.3182 351.023 56.4342 350.681 56.6662C350.343 56.8949 350.083 57.1932 349.901 57.5611C349.719 57.929 349.627 58.3234 349.627 58.7443V59.4205C349.627 59.9972 349.727 60.486 349.926 60.8871C350.128 61.2848 350.408 61.5881 350.766 61.7969C351.124 62.0024 351.54 62.1051 352.014 62.1051C352.322 62.1051 352.6 62.062 352.849 61.9759C353.101 61.8864 353.318 61.7538 353.5 61.5781C353.683 61.3991 353.824 61.1771 353.923 60.9119L355.056 61.2301C354.937 61.6146 354.737 61.9527 354.455 62.2443C354.173 62.5327 353.825 62.758 353.411 62.9205C352.997 63.0795 352.531 63.1591 352.014 63.1591ZM356.961 63V55.3636H358.094V56.517H358.174C358.313 56.1392 358.565 55.8326 358.929 55.5973C359.294 55.362 359.705 55.2443 360.162 55.2443C360.248 55.2443 360.356 55.246 360.485 55.2493C360.615 55.2526 360.712 55.2576 360.779 55.2642V56.4574C360.739 56.4474 360.648 56.4325 360.505 56.4126C360.366 56.3894 360.219 56.3778 360.063 56.3778C359.692 56.3778 359.36 56.4557 359.069 56.6115C358.78 56.764 358.551 56.9761 358.382 57.2479C358.217 57.5163 358.134 57.8229 358.134 58.1676V63H356.961ZM366.266 63V52.8182H369.706C370.505 52.8182 371.158 52.9624 371.665 53.2507C372.176 53.5357 372.554 53.9219 372.799 54.4091C373.044 54.8963 373.167 55.4399 373.167 56.0398C373.167 56.6397 373.044 57.1849 372.799 57.6754C372.557 58.166 372.182 58.5571 371.675 58.8487C371.168 59.1371 370.519 59.2812 369.726 59.2812H367.26V58.1875H369.687C370.233 58.1875 370.673 58.093 371.004 57.9041C371.336 57.7152 371.576 57.46 371.725 57.1385C371.877 56.8137 371.954 56.4474 371.954 56.0398C371.954 55.6321 371.877 55.2675 371.725 54.946C371.576 54.6245 371.334 54.3726 370.999 54.1903C370.664 54.0047 370.22 53.9119 369.667 53.9119H367.499V63H366.266ZM374.994 63V55.3636H376.127V56.517H376.207C376.346 56.1392 376.598 55.8326 376.963 55.5973C377.327 55.362 377.738 55.2443 378.195 55.2443C378.282 55.2443 378.389 55.246 378.519 55.2493C378.648 55.2526 378.746 55.2576 378.812 55.2642V56.4574C378.772 56.4474 378.681 56.4325 378.539 56.4126C378.399 56.3894 378.252 56.3778 378.096 56.3778C377.725 56.3778 377.393 56.4557 377.102 56.6115C376.813 56.764 376.585 56.9761 376.416 57.2479C376.25 57.5163 376.167 57.8229 376.167 58.1676V63H374.994ZM383.073 63.1591C382.383 63.1591 381.778 62.995 381.258 62.6669C380.741 62.3388 380.337 61.8797 380.045 61.2898C379.757 60.6998 379.612 60.0104 379.612 59.2216C379.612 58.4261 379.757 57.7318 380.045 57.1385C380.337 56.5452 380.741 56.0845 381.258 55.7564C381.778 55.4283 382.383 55.2642 383.073 55.2642C383.762 55.2642 384.365 55.4283 384.882 55.7564C385.403 56.0845 385.807 56.5452 386.095 57.1385C386.387 57.7318 386.533 58.4261 386.533 59.2216C386.533 60.0104 386.387 60.6998 386.095 61.2898C385.807 61.8797 385.403 62.3388 384.882 62.6669C384.365 62.995 383.762 63.1591 383.073 63.1591ZM383.073 62.1051C383.596 62.1051 384.027 61.9709 384.365 61.7024C384.703 61.4339 384.954 61.081 385.116 60.6435C385.278 60.206 385.36 59.732 385.36 59.2216C385.36 58.7112 385.278 58.2356 385.116 57.7947C384.954 57.3539 384.703 56.9976 384.365 56.7259C384.027 56.4541 383.596 56.3182 383.073 56.3182C382.549 56.3182 382.118 56.4541 381.78 56.7259C381.442 56.9976 381.192 57.3539 381.029 57.7947C380.867 58.2356 380.786 58.7112 380.786 59.2216C380.786 59.732 380.867 60.206 381.029 60.6435C381.192 61.081 381.442 61.4339 381.78 61.7024C382.118 61.9709 382.549 62.1051 383.073 62.1051ZM391.724 55.3636V56.358H387.608V55.3636H391.724ZM388.841 63V54.3097C388.841 53.8722 388.944 53.5076 389.149 53.2159C389.355 52.9242 389.621 52.7055 389.95 52.5597C390.278 52.4138 390.624 52.3409 390.989 52.3409C391.277 52.3409 391.512 52.3641 391.695 52.4105C391.877 52.4569 392.013 52.5 392.102 52.5398L391.764 53.554C391.705 53.5341 391.622 53.5092 391.516 53.4794C391.413 53.4496 391.277 53.4347 391.108 53.4347C390.72 53.4347 390.44 53.5324 390.268 53.728C390.099 53.9235 390.014 54.2102 390.014 54.5881V63H388.841ZM393.369 63V55.3636H394.542V63H393.369ZM393.965 54.0909C393.737 54.0909 393.539 54.013 393.374 53.8572C393.211 53.7015 393.13 53.5142 393.13 53.2955C393.13 53.0767 393.211 52.8894 393.374 52.7337C393.539 52.5779 393.737 52.5 393.965 52.5C394.194 52.5 394.39 52.5779 394.552 52.7337C394.718 52.8894 394.801 53.0767 394.801 53.2955C394.801 53.5142 394.718 53.7015 394.552 53.8572C394.39 54.013 394.194 54.0909 393.965 54.0909ZM397.864 52.8182V63H396.691V52.8182H397.864ZM403.215 63.1591C402.479 63.1591 401.845 62.9967 401.311 62.6719C400.781 62.3438 400.371 61.8864 400.083 61.2997C399.798 60.7098 399.655 60.0237 399.655 59.2415C399.655 58.4593 399.798 57.7699 400.083 57.1733C400.371 56.5734 400.772 56.1061 401.286 55.7713C401.803 55.4332 402.406 55.2642 403.096 55.2642C403.493 55.2642 403.886 55.3305 404.274 55.4631C404.662 55.5956 405.015 55.8111 405.333 56.1094C405.651 56.4044 405.905 56.7955 406.094 57.2827C406.282 57.7699 406.377 58.3698 406.377 59.0824V59.5795H400.491V58.5653H405.184C405.184 58.1345 405.098 57.75 404.925 57.4119C404.756 57.0739 404.514 56.8071 404.199 56.6115C403.888 56.416 403.52 56.3182 403.096 56.3182C402.628 56.3182 402.224 56.4342 401.883 56.6662C401.545 56.8949 401.284 57.1932 401.102 57.5611C400.92 57.929 400.829 58.3234 400.829 58.7443V59.4205C400.829 59.9972 400.928 60.486 401.127 60.8871C401.329 61.2848 401.609 61.5881 401.967 61.7969C402.325 62.0024 402.741 62.1051 403.215 62.1051C403.523 62.1051 403.802 62.062 404.05 61.9759C404.302 61.8864 404.519 61.7538 404.702 61.5781C404.884 61.3991 405.025 61.1771 405.124 60.9119L406.258 61.2301C406.138 61.6146 405.938 61.9527 405.656 62.2443C405.374 62.5327 405.026 62.758 404.612 62.9205C404.198 63.0795 403.732 63.1591 403.215 63.1591ZM413.571 57.0739L412.517 57.3722C412.451 57.1965 412.353 57.0258 412.224 56.8601C412.098 56.6911 411.925 56.5518 411.706 56.4425C411.488 56.3331 411.208 56.2784 410.866 56.2784C410.399 56.2784 410.01 56.3861 409.698 56.6016C409.39 56.8137 409.236 57.0838 409.236 57.4119C409.236 57.7036 409.342 57.9339 409.554 58.103C409.766 58.272 410.097 58.4129 410.548 58.5256L411.682 58.804C412.364 58.9697 412.873 59.2232 413.208 59.5646C413.543 59.9027 413.71 60.3385 413.71 60.8722C413.71 61.3097 413.584 61.7008 413.332 62.0455C413.084 62.3902 412.736 62.6619 412.288 62.8608C411.841 63.0597 411.32 63.1591 410.727 63.1591C409.948 63.1591 409.304 62.9901 408.793 62.652C408.283 62.3139 407.96 61.8201 407.824 61.1705L408.937 60.892C409.043 61.303 409.244 61.6113 409.539 61.8168C409.837 62.0223 410.227 62.125 410.707 62.125C411.254 62.125 411.688 62.009 412.01 61.777C412.335 61.5417 412.497 61.2599 412.497 60.9318C412.497 60.6667 412.404 60.4446 412.219 60.2656C412.033 60.0833 411.748 59.9474 411.363 59.858L410.091 59.5597C409.391 59.3939 408.878 59.1371 408.55 58.7891C408.225 58.4377 408.062 57.9986 408.062 57.4716C408.062 57.0407 408.183 56.6596 408.425 56.3281C408.671 55.9967 409.004 55.7365 409.425 55.5476C409.849 55.3587 410.329 55.2642 410.866 55.2642C411.622 55.2642 412.215 55.4299 412.646 55.7614C413.08 56.0928 413.389 56.5303 413.571 57.0739ZM420.806 52.8182V63H419.573V52.8182H420.806ZM428.528 57.0739L427.474 57.3722C427.408 57.1965 427.31 57.0258 427.181 56.8601C427.055 56.6911 426.882 56.5518 426.664 56.4425C426.445 56.3331 426.165 56.2784 425.823 56.2784C425.356 56.2784 424.967 56.3861 424.655 56.6016C424.347 56.8137 424.193 57.0838 424.193 57.4119C424.193 57.7036 424.299 57.9339 424.511 58.103C424.723 58.272 425.054 58.4129 425.505 58.5256L426.639 58.804C427.321 58.9697 427.83 59.2232 428.165 59.5646C428.5 59.9027 428.667 60.3385 428.667 60.8722C428.667 61.3097 428.541 61.7008 428.289 62.0455C428.041 62.3902 427.693 62.6619 427.245 62.8608C426.798 63.0597 426.277 63.1591 425.684 63.1591C424.905 63.1591 424.261 62.9901 423.75 62.652C423.24 62.3139 422.917 61.8201 422.781 61.1705L423.894 60.892C424 61.303 424.201 61.6113 424.496 61.8168C424.794 62.0223 425.184 62.125 425.664 62.125C426.211 62.125 426.645 62.009 426.967 61.777C427.292 61.5417 427.454 61.2599 427.454 60.9318C427.454 60.6667 427.361 60.4446 427.176 60.2656C426.99 60.0833 426.705 59.9474 426.32 59.858L425.048 59.5597C424.348 59.3939 423.835 59.1371 423.507 58.7891C423.182 58.4377 423.019 57.9986 423.019 57.4716C423.019 57.0407 423.14 56.6596 423.382 56.3281C423.628 55.9967 423.961 55.7365 424.382 55.5476C424.806 55.3587 425.286 55.2642 425.823 55.2642C426.579 55.2642 427.172 55.4299 427.603 55.7614C428.037 56.0928 428.346 56.5303 428.528 57.0739ZM435.842 57.0739L434.788 57.3722C434.722 57.1965 434.624 57.0258 434.495 56.8601C434.369 56.6911 434.197 56.5518 433.978 56.4425C433.759 56.3331 433.479 56.2784 433.138 56.2784C432.67 56.2784 432.281 56.3861 431.969 56.6016C431.661 56.8137 431.507 57.0838 431.507 57.4119C431.507 57.7036 431.613 57.9339 431.825 58.103C432.037 58.272 432.369 58.4129 432.82 58.5256L433.953 58.804C434.636 58.9697 435.145 59.2232 435.479 59.5646C435.814 59.9027 435.982 60.3385 435.982 60.8722C435.982 61.3097 435.856 61.7008 435.604 62.0455C435.355 62.3902 435.007 62.6619 434.56 62.8608C434.112 63.0597 433.592 63.1591 432.999 63.1591C432.22 63.1591 431.575 62.9901 431.065 62.652C430.554 62.3139 430.231 61.8201 430.095 61.1705L431.209 60.892C431.315 61.303 431.515 61.6113 431.81 61.8168C432.109 62.0223 432.498 62.125 432.979 62.125C433.526 62.125 433.96 62.009 434.281 61.777C434.606 61.5417 434.768 61.2599 434.768 60.9318C434.768 60.6667 434.676 60.4446 434.49 60.2656C434.304 60.0833 434.019 59.9474 433.635 59.858L432.362 59.5597C431.663 59.3939 431.149 59.1371 430.821 58.7891C430.496 58.4377 430.334 57.9986 430.334 57.4716C430.334 57.0407 430.455 56.6596 430.697 56.3281C430.942 55.9967 431.275 55.7365 431.696 55.5476C432.12 55.3587 432.601 55.2642 433.138 55.2642C433.893 55.2642 434.487 55.4299 434.918 55.7614C435.352 56.0928 435.66 56.5303 435.842 57.0739ZM442.56 59.8778V55.3636H443.733V63H442.56V61.7074H442.481C442.302 62.0952 442.023 62.425 441.645 62.6967C441.268 62.9652 440.79 63.0994 440.214 63.0994C439.736 63.0994 439.312 62.995 438.941 62.7862C438.57 62.5741 438.278 62.2559 438.066 61.8317C437.854 61.4041 437.748 60.8655 437.748 60.2159V55.3636H438.921V60.1364C438.921 60.6932 439.077 61.1373 439.388 61.4688C439.703 61.8002 440.104 61.9659 440.591 61.9659C440.883 61.9659 441.18 61.8913 441.481 61.7422C441.786 61.593 442.041 61.3643 442.247 61.0561C442.456 60.7479 442.56 60.3551 442.56 59.8778ZM449.084 63.1591C448.348 63.1591 447.714 62.9967 447.18 62.6719C446.65 62.3438 446.24 61.8864 445.952 61.2997C445.667 60.7098 445.525 60.0237 445.525 59.2415C445.525 58.4593 445.667 57.7699 445.952 57.1733C446.24 56.5734 446.641 56.1061 447.155 55.7713C447.672 55.4332 448.275 55.2642 448.965 55.2642C449.363 55.2642 449.755 55.3305 450.143 55.4631C450.531 55.5956 450.884 55.8111 451.202 56.1094C451.52 56.4044 451.774 56.7955 451.963 57.2827C452.152 57.7699 452.246 58.3698 452.246 59.0824V59.5795H446.36V58.5653H451.053C451.053 58.1345 450.967 57.75 450.794 57.4119C450.625 57.0739 450.383 56.8071 450.069 56.6115C449.757 56.416 449.389 56.3182 448.965 56.3182C448.498 56.3182 448.093 56.4342 447.752 56.6662C447.414 56.8949 447.154 57.1932 446.971 57.5611C446.789 57.929 446.698 58.3234 446.698 58.7443V59.4205C446.698 59.9972 446.797 60.486 446.996 60.8871C447.198 61.2848 447.478 61.5881 447.836 61.7969C448.194 62.0024 448.61 62.1051 449.084 62.1051C449.392 62.1051 449.671 62.062 449.919 61.9759C450.171 61.8864 450.388 61.7538 450.571 61.5781C450.753 61.3991 450.894 61.1771 450.993 60.9119L452.127 61.2301C452.007 61.6146 451.807 61.9527 451.525 62.2443C451.243 62.5327 450.895 62.758 450.481 62.9205C450.067 63.0795 449.601 63.1591 449.084 63.1591ZM459.44 57.0739L458.386 57.3722C458.32 57.1965 458.222 57.0258 458.093 56.8601C457.967 56.6911 457.794 56.5518 457.576 56.4425C457.357 56.3331 457.077 56.2784 456.735 56.2784C456.268 56.2784 455.879 56.3861 455.567 56.6016C455.259 56.8137 455.105 57.0838 455.105 57.4119C455.105 57.7036 455.211 57.9339 455.423 58.103C455.635 58.272 455.967 58.4129 456.417 58.5256L457.551 58.804C458.234 58.9697 458.742 59.2232 459.077 59.5646C459.412 59.9027 459.579 60.3385 459.579 60.8722C459.579 61.3097 459.453 61.7008 459.201 62.0455C458.953 62.3902 458.605 62.6619 458.157 62.8608C457.71 63.0597 457.19 63.1591 456.596 63.1591C455.817 63.1591 455.173 62.9901 454.662 62.652C454.152 62.3139 453.829 61.8201 453.693 61.1705L454.806 60.892C454.913 61.303 455.113 61.6113 455.408 61.8168C455.706 62.0223 456.096 62.125 456.576 62.125C457.123 62.125 457.557 62.009 457.879 61.777C458.204 61.5417 458.366 61.2599 458.366 60.9318C458.366 60.6667 458.273 60.4446 458.088 60.2656C457.902 60.0833 457.617 59.9474 457.233 59.858L455.96 59.5597C455.261 59.3939 454.747 59.1371 454.419 58.7891C454.094 58.4377 453.931 57.9986 453.931 57.4716C453.931 57.0407 454.052 56.6596 454.294 56.3281C454.54 55.9967 454.873 55.7365 455.294 55.5476C455.718 55.3587 456.199 55.2642 456.735 55.2642C457.491 55.2642 458.084 55.4299 458.515 55.7614C458.949 56.0928 459.258 56.5303 459.44 57.0739Z" fill="#475467"/>
<circle cx="300" cy="82" r="4" fill="#4D9E00"/>
<path d="M319.915 76.8182H321.148V83.5597C321.148 84.2557 320.984 84.8771 320.656 85.424C320.331 85.9676 319.872 86.3968 319.278 86.7116C318.685 87.0232 317.989 87.179 317.19 87.179C316.392 87.179 315.696 87.0232 315.102 86.7116C314.509 86.3968 314.048 85.9676 313.72 85.424C313.395 84.8771 313.233 84.2557 313.233 83.5597V76.8182H314.466V83.4602C314.466 83.9574 314.575 84.3999 314.794 84.7876C315.013 85.1721 315.324 85.4754 315.729 85.6974C316.136 85.9162 316.624 86.0256 317.19 86.0256C317.757 86.0256 318.244 85.9162 318.652 85.6974C319.06 85.4754 319.371 85.1721 319.587 84.7876C319.805 84.3999 319.915 83.9574 319.915 83.4602V76.8182ZM328.86 81.0739L327.806 81.3722C327.74 81.1965 327.642 81.0258 327.513 80.8601C327.387 80.6911 327.214 80.5518 326.996 80.4425C326.777 80.3331 326.497 80.2784 326.155 80.2784C325.688 80.2784 325.299 80.3861 324.987 80.6016C324.679 80.8137 324.525 81.0838 324.525 81.4119C324.525 81.7036 324.631 81.9339 324.843 82.103C325.055 82.272 325.386 82.4129 325.837 82.5256L326.971 82.804C327.653 82.9697 328.162 83.2232 328.497 83.5646C328.832 83.9027 328.999 84.3385 328.999 84.8722C328.999 85.3097 328.873 85.7008 328.621 86.0455C328.373 86.3902 328.025 86.6619 327.577 86.8608C327.13 87.0597 326.609 87.1591 326.016 87.1591C325.237 87.1591 324.593 86.9901 324.082 86.652C323.572 86.3139 323.249 85.8201 323.113 85.1705L324.226 84.892C324.332 85.303 324.533 85.6113 324.828 85.8168C325.126 86.0223 325.516 86.125 325.996 86.125C326.543 86.125 326.977 86.009 327.299 85.777C327.624 85.5417 327.786 85.2599 327.786 84.9318C327.786 84.6667 327.693 84.4446 327.508 84.2656C327.322 84.0833 327.037 83.9474 326.653 83.858L325.38 83.5597C324.68 83.3939 324.167 83.1371 323.839 82.7891C323.514 82.4377 323.351 81.9986 323.351 81.4716C323.351 81.0407 323.472 80.6596 323.714 80.3281C323.96 79.9967 324.293 79.7365 324.714 79.5476C325.138 79.3587 325.618 79.2642 326.155 79.2642C326.911 79.2642 327.504 79.4299 327.935 79.7614C328.369 80.0928 328.678 80.5303 328.86 81.0739ZM333.967 87.1591C333.231 87.1591 332.596 86.9967 332.063 86.6719C331.533 86.3438 331.123 85.8864 330.835 85.2997C330.55 84.7098 330.407 84.0237 330.407 83.2415C330.407 82.4593 330.55 81.7699 330.835 81.1733C331.123 80.5734 331.524 80.1061 332.038 79.7713C332.555 79.4332 333.158 79.2642 333.848 79.2642C334.245 79.2642 334.638 79.3305 335.026 79.4631C335.414 79.5956 335.767 79.8111 336.085 80.1094C336.403 80.4044 336.657 80.7955 336.846 81.2827C337.034 81.7699 337.129 82.3698 337.129 83.0824V83.5795H331.243V82.5653H335.936C335.936 82.1345 335.85 81.75 335.677 81.4119C335.508 81.0739 335.266 80.8071 334.951 80.6115C334.64 80.416 334.272 80.3182 333.848 80.3182C333.38 80.3182 332.976 80.4342 332.635 80.6662C332.297 80.8949 332.036 81.1932 331.854 81.5611C331.672 81.929 331.581 82.3234 331.581 82.7443V83.4205C331.581 83.9972 331.68 84.486 331.879 84.8871C332.081 85.2848 332.361 85.5881 332.719 85.7969C333.077 86.0024 333.493 86.1051 333.967 86.1051C334.275 86.1051 334.554 86.062 334.802 85.9759C335.054 85.8864 335.271 85.7538 335.453 85.5781C335.636 85.3991 335.777 85.1771 335.876 84.9119L337.01 85.2301C336.89 85.6146 336.69 85.9527 336.408 86.2443C336.126 86.5327 335.778 86.758 335.364 86.9205C334.95 87.0795 334.484 87.1591 333.967 87.1591ZM338.914 87V79.3636H340.047V80.517H340.127C340.266 80.1392 340.518 79.8326 340.882 79.5973C341.247 79.362 341.658 79.2443 342.115 79.2443C342.202 79.2443 342.309 79.246 342.439 79.2493C342.568 79.2526 342.666 79.2576 342.732 79.2642V80.4574C342.692 80.4474 342.601 80.4325 342.458 80.4126C342.319 80.3894 342.172 80.3778 342.016 80.3778C341.645 80.3778 341.313 80.4557 341.022 80.6115C340.733 80.764 340.505 80.9761 340.336 81.2479C340.17 81.5163 340.087 81.8229 340.087 82.1676V87H338.914ZM348.219 87V76.8182H351.66C352.458 76.8182 353.111 76.9624 353.618 77.2507C354.129 77.5357 354.507 77.9219 354.752 78.4091C354.997 78.8963 355.12 79.4399 355.12 80.0398C355.12 80.6397 354.997 81.1849 354.752 81.6754C354.51 82.166 354.135 82.5571 353.628 82.8487C353.121 83.1371 352.472 83.2812 351.68 83.2812H349.214V82.1875H351.64C352.187 82.1875 352.626 82.093 352.957 81.9041C353.289 81.7152 353.529 81.46 353.678 81.1385C353.831 80.8137 353.907 80.4474 353.907 80.0398C353.907 79.6321 353.831 79.2675 353.678 78.946C353.529 78.6245 353.287 78.3726 352.952 78.1903C352.617 78.0047 352.173 77.9119 351.62 77.9119H349.452V87H348.219ZM356.947 87V79.3636H358.08V80.517H358.16C358.299 80.1392 358.551 79.8326 358.916 79.5973C359.28 79.362 359.691 79.2443 360.149 79.2443C360.235 79.2443 360.343 79.246 360.472 79.2493C360.601 79.2526 360.699 79.2576 360.765 79.2642V80.4574C360.725 80.4474 360.634 80.4325 360.492 80.4126C360.352 80.3894 360.205 80.3778 360.049 80.3778C359.678 80.3778 359.347 80.4557 359.055 80.6115C358.767 80.764 358.538 80.9761 358.369 81.2479C358.203 81.5163 358.12 81.8229 358.12 82.1676V87H356.947ZM365.026 87.1591C364.336 87.1591 363.731 86.995 363.211 86.6669C362.694 86.3388 362.29 85.8797 361.998 85.2898C361.71 84.6998 361.566 84.0104 361.566 83.2216C361.566 82.4261 361.71 81.7318 361.998 81.1385C362.29 80.5452 362.694 80.0845 363.211 79.7564C363.731 79.4283 364.336 79.2642 365.026 79.2642C365.715 79.2642 366.318 79.4283 366.835 79.7564C367.356 80.0845 367.76 80.5452 368.048 81.1385C368.34 81.7318 368.486 82.4261 368.486 83.2216C368.486 84.0104 368.34 84.6998 368.048 85.2898C367.76 85.8797 367.356 86.3388 366.835 86.6669C366.318 86.995 365.715 87.1591 365.026 87.1591ZM365.026 86.1051C365.549 86.1051 365.98 85.9709 366.318 85.7024C366.656 85.4339 366.907 85.081 367.069 84.6435C367.231 84.206 367.313 83.732 367.313 83.2216C367.313 82.7112 367.231 82.2356 367.069 81.7947C366.907 81.3539 366.656 80.9976 366.318 80.7259C365.98 80.4541 365.549 80.3182 365.026 80.3182C364.502 80.3182 364.071 80.4541 363.733 80.7259C363.395 80.9976 363.145 81.3539 362.982 81.7947C362.82 82.2356 362.739 82.7112 362.739 83.2216C362.739 83.732 362.82 84.206 362.982 84.6435C363.145 85.081 363.395 85.4339 363.733 85.7024C364.071 85.9709 364.502 86.1051 365.026 86.1051ZM373.678 79.3636V80.358H369.561V79.3636H373.678ZM370.794 87V78.3097C370.794 77.8722 370.897 77.5076 371.102 77.2159C371.308 76.9242 371.575 76.7055 371.903 76.5597C372.231 76.4138 372.577 76.3409 372.942 76.3409C373.23 76.3409 373.465 76.3641 373.648 76.4105C373.83 76.4569 373.966 76.5 374.055 76.5398L373.717 77.554C373.658 77.5341 373.575 77.5092 373.469 77.4794C373.366 77.4496 373.23 77.4347 373.061 77.4347C372.673 77.4347 372.393 77.5324 372.221 77.728C372.052 77.9235 371.967 78.2102 371.967 78.5881V87H370.794ZM375.322 87V79.3636H376.495V87H375.322ZM375.919 78.0909C375.69 78.0909 375.493 78.013 375.327 77.8572C375.164 77.7015 375.083 77.5142 375.083 77.2955C375.083 77.0767 375.164 76.8894 375.327 76.7337C375.493 76.5779 375.69 76.5 375.919 76.5C376.147 76.5 376.343 76.5779 376.505 76.7337C376.671 76.8894 376.754 77.0767 376.754 77.2955C376.754 77.5142 376.671 77.7015 376.505 77.8572C376.343 78.013 376.147 78.0909 375.919 78.0909ZM379.817 76.8182V87H378.644V76.8182H379.817ZM385.168 87.1591C384.432 87.1591 383.798 86.9967 383.264 86.6719C382.734 86.3438 382.324 85.8864 382.036 85.2997C381.751 84.7098 381.608 84.0237 381.608 83.2415C381.608 82.4593 381.751 81.7699 382.036 81.1733C382.324 80.5734 382.725 80.1061 383.239 79.7713C383.756 79.4332 384.359 79.2642 385.049 79.2642C385.447 79.2642 385.839 79.3305 386.227 79.4631C386.615 79.5956 386.968 79.8111 387.286 80.1094C387.604 80.4044 387.858 80.7955 388.047 81.2827C388.236 81.7699 388.33 82.3698 388.33 83.0824V83.5795H382.444V82.5653H387.137C387.137 82.1345 387.051 81.75 386.878 81.4119C386.709 81.0739 386.467 80.8071 386.153 80.6115C385.841 80.416 385.473 80.3182 385.049 80.3182C384.581 80.3182 384.177 80.4342 383.836 80.6662C383.498 80.8949 383.238 81.1932 383.055 81.5611C382.873 81.929 382.782 82.3234 382.782 82.7443V83.4205C382.782 83.9972 382.881 84.486 383.08 84.8871C383.282 85.2848 383.562 85.5881 383.92 85.7969C384.278 86.0024 384.694 86.1051 385.168 86.1051C385.476 86.1051 385.755 86.062 386.003 85.9759C386.255 85.8864 386.472 85.7538 386.655 85.5781C386.837 85.3991 386.978 85.1771 387.077 84.9119L388.211 85.2301C388.091 85.6146 387.891 85.9527 387.609 86.2443C387.327 86.5327 386.979 86.758 386.565 86.9205C386.151 87.0795 385.685 87.1591 385.168 87.1591ZM395.444 76.8182V87H394.211V76.8182H395.444ZM403.167 81.0739L402.113 81.3722C402.046 81.1965 401.949 81.0258 401.819 80.8601C401.693 80.6911 401.521 80.5518 401.302 80.4425C401.083 80.3331 400.803 80.2784 400.462 80.2784C399.995 80.2784 399.605 80.3861 399.294 80.6016C398.985 80.8137 398.831 81.0838 398.831 81.4119C398.831 81.7036 398.937 81.9339 399.15 82.103C399.362 82.272 399.693 82.4129 400.144 82.5256L401.277 82.804C401.96 82.9697 402.469 83.2232 402.804 83.5646C403.138 83.9027 403.306 84.3385 403.306 84.8722C403.306 85.3097 403.18 85.7008 402.928 86.0455C402.679 86.3902 402.331 86.6619 401.884 86.8608C401.436 87.0597 400.916 87.1591 400.323 87.1591C399.544 87.1591 398.899 86.9901 398.389 86.652C397.878 86.3139 397.555 85.8201 397.419 85.1705L398.533 84.892C398.639 85.303 398.84 85.6113 399.135 85.8168C399.433 86.0223 399.822 86.125 400.303 86.125C400.85 86.125 401.284 86.009 401.605 85.777C401.93 85.5417 402.093 85.2599 402.093 84.9318C402.093 84.6667 402 84.4446 401.814 84.2656C401.629 84.0833 401.344 83.9474 400.959 83.858L399.686 83.5597C398.987 83.3939 398.473 83.1371 398.145 82.7891C397.82 82.4377 397.658 81.9986 397.658 81.4716C397.658 81.0407 397.779 80.6596 398.021 80.3281C398.266 79.9967 398.599 79.7365 399.02 79.5476C399.444 79.3587 399.925 79.2642 400.462 79.2642C401.218 79.2642 401.811 79.4299 402.242 79.7614C402.676 80.0928 402.984 80.5303 403.167 81.0739ZM410.481 81.0739L409.427 81.3722C409.361 81.1965 409.263 81.0258 409.134 80.8601C409.008 80.6911 408.835 80.5518 408.617 80.4425C408.398 80.3331 408.118 80.2784 407.776 80.2784C407.309 80.2784 406.92 80.3861 406.608 80.6016C406.3 80.8137 406.146 81.0838 406.146 81.4119C406.146 81.7036 406.252 81.9339 406.464 82.103C406.676 82.272 407.008 82.4129 407.458 82.5256L408.592 82.804C409.275 82.9697 409.783 83.2232 410.118 83.5646C410.453 83.9027 410.62 84.3385 410.62 84.8722C410.62 85.3097 410.494 85.7008 410.242 86.0455C409.994 86.3902 409.646 86.6619 409.198 86.8608C408.751 87.0597 408.231 87.1591 407.637 87.1591C406.858 87.1591 406.214 86.9901 405.703 86.652C405.193 86.3139 404.87 85.8201 404.734 85.1705L405.847 84.892C405.954 85.303 406.154 85.6113 406.449 85.8168C406.747 86.0223 407.137 86.125 407.617 86.125C408.164 86.125 408.598 86.009 408.92 85.777C409.245 85.5417 409.407 85.2599 409.407 84.9318C409.407 84.6667 409.314 84.4446 409.129 84.2656C408.943 84.0833 408.658 83.9474 408.274 83.858L407.001 83.5597C406.302 83.3939 405.788 83.1371 405.46 82.7891C405.135 82.4377 404.972 81.9986 404.972 81.4716C404.972 81.0407 405.093 80.6596 405.335 80.3281C405.581 79.9967 405.914 79.7365 406.335 79.5476C406.759 79.3587 407.24 79.2642 407.776 79.2642C408.532 79.2642 409.125 79.4299 409.556 79.7614C409.99 80.0928 410.299 80.5303 410.481 81.0739ZM417.199 83.8778V79.3636H418.372V87H417.199V85.7074H417.119C416.94 86.0952 416.662 86.425 416.284 86.6967C415.906 86.9652 415.429 87.0994 414.852 87.0994C414.375 87.0994 413.951 86.995 413.58 86.7862C413.208 86.5741 412.917 86.2559 412.705 85.8317C412.492 85.4041 412.386 84.8655 412.386 84.2159V79.3636H413.56V84.1364C413.56 84.6932 413.715 85.1373 414.027 85.4688C414.342 85.8002 414.743 85.9659 415.23 85.9659C415.522 85.9659 415.818 85.8913 416.12 85.7422C416.425 85.593 416.68 85.3643 416.886 85.0561C417.094 84.7479 417.199 84.3551 417.199 83.8778ZM423.723 87.1591C422.987 87.1591 422.352 86.9967 421.819 86.6719C421.288 86.3438 420.879 85.8864 420.591 85.2997C420.306 84.7098 420.163 84.0237 420.163 83.2415C420.163 82.4593 420.306 81.7699 420.591 81.1733C420.879 80.5734 421.28 80.1061 421.794 79.7713C422.311 79.4332 422.914 79.2642 423.604 79.2642C424.001 79.2642 424.394 79.3305 424.782 79.4631C425.17 79.5956 425.523 79.8111 425.841 80.1094C426.159 80.4044 426.412 80.7955 426.601 81.2827C426.79 81.7699 426.885 82.3698 426.885 83.0824V83.5795H420.998V82.5653H425.692C425.692 82.1345 425.605 81.75 425.433 81.4119C425.264 81.0739 425.022 80.8071 424.707 80.6115C424.396 80.416 424.028 80.3182 423.604 80.3182C423.136 80.3182 422.732 80.4342 422.39 80.6662C422.052 80.8949 421.792 81.1932 421.61 81.5611C421.428 81.929 421.336 82.3234 421.336 82.7443V83.4205C421.336 83.9972 421.436 84.486 421.635 84.8871C421.837 85.2848 422.117 85.5881 422.475 85.7969C422.833 86.0024 423.249 86.1051 423.723 86.1051C424.031 86.1051 424.309 86.062 424.558 85.9759C424.81 85.8864 425.027 85.7538 425.209 85.5781C425.392 85.3991 425.532 85.1771 425.632 84.9119L426.765 85.2301C426.646 85.6146 426.446 85.9527 426.164 86.2443C425.882 86.5327 425.534 86.758 425.12 86.9205C424.706 87.0795 424.24 87.1591 423.723 87.1591ZM434.079 81.0739L433.025 81.3722C432.958 81.1965 432.861 81.0258 432.731 80.8601C432.605 80.6911 432.433 80.5518 432.214 80.4425C431.996 80.3331 431.715 80.2784 431.374 80.2784C430.907 80.2784 430.517 80.3861 430.206 80.6016C429.898 80.8137 429.743 81.0838 429.743 81.4119C429.743 81.7036 429.849 81.9339 430.062 82.103C430.274 82.272 430.605 82.4129 431.056 82.5256L432.189 82.804C432.872 82.9697 433.381 83.2232 433.716 83.5646C434.05 83.9027 434.218 84.3385 434.218 84.8722C434.218 85.3097 434.092 85.7008 433.84 86.0455C433.591 86.3902 433.243 86.6619 432.796 86.8608C432.349 87.0597 431.828 87.1591 431.235 87.1591C430.456 87.1591 429.811 86.9901 429.301 86.652C428.791 86.3139 428.467 85.8201 428.331 85.1705L429.445 84.892C429.551 85.303 429.752 85.6113 430.047 85.8168C430.345 86.0223 430.734 86.125 431.215 86.125C431.762 86.125 432.196 86.009 432.518 85.777C432.842 85.5417 433.005 85.2599 433.005 84.9318C433.005 84.6667 432.912 84.4446 432.726 84.2656C432.541 84.0833 432.256 83.9474 431.871 83.858L430.599 83.5597C429.899 83.3939 429.385 83.1371 429.057 82.7891C428.733 82.4377 428.57 81.9986 428.57 81.4716C428.57 81.0407 428.691 80.6596 428.933 80.3281C429.178 79.9967 429.511 79.7365 429.932 79.5476C430.357 79.3587 430.837 79.2642 431.374 79.2642C432.13 79.2642 432.723 79.4299 433.154 79.7614C433.588 80.0928 433.896 80.5303 434.079 81.0739Z" fill="#475467"/>
<circle cx="300" cy="106" r="4" fill="#CDFF9E"/>
<path d="M313.233 111V100.818H316.793C317.502 100.818 318.087 100.941 318.548 101.186C319.008 101.428 319.351 101.754 319.577 102.165C319.802 102.573 319.915 103.026 319.915 103.523C319.915 103.96 319.837 104.321 319.681 104.607C319.529 104.892 319.326 105.117 319.075 105.283C318.826 105.448 318.556 105.571 318.264 105.651V105.75C318.576 105.77 318.889 105.879 319.204 106.078C319.519 106.277 319.782 106.562 319.994 106.933C320.206 107.304 320.312 107.759 320.312 108.295C320.312 108.806 320.196 109.265 319.964 109.673C319.732 110.08 319.366 110.403 318.866 110.642C318.365 110.881 317.714 111 316.912 111H313.233ZM314.466 109.906H316.912C317.717 109.906 318.289 109.75 318.627 109.439C318.969 109.124 319.139 108.743 319.139 108.295C319.139 107.951 319.051 107.633 318.876 107.341C318.7 107.046 318.45 106.811 318.125 106.635C317.8 106.456 317.416 106.366 316.972 106.366H314.466V109.906ZM314.466 105.293H316.753C317.124 105.293 317.459 105.22 317.757 105.074C318.059 104.928 318.297 104.723 318.473 104.457C318.652 104.192 318.741 103.881 318.741 103.523C318.741 103.075 318.586 102.696 318.274 102.384C317.963 102.069 317.469 101.912 316.793 101.912H314.466V105.293ZM322.179 111V103.364H323.353V111H322.179ZM322.776 102.091C322.547 102.091 322.35 102.013 322.184 101.857C322.022 101.701 321.941 101.514 321.941 101.295C321.941 101.077 322.022 100.889 322.184 100.734C322.35 100.578 322.547 100.5 322.776 100.5C323.005 100.5 323.2 100.578 323.363 100.734C323.528 100.889 323.611 101.077 323.611 101.295C323.611 101.514 323.528 101.701 323.363 101.857C323.2 102.013 323.005 102.091 322.776 102.091ZM326.675 100.818V111H325.502V100.818H326.675ZM329.997 100.818V111H328.824V100.818H329.997ZM332.146 111V103.364H333.319V111H332.146ZM332.743 102.091C332.514 102.091 332.317 102.013 332.151 101.857C331.989 101.701 331.907 101.514 331.907 101.295C331.907 101.077 331.989 100.889 332.151 100.734C332.317 100.578 332.514 100.5 332.743 100.5C332.971 100.5 333.167 100.578 333.329 100.734C333.495 100.889 333.578 101.077 333.578 101.295C333.578 101.514 333.495 101.701 333.329 101.857C333.167 102.013 332.971 102.091 332.743 102.091ZM336.642 106.406V111H335.468V103.364H336.602V104.557H336.701C336.88 104.169 337.152 103.857 337.517 103.622C337.881 103.384 338.352 103.264 338.929 103.264C339.446 103.264 339.898 103.37 340.286 103.582C340.674 103.791 340.975 104.109 341.191 104.537C341.406 104.961 341.514 105.498 341.514 106.148V111H340.341V106.227C340.341 105.627 340.185 105.16 339.873 104.825C339.562 104.487 339.134 104.318 338.591 104.318C338.216 104.318 337.881 104.399 337.586 104.562C337.295 104.724 337.064 104.961 336.895 105.273C336.726 105.584 336.642 105.962 336.642 106.406ZM346.74 114.023C346.173 114.023 345.686 113.95 345.279 113.804C344.871 113.661 344.531 113.473 344.259 113.237C343.991 113.005 343.777 112.757 343.618 112.491L344.553 111.835C344.659 111.974 344.793 112.134 344.955 112.312C345.118 112.495 345.34 112.652 345.622 112.785C345.907 112.921 346.28 112.989 346.74 112.989C347.357 112.989 347.865 112.839 348.267 112.541C348.668 112.243 348.868 111.776 348.868 111.139V109.588H348.769C348.682 109.727 348.56 109.9 348.401 110.105C348.245 110.307 348.02 110.488 347.725 110.647C347.433 110.803 347.039 110.881 346.541 110.881C345.925 110.881 345.371 110.735 344.881 110.443C344.394 110.152 344.008 109.727 343.722 109.17C343.441 108.614 343.3 107.937 343.3 107.142C343.3 106.36 343.437 105.679 343.713 105.099C343.988 104.515 344.37 104.065 344.861 103.746C345.352 103.425 345.918 103.264 346.561 103.264C347.058 103.264 347.453 103.347 347.744 103.513C348.039 103.675 348.265 103.861 348.421 104.07C348.58 104.275 348.702 104.444 348.789 104.577H348.908V103.364H350.041V111.219C350.041 111.875 349.892 112.409 349.594 112.82C349.299 113.234 348.901 113.537 348.401 113.729C347.904 113.925 347.35 114.023 346.74 114.023ZM346.7 109.827C347.171 109.827 347.569 109.719 347.894 109.504C348.218 109.288 348.465 108.978 348.634 108.574C348.803 108.17 348.888 107.686 348.888 107.122C348.888 106.572 348.805 106.086 348.639 105.665C348.474 105.245 348.228 104.915 347.904 104.676C347.579 104.437 347.178 104.318 346.7 104.318C346.203 104.318 345.789 104.444 345.458 104.696C345.129 104.948 344.883 105.286 344.717 105.71C344.554 106.134 344.473 106.605 344.473 107.122C344.473 107.652 344.556 108.121 344.722 108.529C344.891 108.933 345.139 109.252 345.468 109.484C345.799 109.712 346.21 109.827 346.7 109.827ZM357.598 105.074L356.544 105.372C356.478 105.196 356.38 105.026 356.251 104.86C356.125 104.691 355.953 104.552 355.734 104.442C355.515 104.333 355.235 104.278 354.894 104.278C354.426 104.278 354.037 104.386 353.725 104.602C353.417 104.814 353.263 105.084 353.263 105.412C353.263 105.704 353.369 105.934 353.581 106.103C353.793 106.272 354.125 106.413 354.575 106.526L355.709 106.804C356.392 106.97 356.901 107.223 357.235 107.565C357.57 107.903 357.737 108.339 357.737 108.872C357.737 109.31 357.611 109.701 357.36 110.045C357.111 110.39 356.763 110.662 356.316 110.861C355.868 111.06 355.348 111.159 354.754 111.159C353.976 111.159 353.331 110.99 352.82 110.652C352.31 110.314 351.987 109.82 351.851 109.17L352.965 108.892C353.071 109.303 353.271 109.611 353.566 109.817C353.865 110.022 354.254 110.125 354.735 110.125C355.281 110.125 355.716 110.009 356.037 109.777C356.362 109.542 356.524 109.26 356.524 108.932C356.524 108.667 356.432 108.445 356.246 108.266C356.06 108.083 355.775 107.947 355.391 107.858L354.118 107.56C353.419 107.394 352.905 107.137 352.577 106.789C352.252 106.438 352.09 105.999 352.09 105.472C352.09 105.041 352.211 104.66 352.453 104.328C352.698 103.997 353.031 103.737 353.452 103.548C353.876 103.359 354.357 103.264 354.894 103.264C355.649 103.264 356.243 103.43 356.673 103.761C357.108 104.093 357.416 104.53 357.598 105.074ZM364.833 100.818V111H363.6V100.818H364.833ZM372.555 105.074L371.501 105.372C371.435 105.196 371.337 105.026 371.208 104.86C371.082 104.691 370.91 104.552 370.691 104.442C370.472 104.333 370.192 104.278 369.851 104.278C369.383 104.278 368.994 104.386 368.682 104.602C368.374 104.814 368.22 105.084 368.22 105.412C368.22 105.704 368.326 105.934 368.538 106.103C368.75 106.272 369.082 106.413 369.532 106.526L370.666 106.804C371.349 106.97 371.858 107.223 372.192 107.565C372.527 107.903 372.694 108.339 372.694 108.872C372.694 109.31 372.568 109.701 372.317 110.045C372.068 110.39 371.72 110.662 371.273 110.861C370.825 111.06 370.305 111.159 369.711 111.159C368.933 111.159 368.288 110.99 367.778 110.652C367.267 110.314 366.944 109.82 366.808 109.17L367.922 108.892C368.028 109.303 368.228 109.611 368.523 109.817C368.822 110.022 369.211 110.125 369.692 110.125C370.238 110.125 370.673 110.009 370.994 109.777C371.319 109.542 371.481 109.26 371.481 108.932C371.481 108.667 371.389 108.445 371.203 108.266C371.017 108.083 370.732 107.947 370.348 107.858L369.075 107.56C368.376 107.394 367.862 107.137 367.534 106.789C367.209 106.438 367.047 105.999 367.047 105.472C367.047 105.041 367.168 104.66 367.41 104.328C367.655 103.997 367.988 103.737 368.409 103.548C368.833 103.359 369.314 103.264 369.851 103.264C370.606 103.264 371.2 103.43 371.631 103.761C372.065 104.093 372.373 104.53 372.555 105.074ZM379.87 105.074L378.816 105.372C378.749 105.196 378.652 105.026 378.522 104.86C378.396 104.691 378.224 104.552 378.005 104.442C377.787 104.333 377.507 104.278 377.165 104.278C376.698 104.278 376.308 104.386 375.997 104.602C375.689 104.814 375.534 105.084 375.534 105.412C375.534 105.704 375.641 105.934 375.853 106.103C376.065 106.272 376.396 106.413 376.847 106.526L377.98 106.804C378.663 106.97 379.172 107.223 379.507 107.565C379.842 107.903 380.009 108.339 380.009 108.872C380.009 109.31 379.883 109.701 379.631 110.045C379.382 110.39 379.034 110.662 378.587 110.861C378.14 111.06 377.619 111.159 377.026 111.159C376.247 111.159 375.602 110.99 375.092 110.652C374.582 110.314 374.258 109.82 374.123 109.17L375.236 108.892C375.342 109.303 375.543 109.611 375.838 109.817C376.136 110.022 376.525 110.125 377.006 110.125C377.553 110.125 377.987 110.009 378.309 109.777C378.633 109.542 378.796 109.26 378.796 108.932C378.796 108.667 378.703 108.445 378.517 108.266C378.332 108.083 378.047 107.947 377.662 107.858L376.39 107.56C375.69 107.394 375.176 107.137 374.848 106.789C374.524 106.438 374.361 105.999 374.361 105.472C374.361 105.041 374.482 104.66 374.724 104.328C374.969 103.997 375.302 103.737 375.723 103.548C376.148 103.359 376.628 103.264 377.165 103.264C377.921 103.264 378.514 103.43 378.945 103.761C379.379 104.093 379.687 104.53 379.87 105.074ZM386.588 107.878V103.364H387.761V111H386.588V109.707H386.508C386.329 110.095 386.051 110.425 385.673 110.697C385.295 110.965 384.818 111.099 384.241 111.099C383.764 111.099 383.339 110.995 382.968 110.786C382.597 110.574 382.305 110.256 382.093 109.832C381.881 109.404 381.775 108.866 381.775 108.216V103.364H382.948V108.136C382.948 108.693 383.104 109.137 383.416 109.469C383.731 109.8 384.132 109.966 384.619 109.966C384.91 109.966 385.207 109.891 385.509 109.742C385.814 109.593 386.069 109.364 386.274 109.056C386.483 108.748 386.588 108.355 386.588 107.878ZM393.112 111.159C392.376 111.159 391.741 110.997 391.207 110.672C390.677 110.344 390.268 109.886 389.979 109.3C389.694 108.71 389.552 108.024 389.552 107.241C389.552 106.459 389.694 105.77 389.979 105.173C390.268 104.573 390.669 104.106 391.183 103.771C391.7 103.433 392.303 103.264 392.992 103.264C393.39 103.264 393.783 103.33 394.17 103.463C394.558 103.596 394.911 103.811 395.229 104.109C395.548 104.404 395.801 104.795 395.99 105.283C396.179 105.77 396.273 106.37 396.273 107.082V107.58H390.387V106.565H395.08C395.08 106.134 394.994 105.75 394.822 105.412C394.653 105.074 394.411 104.807 394.096 104.612C393.784 104.416 393.416 104.318 392.992 104.318C392.525 104.318 392.121 104.434 391.779 104.666C391.441 104.895 391.181 105.193 390.999 105.561C390.816 105.929 390.725 106.323 390.725 106.744V107.42C390.725 107.997 390.825 108.486 391.023 108.887C391.226 109.285 391.506 109.588 391.864 109.797C392.222 110.002 392.638 110.105 393.112 110.105C393.42 110.105 393.698 110.062 393.947 109.976C394.199 109.886 394.416 109.754 394.598 109.578C394.78 109.399 394.921 109.177 395.021 108.912L396.154 109.23C396.035 109.615 395.834 109.953 395.553 110.244C395.271 110.533 394.923 110.758 394.509 110.92C394.094 111.08 393.629 111.159 393.112 111.159ZM403.467 105.074L402.413 105.372C402.347 105.196 402.249 105.026 402.12 104.86C401.994 104.691 401.822 104.552 401.603 104.442C401.384 104.333 401.104 104.278 400.763 104.278C400.295 104.278 399.906 104.386 399.594 104.602C399.286 104.814 399.132 105.084 399.132 105.412C399.132 105.704 399.238 105.934 399.45 106.103C399.662 106.272 399.994 106.413 400.445 106.526L401.578 106.804C402.261 106.97 402.77 107.223 403.104 107.565C403.439 107.903 403.607 108.339 403.607 108.872C403.607 109.31 403.481 109.701 403.229 110.045C402.98 110.39 402.632 110.662 402.185 110.861C401.737 111.06 401.217 111.159 400.624 111.159C399.845 111.159 399.2 110.99 398.69 110.652C398.179 110.314 397.856 109.82 397.72 109.17L398.834 108.892C398.94 109.303 399.14 109.611 399.435 109.817C399.734 110.022 400.123 110.125 400.604 110.125C401.151 110.125 401.585 110.009 401.906 109.777C402.231 109.542 402.393 109.26 402.393 108.932C402.393 108.667 402.301 108.445 402.115 108.266C401.929 108.083 401.644 107.947 401.26 107.858L399.987 107.56C399.288 107.394 398.774 107.137 398.446 106.789C398.121 106.438 397.959 105.999 397.959 105.472C397.959 105.041 398.08 104.66 398.322 104.328C398.567 103.997 398.9 103.737 399.321 103.548C399.745 103.359 400.226 103.264 400.763 103.264C401.518 103.264 402.112 103.43 402.543 103.761C402.977 104.093 403.285 104.53 403.467 105.074Z" fill="#475467"/>
<circle cx="300" cy="130" r="4" fill="#EAECF0"/>
<path d="M313.651 135H312.358L316.097 124.818H317.369L321.108 135H319.815L316.773 126.429H316.693L313.651 135ZM314.128 131.023H319.338V132.116H314.128V131.023ZM322.694 135V124.818H326.134C326.933 124.818 327.586 124.962 328.093 125.251C328.603 125.536 328.981 125.922 329.227 126.409C329.472 126.896 329.594 127.44 329.594 128.04C329.594 128.64 329.472 129.185 329.227 129.675C328.985 130.166 328.61 130.557 328.103 130.849C327.596 131.137 326.946 131.281 326.154 131.281H323.688V130.188H326.114C326.661 130.188 327.1 130.093 327.432 129.904C327.763 129.715 328.004 129.46 328.153 129.138C328.305 128.814 328.381 128.447 328.381 128.04C328.381 127.632 328.305 127.268 328.153 126.946C328.004 126.625 327.762 126.373 327.427 126.19C327.092 126.005 326.648 125.912 326.094 125.912H323.927V135H322.694ZM332.814 124.818V135H331.581V124.818H332.814ZM339.064 135V127.364H340.237V135H339.064ZM339.661 126.091C339.432 126.091 339.235 126.013 339.069 125.857C338.907 125.701 338.825 125.514 338.825 125.295C338.825 125.077 338.907 124.889 339.069 124.734C339.235 124.578 339.432 124.5 339.661 124.5C339.889 124.5 340.085 124.578 340.247 124.734C340.413 124.889 340.496 125.077 340.496 125.295C340.496 125.514 340.413 125.701 340.247 125.857C340.085 126.013 339.889 126.091 339.661 126.091ZM343.56 130.406V135H342.386V127.364H343.52V128.557H343.619C343.798 128.169 344.07 127.857 344.435 127.622C344.799 127.384 345.27 127.264 345.847 127.264C346.364 127.264 346.816 127.37 347.204 127.582C347.592 127.791 347.893 128.109 348.109 128.537C348.324 128.961 348.432 129.498 348.432 130.148V135H347.259V130.227C347.259 129.627 347.103 129.16 346.791 128.825C346.48 128.487 346.052 128.318 345.509 128.318C345.134 128.318 344.799 128.399 344.504 128.562C344.213 128.724 343.982 128.961 343.813 129.273C343.644 129.584 343.56 129.962 343.56 130.406ZM353.897 127.364V128.358H349.939V127.364H353.897ZM351.093 125.534H352.266V132.812C352.266 133.144 352.314 133.393 352.41 133.558C352.51 133.721 352.636 133.83 352.788 133.886C352.944 133.939 353.108 133.966 353.28 133.966C353.41 133.966 353.516 133.959 353.599 133.946C353.681 133.929 353.748 133.916 353.797 133.906L354.036 134.96C353.956 134.99 353.845 135.02 353.703 135.05C353.56 135.083 353.38 135.099 353.161 135.099C352.83 135.099 352.505 135.028 352.187 134.886C351.872 134.743 351.61 134.526 351.401 134.234C351.196 133.943 351.093 133.575 351.093 133.131V125.534ZM358.781 135.159C358.046 135.159 357.411 134.997 356.877 134.672C356.347 134.344 355.938 133.886 355.649 133.3C355.364 132.71 355.222 132.024 355.222 131.241C355.222 130.459 355.364 129.77 355.649 129.173C355.938 128.573 356.339 128.106 356.852 127.771C357.369 127.433 357.973 127.264 358.662 127.264C359.06 127.264 359.453 127.33 359.84 127.463C360.228 127.596 360.581 127.811 360.899 128.109C361.218 128.404 361.471 128.795 361.66 129.283C361.849 129.77 361.943 130.37 361.943 131.082V131.58H356.057V130.565H360.75C360.75 130.134 360.664 129.75 360.492 129.412C360.323 129.074 360.081 128.807 359.766 128.612C359.454 128.416 359.086 128.318 358.662 128.318C358.195 128.318 357.79 128.434 357.449 128.666C357.111 128.895 356.851 129.193 356.669 129.561C356.486 129.929 356.395 130.323 356.395 130.744V131.42C356.395 131.997 356.494 132.486 356.693 132.887C356.896 133.285 357.176 133.588 357.534 133.797C357.892 134.002 358.307 134.105 358.781 134.105C359.09 134.105 359.368 134.062 359.617 133.976C359.869 133.886 360.086 133.754 360.268 133.578C360.45 133.399 360.591 133.177 360.691 132.912L361.824 133.23C361.705 133.615 361.504 133.953 361.222 134.244C360.941 134.533 360.593 134.758 360.178 134.92C359.764 135.08 359.298 135.159 358.781 135.159ZM366.811 138.023C366.244 138.023 365.757 137.95 365.349 137.804C364.941 137.661 364.602 137.473 364.33 137.237C364.061 137.005 363.847 136.757 363.688 136.491L364.623 135.835C364.729 135.974 364.863 136.134 365.026 136.312C365.188 136.495 365.41 136.652 365.692 136.785C365.977 136.921 366.35 136.989 366.811 136.989C367.427 136.989 367.936 136.839 368.337 136.541C368.738 136.243 368.938 135.776 368.938 135.139V133.588H368.839C368.753 133.727 368.63 133.9 368.471 134.105C368.315 134.307 368.09 134.488 367.795 134.647C367.503 134.803 367.109 134.881 366.612 134.881C365.995 134.881 365.442 134.735 364.951 134.443C364.464 134.152 364.078 133.727 363.793 133.17C363.511 132.614 363.37 131.937 363.37 131.142C363.37 130.36 363.508 129.679 363.783 129.099C364.058 128.515 364.441 128.065 364.931 127.746C365.422 127.425 365.989 127.264 366.632 127.264C367.129 127.264 367.523 127.347 367.815 127.513C368.11 127.675 368.335 127.861 368.491 128.07C368.65 128.275 368.773 128.444 368.859 128.577H368.978V127.364H370.112V135.219C370.112 135.875 369.963 136.409 369.664 136.82C369.369 137.234 368.972 137.537 368.471 137.729C367.974 137.925 367.42 138.023 366.811 138.023ZM366.771 133.827C367.241 133.827 367.639 133.719 367.964 133.504C368.289 133.288 368.536 132.978 368.705 132.574C368.874 132.17 368.958 131.686 368.958 131.122C368.958 130.572 368.875 130.086 368.71 129.665C368.544 129.245 368.299 128.915 367.974 128.676C367.649 128.437 367.248 128.318 366.771 128.318C366.274 128.318 365.859 128.444 365.528 128.696C365.2 128.948 364.953 129.286 364.787 129.71C364.625 130.134 364.544 130.605 364.544 131.122C364.544 131.652 364.626 132.121 364.792 132.529C364.961 132.933 365.21 133.252 365.538 133.484C365.869 133.712 366.28 133.827 366.771 133.827ZM372.259 135V127.364H373.393V128.517H373.472C373.612 128.139 373.864 127.833 374.228 127.597C374.593 127.362 375.004 127.244 375.461 127.244C375.547 127.244 375.655 127.246 375.784 127.249C375.914 127.253 376.011 127.258 376.078 127.264V128.457C376.038 128.447 375.947 128.433 375.804 128.413C375.665 128.389 375.517 128.378 375.362 128.378C374.99 128.378 374.659 128.456 374.367 128.612C374.079 128.764 373.85 128.976 373.681 129.248C373.516 129.516 373.433 129.823 373.433 130.168V135H372.259ZM379.716 135.179C379.232 135.179 378.792 135.088 378.398 134.906C378.004 134.72 377.69 134.453 377.458 134.105C377.226 133.754 377.11 133.33 377.11 132.832C377.11 132.395 377.197 132.04 377.369 131.768C377.541 131.493 377.772 131.278 378.06 131.122C378.348 130.966 378.667 130.85 379.015 130.774C379.366 130.695 379.719 130.632 380.074 130.585C380.538 130.526 380.914 130.481 381.202 130.451C381.494 130.418 381.706 130.363 381.838 130.287C381.974 130.211 382.042 130.078 382.042 129.889V129.849C382.042 129.359 381.908 128.978 381.64 128.706C381.374 128.434 380.972 128.298 380.431 128.298C379.871 128.298 379.432 128.421 379.114 128.666C378.796 128.911 378.572 129.173 378.443 129.452L377.329 129.054C377.528 128.59 377.793 128.229 378.125 127.97C378.459 127.708 378.824 127.526 379.218 127.423C379.616 127.317 380.007 127.264 380.392 127.264C380.637 127.264 380.919 127.294 381.237 127.354C381.558 127.41 381.868 127.528 382.167 127.707C382.468 127.886 382.718 128.156 382.917 128.517C383.116 128.878 383.216 129.362 383.216 129.969V135H382.042V133.966H381.983C381.903 134.132 381.77 134.309 381.585 134.498C381.399 134.687 381.152 134.848 380.844 134.98C380.536 135.113 380.16 135.179 379.716 135.179ZM379.895 134.125C380.359 134.125 380.75 134.034 381.068 133.852C381.389 133.669 381.631 133.434 381.794 133.146C381.959 132.857 382.042 132.554 382.042 132.236V131.162C381.993 131.222 381.883 131.276 381.714 131.326C381.548 131.372 381.356 131.414 381.137 131.45C380.922 131.483 380.712 131.513 380.506 131.54C380.304 131.563 380.14 131.583 380.014 131.599C379.709 131.639 379.424 131.704 379.159 131.793C378.897 131.879 378.685 132.01 378.522 132.186C378.363 132.358 378.284 132.594 378.284 132.892C378.284 133.3 378.435 133.608 378.736 133.817C379.041 134.022 379.427 134.125 379.895 134.125ZM388.678 127.364V128.358H384.721V127.364H388.678ZM385.874 125.534H387.047V132.812C387.047 133.144 387.095 133.393 387.192 133.558C387.291 133.721 387.417 133.83 387.569 133.886C387.725 133.939 387.889 133.966 388.062 133.966C388.191 133.966 388.297 133.959 388.38 133.946C388.463 133.929 388.529 133.916 388.579 133.906L388.817 134.96C388.738 134.99 388.627 135.02 388.484 135.05C388.342 135.083 388.161 135.099 387.942 135.099C387.611 135.099 387.286 135.028 386.968 134.886C386.653 134.743 386.391 134.526 386.182 134.234C385.977 133.943 385.874 133.575 385.874 133.131V125.534ZM390.443 135V127.364H391.616V135H390.443ZM391.04 126.091C390.811 126.091 390.614 126.013 390.448 125.857C390.286 125.701 390.204 125.514 390.204 125.295C390.204 125.077 390.286 124.889 390.448 124.734C390.614 124.578 390.811 124.5 391.04 124.5C391.268 124.5 391.464 124.578 391.626 124.734C391.792 124.889 391.875 125.077 391.875 125.295C391.875 125.514 391.792 125.701 391.626 125.857C391.464 126.013 391.268 126.091 391.04 126.091ZM396.868 135.159C396.178 135.159 395.573 134.995 395.053 134.667C394.536 134.339 394.132 133.88 393.84 133.29C393.551 132.7 393.407 132.01 393.407 131.222C393.407 130.426 393.551 129.732 393.84 129.138C394.132 128.545 394.536 128.085 395.053 127.756C395.573 127.428 396.178 127.264 396.868 127.264C397.557 127.264 398.16 127.428 398.677 127.756C399.198 128.085 399.602 128.545 399.89 129.138C400.182 129.732 400.328 130.426 400.328 131.222C400.328 132.01 400.182 132.7 399.89 133.29C399.602 133.88 399.198 134.339 398.677 134.667C398.16 134.995 397.557 135.159 396.868 135.159ZM396.868 134.105C397.391 134.105 397.822 133.971 398.16 133.702C398.498 133.434 398.748 133.081 398.911 132.643C399.073 132.206 399.154 131.732 399.154 131.222C399.154 130.711 399.073 130.236 398.911 129.795C398.748 129.354 398.498 128.998 398.16 128.726C397.822 128.454 397.391 128.318 396.868 128.318C396.344 128.318 395.913 128.454 395.575 128.726C395.237 128.998 394.987 129.354 394.824 129.795C394.662 130.236 394.581 130.711 394.581 131.222C394.581 131.732 394.662 132.206 394.824 132.643C394.987 133.081 395.237 133.434 395.575 133.702C395.913 133.971 396.344 134.105 396.868 134.105ZM403.292 130.406V135H402.119V127.364H403.252V128.557H403.352C403.531 128.169 403.802 127.857 404.167 127.622C404.532 127.384 405.002 127.264 405.579 127.264C406.096 127.264 406.548 127.37 406.936 127.582C407.324 127.791 407.626 128.109 407.841 128.537C408.057 128.961 408.164 129.498 408.164 130.148V135H406.991V130.227C406.991 129.627 406.835 129.16 406.524 128.825C406.212 128.487 405.785 128.318 405.241 128.318C404.866 128.318 404.532 128.399 404.237 128.562C403.945 128.724 403.715 128.961 403.546 129.273C403.377 129.584 403.292 129.962 403.292 130.406ZM415.638 124.818V135H414.405V124.818H415.638ZM423.36 129.074L422.306 129.372C422.24 129.196 422.142 129.026 422.013 128.86C421.887 128.691 421.714 128.552 421.496 128.442C421.277 128.333 420.997 128.278 420.655 128.278C420.188 128.278 419.799 128.386 419.487 128.602C419.179 128.814 419.025 129.084 419.025 129.412C419.025 129.704 419.131 129.934 419.343 130.103C419.555 130.272 419.886 130.413 420.337 130.526L421.471 130.804C422.153 130.97 422.662 131.223 422.997 131.565C423.332 131.903 423.499 132.339 423.499 132.872C423.499 133.31 423.373 133.701 423.121 134.045C422.873 134.39 422.525 134.662 422.077 134.861C421.63 135.06 421.109 135.159 420.516 135.159C419.737 135.159 419.093 134.99 418.582 134.652C418.072 134.314 417.749 133.82 417.613 133.17L418.726 132.892C418.832 133.303 419.033 133.611 419.328 133.817C419.626 134.022 420.016 134.125 420.496 134.125C421.043 134.125 421.477 134.009 421.799 133.777C422.124 133.542 422.286 133.26 422.286 132.932C422.286 132.667 422.193 132.445 422.008 132.266C421.822 132.083 421.537 131.947 421.153 131.858L419.88 131.56C419.18 131.394 418.667 131.137 418.339 130.789C418.014 130.438 417.851 129.999 417.851 129.472C417.851 129.041 417.972 128.66 418.214 128.328C418.46 127.997 418.793 127.737 419.214 127.548C419.638 127.359 420.118 127.264 420.655 127.264C421.411 127.264 422.004 127.43 422.435 127.761C422.869 128.093 423.178 128.53 423.36 129.074ZM430.674 129.074L429.62 129.372C429.554 129.196 429.456 129.026 429.327 128.86C429.201 128.691 429.029 128.552 428.81 128.442C428.591 128.333 428.311 128.278 427.97 128.278C427.502 128.278 427.113 128.386 426.801 128.602C426.493 128.814 426.339 129.084 426.339 129.412C426.339 129.704 426.445 129.934 426.657 130.103C426.869 130.272 427.201 130.413 427.652 130.526L428.785 130.804C429.468 130.97 429.977 131.223 430.311 131.565C430.646 131.903 430.814 132.339 430.814 132.872C430.814 133.31 430.688 133.701 430.436 134.045C430.187 134.39 429.839 134.662 429.392 134.861C428.944 135.06 428.424 135.159 427.831 135.159C427.052 135.159 426.407 134.99 425.897 134.652C425.386 134.314 425.063 133.82 424.927 133.17L426.041 132.892C426.147 133.303 426.347 133.611 426.642 133.817C426.941 134.022 427.33 134.125 427.811 134.125C428.358 134.125 428.792 134.009 429.113 133.777C429.438 133.542 429.6 133.26 429.6 132.932C429.6 132.667 429.508 132.445 429.322 132.266C429.136 132.083 428.851 131.947 428.467 131.858L427.194 131.56C426.495 131.394 425.981 131.137 425.653 130.789C425.328 130.438 425.166 129.999 425.166 129.472C425.166 129.041 425.287 128.66 425.529 128.328C425.774 127.997 426.107 127.737 426.528 127.548C426.952 127.359 427.433 127.264 427.97 127.264C428.725 127.264 429.319 127.43 429.75 127.761C430.184 128.093 430.492 128.53 430.674 129.074ZM437.392 131.878V127.364H438.566V135H437.392V133.707H437.313C437.134 134.095 436.855 134.425 436.477 134.697C436.1 134.965 435.622 135.099 435.046 135.099C434.568 135.099 434.144 134.995 433.773 134.786C433.402 134.574 433.11 134.256 432.898 133.832C432.686 133.404 432.58 132.866 432.58 132.216V127.364H433.753V132.136C433.753 132.693 433.909 133.137 434.22 133.469C434.535 133.8 434.936 133.966 435.423 133.966C435.715 133.966 436.012 133.891 436.313 133.742C436.618 133.593 436.874 133.364 437.079 133.056C437.288 132.748 437.392 132.355 437.392 131.878ZM443.916 135.159C443.18 135.159 442.546 134.997 442.012 134.672C441.482 134.344 441.072 133.886 440.784 133.3C440.499 132.71 440.357 132.024 440.357 131.241C440.357 130.459 440.499 129.77 440.784 129.173C441.072 128.573 441.473 128.106 441.987 127.771C442.504 127.433 443.107 127.264 443.797 127.264C444.195 127.264 444.587 127.33 444.975 127.463C445.363 127.596 445.716 127.811 446.034 128.109C446.352 128.404 446.606 128.795 446.795 129.283C446.984 129.77 447.078 130.37 447.078 131.082V131.58H441.192V130.565H445.885C445.885 130.134 445.799 129.75 445.626 129.412C445.457 129.074 445.215 128.807 444.901 128.612C444.589 128.416 444.221 128.318 443.797 128.318C443.33 128.318 442.925 128.434 442.584 128.666C442.246 128.895 441.986 129.193 441.803 129.561C441.621 129.929 441.53 130.323 441.53 130.744V131.42C441.53 131.997 441.629 132.486 441.828 132.887C442.03 133.285 442.31 133.588 442.668 133.797C443.026 134.002 443.442 134.105 443.916 134.105C444.224 134.105 444.503 134.062 444.751 133.976C445.003 133.886 445.22 133.754 445.403 133.578C445.585 133.399 445.726 133.177 445.825 132.912L446.959 133.23C446.839 133.615 446.639 133.953 446.357 134.244C446.076 134.533 445.728 134.758 445.313 134.92C444.899 135.08 444.433 135.159 443.916 135.159ZM454.272 129.074L453.218 129.372C453.152 129.196 453.054 129.026 452.925 128.86C452.799 128.691 452.626 128.552 452.408 128.442C452.189 128.333 451.909 128.278 451.567 128.278C451.1 128.278 450.711 128.386 450.399 128.602C450.091 128.814 449.937 129.084 449.937 129.412C449.937 129.704 450.043 129.934 450.255 130.103C450.467 130.272 450.799 130.413 451.249 130.526L452.383 130.804C453.066 130.97 453.574 131.223 453.909 131.565C454.244 131.903 454.411 132.339 454.411 132.872C454.411 133.31 454.285 133.701 454.033 134.045C453.785 134.39 453.437 134.662 452.989 134.861C452.542 135.06 452.022 135.159 451.428 135.159C450.649 135.159 450.005 134.99 449.494 134.652C448.984 134.314 448.661 133.82 448.525 133.17L449.638 132.892C449.745 133.303 449.945 133.611 450.24 133.817C450.538 134.022 450.928 134.125 451.408 134.125C451.955 134.125 452.389 134.009 452.711 133.777C453.036 133.542 453.198 133.26 453.198 132.932C453.198 132.667 453.105 132.445 452.92 132.266C452.734 132.083 452.449 131.947 452.065 131.858L450.792 131.56C450.093 131.394 449.579 131.137 449.251 130.789C448.926 130.438 448.763 129.999 448.763 129.472C448.763 129.041 448.884 128.66 449.126 128.328C449.372 127.997 449.705 127.737 450.126 127.548C450.55 127.359 451.031 127.264 451.567 127.264C452.323 127.264 452.916 127.43 453.347 127.761C453.781 128.093 454.09 128.53 454.272 129.074Z" fill="#475467"/>
</svg>
