<svg width="48" height="48" viewBox="0 0 48 48" fill="none" xmlns="http://www.w3.org/2000/svg">
<rect width="48" height="48" rx="24" fill="#F6F8FA"/>
<path d="M26 26.252V28.342C25.0949 28.022 24.1263 27.9239 23.1754 28.0558C22.2245 28.1877 21.3192 28.5459 20.5354 29.1002C19.7517 29.6545 19.1123 30.3888 18.6712 31.2414C18.23 32.094 17.9998 33.04 18 34L16 33.999C15.9997 32.7779 16.2789 31.5729 16.8163 30.4764C17.3537 29.3799 18.1349 28.4209 19.1002 27.673C20.0655 26.9251 21.1892 26.4081 22.3852 26.1616C23.5811 25.9152 24.8177 25.9457 26 26.251V26.252ZM24 25C20.685 25 18 22.315 18 19C18 15.685 20.685 13 24 13C27.315 13 30 15.685 30 19C30 22.315 27.315 25 24 25ZM24 23C26.21 23 28 21.21 28 19C28 16.79 26.21 15 24 15C21.79 15 20 16.79 20 19C20 21.21 21.79 23 24 23ZM30 29V26H32V29H35V31H32V34H30V31H27V29H30Z" fill="#525866"/>
</svg>
