<svg width="48" height="48" viewBox="0 0 48 48" fill="none" xmlns="http://www.w3.org/2000/svg">
<rect width="48" height="48" rx="24" fill="#F6F8FA"/>
<path d="M15.3401 28.9998C14.9173 28.2688 14.5887 27.4873 14.3621 26.6738C14.8554 26.4229 15.2697 26.0404 15.5591 25.5687C15.8485 25.097 16.0018 24.5544 16.002 24.0009C16.0022 23.4475 15.8493 22.9048 15.5603 22.4328C15.2712 21.9609 14.8572 21.5781 14.3641 21.3268C14.8161 19.6923 15.6768 18.1998 16.8651 16.9898C17.3292 17.2915 17.8677 17.459 18.421 17.4736C18.9744 17.4882 19.521 17.3495 20.0004 17.0727C20.4798 16.7959 20.8732 16.3918 21.1372 15.9053C21.4012 15.4187 21.5254 14.8686 21.4961 14.3158C23.1382 13.8914 24.8613 13.8921 26.5031 14.3178C26.474 14.8706 26.5985 15.4206 26.8626 15.907C27.1268 16.3935 27.5204 16.7973 27.9999 17.0739C28.4794 17.3505 29.026 17.489 29.5793 17.4742C30.1327 17.4593 30.6711 17.2917 31.1351 16.9898C31.7141 17.5798 32.2281 18.2508 32.6601 18.9998C33.0931 19.7488 33.4171 20.5298 33.6381 21.3258C33.1448 21.5767 32.7305 21.9592 32.441 22.4309C32.1516 22.9027 31.9983 23.4453 31.9981 23.9987C31.9979 24.5522 32.1508 25.0949 32.4399 25.5668C32.7289 26.0388 33.1429 26.4216 33.6361 26.6728C33.184 28.3073 32.3233 29.7999 31.1351 31.0098C30.671 30.7081 30.1324 30.5407 29.5791 30.526C29.0257 30.5114 28.4791 30.6502 27.9997 30.927C27.5204 31.2038 27.1269 31.6078 26.8629 32.0944C26.599 32.5809 26.4748 33.131 26.5041 33.6838C24.862 34.1082 23.1388 34.1075 21.4971 33.6818C21.5261 33.1291 21.4017 32.579 21.1375 32.0926C20.8733 31.6062 20.4797 31.2023 20.0002 30.9258C19.5208 30.6492 18.9741 30.5106 18.4208 30.5255C17.8675 30.5403 17.329 30.7079 16.8651 31.0098C16.2741 30.4068 15.7617 29.7314 15.3401 28.9998ZM21.0001 29.1958C22.0657 29.8105 22.8669 30.7968 23.2501 31.9658C23.7491 32.0128 24.2501 32.0138 24.7491 31.9668C25.1325 30.7977 25.9341 29.8113 27.0001 29.1968C28.0653 28.5805 29.3206 28.3793 30.5251 28.6318C30.8151 28.2238 31.0651 27.7888 31.2731 27.3338C30.4525 26.4173 29.9992 25.23 30.0001 23.9998C30.0001 22.7398 30.4701 21.5628 31.2731 20.6658C31.0636 20.211 30.8125 19.7765 30.5231 19.3678C29.3193 19.6201 28.0649 19.4193 27.0001 18.8038C25.9344 18.1892 25.1332 17.2028 24.7501 16.0338C24.2511 15.9868 23.7501 15.9858 23.2511 16.0328C22.8677 17.202 22.0661 18.1884 21.0001 18.8028C19.9348 19.4191 18.6795 19.6203 17.4751 19.3678C17.1856 19.7761 16.9352 20.2107 16.7271 20.6658C17.5476 21.5824 18.0009 22.7696 18.0001 23.9998C18.0001 25.2598 17.5301 26.4368 16.7271 27.3338C16.9365 27.7887 17.1876 28.2232 17.4771 28.6318C18.6808 28.3795 19.9353 28.5803 21.0001 29.1958ZM24.0001 26.9998C23.2044 26.9998 22.4413 26.6838 21.8787 26.1211C21.3161 25.5585 21.0001 24.7955 21.0001 23.9998C21.0001 23.2042 21.3161 22.4411 21.8787 21.8785C22.4413 21.3159 23.2044 20.9998 24.0001 20.9998C24.7957 20.9998 25.5588 21.3159 26.1214 21.8785C26.684 22.4411 27.0001 23.2042 27.0001 23.9998C27.0001 24.7955 26.684 25.5585 26.1214 26.1211C25.5588 26.6838 24.7957 26.9998 24.0001 26.9998ZM24.0001 24.9998C24.2653 24.9998 24.5196 24.8945 24.7072 24.7069C24.8947 24.5194 25.0001 24.265 25.0001 23.9998C25.0001 23.7346 24.8947 23.4803 24.7072 23.2927C24.5196 23.1052 24.2653 22.9998 24.0001 22.9998C23.7348 22.9998 23.4805 23.1052 23.293 23.2927C23.1054 23.4803 23.0001 23.7346 23.0001 23.9998C23.0001 24.265 23.1054 24.5194 23.293 24.7069C23.4805 24.8945 23.7348 24.9998 24.0001 24.9998Z" fill="#525866"/>
</svg>
