<svg width="40" height="40" viewBox="0 0 40 40" fill="none" xmlns="http://www.w3.org/2000/svg">
<rect x="0.555556" y="0.555556" width="38.8889" height="38.8889" rx="19.4444" fill="white"/>
<rect x="0.555556" y="0.555556" width="38.8889" height="38.8889" rx="19.4444" stroke="#E2E4E9" stroke-width="1.11111"/>
<path d="M20.3334 21.2775L24.5001 26.8333C24.5465 26.8952 24.5748 26.9688 24.5817 27.0459C24.5887 27.123 24.574 27.2005 24.5394 27.2697C24.5048 27.3389 24.4516 27.3971 24.3858 27.4378C24.32 27.4785 24.2441 27.5 24.1668 27.5H15.8334C15.7561 27.5 15.6802 27.4785 15.6144 27.4378C15.5486 27.3971 15.4954 27.3389 15.4608 27.2697C15.4261 27.2005 15.4115 27.123 15.4184 27.0459C15.4254 26.9688 15.4537 26.8952 15.5001 26.8333L19.6668 21.2775C19.7056 21.2258 19.7559 21.1838 19.8138 21.1548C19.8716 21.1259 19.9354 21.1108 20.0001 21.1108C20.0648 21.1108 20.1286 21.1259 20.1864 21.1548C20.2443 21.1838 20.2946 21.2258 20.3334 21.2775ZM25.0001 25.8333V24.1667H26.6668V14.1667H13.3334V24.1667H15.0001V25.8333H12.4934C12.3844 25.8331 12.2764 25.8114 12.1758 25.7693C12.0752 25.7273 11.9838 25.6658 11.907 25.5884C11.8302 25.5109 11.7694 25.4191 11.7282 25.3181C11.687 25.2172 11.6661 25.1091 11.6668 25V13.3333C11.6668 12.8733 12.0459 12.5 12.4934 12.5H27.5068C27.9634 12.5 28.3334 12.8708 28.3334 13.3333V25C28.3334 25.46 27.9543 25.8333 27.5068 25.8333H25.0001Z" fill="#356D00"/>
</svg>
