<svg width="41" height="40" viewBox="0 0 41 40" fill="none" xmlns="http://www.w3.org/2000/svg">
<rect x="1.2223" y="0.555556" width="38.8889" height="38.8889" rx="19.4444" fill="white"/>
<rect x="1.2223" y="0.555556" width="38.8889" height="38.8889" rx="19.4444" stroke="#E2E4E9" stroke-width="1.11111"/>
<path d="M14.8334 20.4167C14.8334 20.6775 15.2176 21.1317 16.1084 21.5775C17.2617 22.1542 18.8976 22.5 20.6667 22.5C22.4359 22.5 24.0717 22.1542 25.2251 21.5775C26.1159 21.1317 26.5001 20.6775 26.5001 20.4167V18.6075C25.1251 19.4575 23.0226 20 20.6667 20C18.3109 20 16.2084 19.4567 14.8334 18.6075V20.4167ZM26.5001 22.7742C25.1251 23.6242 23.0226 24.1667 20.6667 24.1667C18.3109 24.1667 16.2084 23.6233 14.8334 22.7742V24.5833C14.8334 24.8442 15.2176 25.2983 16.1084 25.7442C17.2617 26.3208 18.8976 26.6667 20.6667 26.6667C22.4359 26.6667 24.0717 26.3208 25.2251 25.7442C26.1159 25.2983 26.5001 24.8442 26.5001 24.5833V22.7742ZM13.1667 24.5833V16.25C13.1667 14.1792 16.5251 12.5 20.6667 12.5C24.8084 12.5 28.1667 14.1792 28.1667 16.25V24.5833C28.1667 26.6542 24.8084 28.3333 20.6667 28.3333C16.5251 28.3333 13.1667 26.6542 13.1667 24.5833ZM20.6667 18.3333C22.4359 18.3333 24.0717 17.9875 25.2251 17.4108C26.1159 16.965 26.5001 16.5108 26.5001 16.25C26.5001 15.9892 26.1159 15.535 25.2251 15.0892C24.0717 14.5125 22.4359 14.1667 20.6667 14.1667C18.8976 14.1667 17.2617 14.5125 16.1084 15.0892C15.2176 15.535 14.8334 15.9892 14.8334 16.25C14.8334 16.5108 15.2176 16.965 16.1084 17.4108C17.2617 17.9875 18.8976 18.3333 20.6667 18.3333Z" fill="#356D00"/>
</svg>
