<svg width="49" height="48" viewBox="0 0 49 48" fill="none" xmlns="http://www.w3.org/2000/svg">
<path d="M24.5 3C12.8975 3 3.5 12.3975 3.5 24C3.5 33.2925 9.51125 41.1413 17.8587 43.9238C18.9087 44.1075 19.3025 43.4775 19.3025 42.9263C19.3025 42.4275 19.2763 40.7738 19.2763 39.015C14 39.9863 12.635 37.7287 12.215 36.5475C11.9788 35.9437 10.955 34.08 10.0625 33.5812C9.3275 33.1875 8.2775 32.2162 10.0363 32.19C11.69 32.1637 12.8713 33.7125 13.265 34.3425C15.155 37.5187 18.1738 36.6263 19.3813 36.075C19.565 34.71 20.1162 33.7913 20.72 33.2662C16.0475 32.7412 11.165 30.93 11.165 22.8975C11.165 20.6138 11.9788 18.7237 13.3175 17.2537C13.1075 16.7287 12.3725 14.5763 13.5275 11.6888C13.5275 11.6888 15.2863 11.1375 19.3025 13.8413C20.9825 13.3688 22.7675 13.1325 24.5525 13.1325C26.3375 13.1325 28.1225 13.3688 29.8025 13.8413C33.8188 11.1112 35.5775 11.6888 35.5775 11.6888C36.7325 14.5763 35.9975 16.7287 35.7875 17.2537C37.1263 18.7237 37.94 20.5875 37.94 22.8975C37.94 30.9562 33.0312 32.7412 28.3588 33.2662C29.12 33.9225 29.7763 35.1825 29.7763 37.1512C29.7763 39.96 29.75 42.2175 29.75 42.9263C29.75 43.4775 30.1438 44.1338 31.1938 43.9238C35.3626 42.5164 38.9852 39.8371 41.5516 36.263C44.1179 32.6889 45.4989 28.4 45.5 24C45.5 12.3975 36.1025 3 24.5 3Z" fill="black"/>
</svg>
