<svg width="20" height="20" viewBox="0 0 20 20" fill="none" xmlns="http://www.w3.org/2000/svg">
<path d="M10.0001 18.3333C5.39758 18.3333 1.66675 14.6025 1.66675 9.99996C1.66675 5.39746 5.39758 1.66663 10.0001 1.66663C14.6026 1.66663 18.3334 5.39746 18.3334 9.99996C18.3334 14.6025 14.6026 18.3333 10.0001 18.3333ZM10.0001 16.6666C11.7682 16.6666 13.4639 15.9642 14.7141 14.714C15.9644 13.4638 16.6667 11.7681 16.6667 9.99996C16.6667 8.23185 15.9644 6.53616 14.7141 5.28591C13.4639 4.03567 11.7682 3.33329 10.0001 3.33329C8.23197 3.33329 6.53628 4.03567 5.28604 5.28591C4.03579 6.53616 3.33341 8.23185 3.33341 9.99996C3.33341 11.7681 4.03579 13.4638 5.28604 14.714C6.53628 15.9642 8.23197 16.6666 10.0001 16.6666ZM9.16675 12.5H10.8334V14.1666H9.16675V12.5ZM10.8334 11.1291V11.6666H9.16675V10.4166C9.16675 10.1956 9.25455 9.98365 9.41083 9.82737C9.56711 9.67109 9.77907 9.58329 10.0001 9.58329C10.2368 9.58328 10.4687 9.51604 10.6687 9.3894C10.8687 9.26276 11.0286 9.08193 11.1299 8.86795C11.2311 8.65396 11.2696 8.41562 11.2406 8.18066C11.2117 7.9457 11.1167 7.72378 10.9666 7.54072C10.8165 7.35766 10.6175 7.22098 10.3928 7.1466C10.168 7.07222 9.92678 7.06318 9.6971 7.12055C9.46743 7.17791 9.25876 7.29932 9.09539 7.47064C8.93201 7.64196 8.82065 7.85615 8.77425 8.08829L7.13925 7.76079C7.24061 7.2542 7.47467 6.7836 7.81751 6.39711C8.16036 6.01063 8.59968 5.72211 9.09057 5.56106C9.58146 5.40001 10.1063 5.3722 10.6115 5.48047C11.1166 5.58875 11.584 5.82922 11.9658 6.17731C12.3475 6.52541 12.63 6.96863 12.7843 7.46168C12.9387 7.95473 12.9593 8.47991 12.8441 8.98355C12.729 9.48719 12.4821 9.95121 12.1288 10.3282C11.7756 10.7052 11.3285 10.9816 10.8334 11.1291Z" fill="#868C98"/>
<circle cx="10.0001" cy="9.99996" r="5.83333" fill="#F6F8FA"/>
<path fill-rule="evenodd" clip-rule="evenodd" d="M7.32386 10.6858V9.86883H6.66699V8.50717H7.32386V6.66663H7.6866H8.56895H8.71601L9.86408 8.50717H11.6173L11.5984 6.66663H12.9121V8.50717H13.7476V9.86883H12.9121V10.6858H13.7476V12.0475H12.9121V13.3333H12.5592H11.667H11.5297L10.7257 12.0475H8.63226L8.64739 13.3333H7.32386V12.0475H6.66699V10.6858H7.32386ZM8.61624 10.6858H9.87426L9.36337 9.86883H8.60663L8.61624 10.6858ZM11.6397 10.6858H11.2162L11.1866 10.6274L10.7134 9.86883H11.6313L11.6397 10.6858ZM8.61684 8.50717H8.59061L8.58998 8.45403L8.61684 8.50717Z" fill="#868C98"/>
</svg>
