<svg width="114" height="87" viewBox="0 0 114 87" fill="none" xmlns="http://www.w3.org/2000/svg">
<path d="M87.7201 -15.404C89.0004 -17.9174 91.5825 -19.5 94.4032 -19.5H157.447C163.047 -19.5 166.672 -13.5858 164.13 -8.59602L117.78 82.404C116.5 84.9174 113.917 86.5 111.097 86.5H48.0527C42.4529 86.5 38.8281 80.5858 41.3697 75.596L87.7201 -15.404Z" stroke="#E2E4E9"/>
<path d="M52.7201 -40.404C54.0004 -42.9174 56.5825 -44.5 59.4032 -44.5H122.447C128.047 -44.5 131.672 -38.5858 129.13 -33.596L82.7798 57.404C81.4996 59.9174 78.9175 61.5 76.0968 61.5H13.0527C7.45293 61.5 3.82815 55.5858 6.36969 50.596L52.7201 -40.404Z" stroke="#E2E4E9"/>
</svg>
