<svg width="20" height="20" viewBox="0 0 20 20" fill="none" xmlns="http://www.w3.org/2000/svg">
<path d="M10.8333 6.66663V13.3333C10.8333 13.9963 10.5699 14.6322 10.1011 15.1011C9.63226 15.5699 8.99638 15.8333 8.33333 15.8333H6.525C6.32841 16.3895 5.9415 16.8584 5.43266 17.1569C4.92382 17.4555 4.32581 17.5645 3.74434 17.4648C3.16287 17.3651 2.63538 17.063 2.25511 16.6119C1.87483 16.1609 1.66626 15.5899 1.66626 15C1.66626 14.41 1.87483 13.839 2.25511 13.388C2.63538 12.9369 3.16287 12.6348 3.74434 12.5351C4.32581 12.4354 4.92382 12.5444 5.43266 12.843C5.9415 13.1415 6.32841 13.6104 6.525 14.1666H8.33333C8.55435 14.1666 8.76631 14.0788 8.92259 13.9225C9.07887 13.7663 9.16667 13.5543 9.16667 13.3333V6.66663C9.16667 6.00358 9.43006 5.3677 9.8989 4.89886C10.3677 4.43002 11.0036 4.16663 11.6667 4.16663H14.1667V1.66663L18.3333 4.99996L14.1667 8.33329V5.83329H11.6667C11.4457 5.83329 11.2337 5.92109 11.0774 6.07737C10.9211 6.23365 10.8333 6.44561 10.8333 6.66663ZM4.16667 15.8333C4.38768 15.8333 4.59964 15.7455 4.75592 15.5892C4.9122 15.4329 5 15.221 5 15C5 14.7789 4.9122 14.567 4.75592 14.4107C4.59964 14.2544 4.38768 14.1666 4.16667 14.1666C3.94565 14.1666 3.73369 14.2544 3.57741 14.4107C3.42113 14.567 3.33333 14.7789 3.33333 15C3.33333 15.221 3.42113 15.4329 3.57741 15.5892C3.73369 15.7455 3.94565 15.8333 4.16667 15.8333Z" fill="#868C98"/>
</svg>
