<svg width="500" height="265" viewBox="0 0 500 265" fill="none" xmlns="http://www.w3.org/2000/svg">
<line x1="2.5" y1="10.5" x2="497.5" y2="10.5" stroke="#F2F4F7" stroke-linecap="round"/>
<line x1="2.5" y1="58" x2="497.5" y2="58" stroke="#F2F4F7" stroke-linecap="round"/>
<line x1="2.5" y1="103" x2="497.5" y2="103" stroke="#F2F4F7" stroke-linecap="round"/>
<line x1="2.5" y1="148" x2="497.5" y2="148" stroke="#F2F4F7" stroke-linecap="round"/>
<line x1="2.5" y1="193" x2="497.5" y2="193" stroke="#F2F4F7" stroke-linecap="round"/>
<line x1="2.5" y1="238" x2="497.5" y2="238" stroke="#F2F4F7" stroke-linecap="round"/>
<path d="M15.1009 251.273H16.1577V257.511C16.1577 258.068 16.0554 258.541 15.8509 258.93C15.6463 259.32 15.358 259.615 14.9858 259.817C14.6136 260.018 14.1747 260.119 13.669 260.119C13.1918 260.119 12.767 260.033 12.3949 259.859C12.0227 259.683 11.7301 259.433 11.517 259.109C11.304 258.786 11.1974 258.401 11.1974 257.955H12.2372C12.2372 258.202 12.2983 258.418 12.4205 258.602C12.5455 258.784 12.7159 258.926 12.9318 259.028C13.1477 259.131 13.3935 259.182 13.669 259.182C13.973 259.182 14.2315 259.118 14.4446 258.99C14.6577 258.862 14.8196 258.675 14.9304 258.428C15.044 258.178 15.1009 257.872 15.1009 257.511V251.273ZM20.0653 260.153C19.6506 260.153 19.2741 260.075 18.9361 259.919C18.598 259.76 18.3295 259.531 18.1307 259.233C17.9318 258.932 17.8324 258.568 17.8324 258.142C17.8324 257.767 17.9063 257.463 18.054 257.23C18.2017 256.994 18.3991 256.81 18.6463 256.676C18.8935 256.543 19.1662 256.443 19.4645 256.378C19.7656 256.31 20.0682 256.256 20.3722 256.216C20.7699 256.165 21.0923 256.126 21.3395 256.101C21.5895 256.072 21.7713 256.026 21.8849 255.96C22.0014 255.895 22.0597 255.781 22.0597 255.619V255.585C22.0597 255.165 21.9446 254.838 21.7145 254.605C21.4872 254.372 21.142 254.256 20.679 254.256C20.1989 254.256 19.8224 254.361 19.5497 254.571C19.277 254.781 19.0852 255.006 18.9744 255.244L18.0199 254.903C18.1903 254.506 18.4176 254.196 18.7017 253.974C18.9886 253.75 19.3011 253.594 19.6392 253.506C19.9801 253.415 20.3153 253.369 20.6449 253.369C20.8551 253.369 21.0966 253.395 21.3693 253.446C21.6449 253.494 21.9105 253.595 22.1662 253.749C22.4247 253.902 22.6392 254.134 22.8097 254.443C22.9801 254.753 23.0653 255.168 23.0653 255.688V260H22.0597V259.114H22.0085C21.9403 259.256 21.8267 259.408 21.6676 259.57C21.5085 259.732 21.2969 259.869 21.0327 259.983C20.7685 260.097 20.446 260.153 20.0653 260.153ZM20.2188 259.25C20.6165 259.25 20.9517 259.172 21.2244 259.016C21.5 258.859 21.7074 258.658 21.8466 258.411C21.9886 258.163 22.0597 257.903 22.0597 257.631V256.71C22.017 256.761 21.9233 256.808 21.7784 256.851C21.6364 256.891 21.4716 256.926 21.2841 256.957C21.0994 256.986 20.919 257.011 20.7429 257.034C20.5696 257.054 20.429 257.071 20.321 257.085C20.0597 257.119 19.8153 257.175 19.5881 257.251C19.3636 257.325 19.1818 257.437 19.0426 257.588C18.9063 257.736 18.8381 257.937 18.8381 258.193C18.8381 258.543 18.9673 258.807 19.2259 258.986C19.4872 259.162 19.8182 259.25 20.2188 259.25ZM25.9066 256.062V260H24.9009V253.455H25.8725V254.477H25.9577C26.1112 254.145 26.3441 253.878 26.6566 253.676C26.9691 253.472 27.3725 253.369 27.8668 253.369C28.31 253.369 28.6978 253.46 29.0302 253.642C29.3626 253.821 29.6211 254.094 29.8058 254.46C29.9904 254.824 30.0827 255.284 30.0827 255.841V260H29.0771V255.909C29.0771 255.395 28.9435 254.994 28.6765 254.707C28.4094 254.418 28.043 254.273 27.5771 254.273C27.256 254.273 26.9691 254.342 26.7163 254.482C26.4663 254.621 26.2688 254.824 26.1239 255.091C25.979 255.358 25.9066 255.682 25.9066 256.062Z" fill="#475467"/>
<path d="M86.8212 251.273H88.0826L91.0485 258.517H91.1508L94.1167 251.273H95.378V260H94.3894V253.369H94.3042L91.5769 260H90.6224L87.8951 253.369H87.8099V260H86.8212V251.273ZM99.2868 260.153C98.872 260.153 98.4956 260.075 98.1575 259.919C97.8194 259.76 97.551 259.531 97.3521 259.233C97.1533 258.932 97.0538 258.568 97.0538 258.142C97.0538 257.767 97.1277 257.463 97.2754 257.23C97.4231 256.994 97.6206 256.81 97.8677 256.676C98.1149 256.543 98.3876 256.443 98.6859 256.378C98.9871 256.31 99.2896 256.256 99.5936 256.216C99.9913 256.165 100.314 256.126 100.561 256.101C100.811 256.072 100.993 256.026 101.106 255.96C101.223 255.895 101.281 255.781 101.281 255.619V255.585C101.281 255.165 101.166 254.838 100.936 254.605C100.709 254.372 100.363 254.256 99.9004 254.256C99.4203 254.256 99.0439 254.361 98.7712 254.571C98.4984 254.781 98.3067 255.006 98.1959 255.244L97.2413 254.903C97.4118 254.506 97.639 254.196 97.9231 253.974C98.2101 253.75 98.5226 253.594 98.8606 253.506C99.2015 253.415 99.5368 253.369 99.8663 253.369C100.077 253.369 100.318 253.395 100.591 253.446C100.866 253.494 101.132 253.595 101.388 253.749C101.646 253.902 101.861 254.134 102.031 254.443C102.202 254.753 102.287 255.168 102.287 255.688V260H101.281V259.114H101.23C101.162 259.256 101.048 259.408 100.889 259.57C100.73 259.732 100.518 259.869 100.254 259.983C99.9899 260.097 99.6675 260.153 99.2868 260.153ZM99.4402 259.25C99.8379 259.25 100.173 259.172 100.446 259.016C100.721 258.859 100.929 258.658 101.068 258.411C101.21 258.163 101.281 257.903 101.281 257.631V256.71C101.238 256.761 101.145 256.808 101 256.851C100.858 256.891 100.693 256.926 100.506 256.957C100.321 256.986 100.14 257.011 99.9643 257.034C99.791 257.054 99.6504 257.071 99.5425 257.085C99.2811 257.119 99.0368 257.175 98.8095 257.251C98.5851 257.325 98.4033 257.437 98.264 257.588C98.1277 257.736 98.0595 257.937 98.0595 258.193C98.0595 258.543 98.1888 258.807 98.4473 258.986C98.7087 259.162 99.0396 259.25 99.4402 259.25ZM104.122 260V253.455H105.094V254.443H105.162C105.281 254.119 105.497 253.857 105.81 253.655C106.122 253.453 106.475 253.352 106.867 253.352C106.941 253.352 107.033 253.354 107.144 253.357C107.254 253.359 107.338 253.364 107.395 253.369V254.392C107.361 254.384 107.283 254.371 107.161 254.354C107.041 254.334 106.915 254.324 106.781 254.324C106.463 254.324 106.179 254.391 105.929 254.524C105.682 254.655 105.486 254.837 105.341 255.07C105.199 255.3 105.128 255.562 105.128 255.858V260H104.122Z" fill="#475467"/>
<path d="M163.507 251.273H164.769L167.735 258.517H167.837L170.803 251.273H172.064V260H171.075V253.369H170.99L168.263 260H167.308L164.581 253.369H164.496V260H163.507V251.273ZM175.973 260.153C175.558 260.153 175.182 260.075 174.844 259.919C174.505 259.76 174.237 259.531 174.038 259.233C173.839 258.932 173.74 258.568 173.74 258.142C173.74 257.767 173.814 257.463 173.961 257.23C174.109 256.994 174.307 256.81 174.554 256.676C174.801 256.543 175.074 256.443 175.372 256.378C175.673 256.31 175.976 256.256 176.28 256.216C176.677 256.165 177 256.126 177.247 256.101C177.497 256.072 177.679 256.026 177.792 255.96C177.909 255.895 177.967 255.781 177.967 255.619V255.585C177.967 255.165 177.852 254.838 177.622 254.605C177.395 254.372 177.05 254.256 176.586 254.256C176.106 254.256 175.73 254.361 175.457 254.571C175.184 254.781 174.993 255.006 174.882 255.244L173.927 254.903C174.098 254.506 174.325 254.196 174.609 253.974C174.896 253.75 175.209 253.594 175.547 253.506C175.888 253.415 176.223 253.369 176.552 253.369C176.763 253.369 177.004 253.395 177.277 253.446C177.552 253.494 177.818 253.595 178.074 253.749C178.332 253.902 178.547 254.134 178.717 254.443C178.888 254.753 178.973 255.168 178.973 255.688V260H177.967V259.114H177.916C177.848 259.256 177.734 259.408 177.575 259.57C177.416 259.732 177.204 259.869 176.94 259.983C176.676 260.097 176.353 260.153 175.973 260.153ZM176.126 259.25C176.524 259.25 176.859 259.172 177.132 259.016C177.407 258.859 177.615 258.658 177.754 258.411C177.896 258.163 177.967 257.903 177.967 257.631V256.71C177.925 256.761 177.831 256.808 177.686 256.851C177.544 256.891 177.379 256.926 177.192 256.957C177.007 256.986 176.827 257.011 176.65 257.034C176.477 257.054 176.336 257.071 176.228 257.085C175.967 257.119 175.723 257.175 175.496 257.251C175.271 257.325 175.089 257.437 174.95 257.588C174.814 257.736 174.746 257.937 174.746 258.193C174.746 258.543 174.875 258.807 175.133 258.986C175.395 259.162 175.726 259.25 176.126 259.25ZM181.222 262.455C181.051 262.455 180.899 262.44 180.766 262.412C180.632 262.386 180.54 262.361 180.489 262.335L180.744 261.449C180.989 261.511 181.205 261.534 181.392 261.517C181.58 261.5 181.746 261.416 181.891 261.266C182.039 261.118 182.173 260.878 182.296 260.545L182.483 260.034L180.063 253.455H181.154L182.96 258.67H183.029L184.835 253.455H185.926L183.148 260.955C183.023 261.293 182.868 261.572 182.683 261.794C182.499 262.018 182.284 262.185 182.04 262.293C181.798 262.401 181.526 262.455 181.222 262.455Z" fill="#475467"/>
<path d="M246.062 251.273H247.119V257.511C247.119 258.068 247.016 258.541 246.812 258.93C246.607 259.32 246.319 259.615 245.947 259.817C245.575 260.018 245.136 260.119 244.63 260.119C244.153 260.119 243.728 260.033 243.356 259.859C242.984 259.683 242.691 259.433 242.478 259.109C242.265 258.786 242.158 258.401 242.158 257.955H243.198C243.198 258.202 243.259 258.418 243.381 258.602C243.506 258.784 243.677 258.926 243.893 259.028C244.109 259.131 244.354 259.182 244.63 259.182C244.934 259.182 245.192 259.118 245.406 258.99C245.619 258.862 245.781 258.675 245.891 258.428C246.005 258.178 246.062 257.872 246.062 257.511V251.273ZM253.225 257.324V253.455H254.231V260H253.225V258.892H253.157C253.004 259.224 252.765 259.507 252.441 259.74C252.117 259.97 251.708 260.085 251.214 260.085C250.805 260.085 250.441 259.996 250.123 259.817C249.805 259.635 249.555 259.362 249.373 258.999C249.191 258.632 249.1 258.17 249.1 257.614V253.455H250.106V257.545C250.106 258.023 250.239 258.403 250.506 258.688C250.776 258.972 251.12 259.114 251.538 259.114C251.788 259.114 252.042 259.05 252.3 258.922C252.562 258.794 252.781 258.598 252.957 258.334C253.136 258.07 253.225 257.733 253.225 257.324ZM257.078 251.273V260H256.073V251.273H257.078Z" fill="#475467"/>
<path d="M318.547 253.455C318.496 253.023 318.289 252.688 317.925 252.449C317.561 252.21 317.115 252.091 316.587 252.091C316.2 252.091 315.862 252.153 315.573 252.278C315.286 252.403 315.061 252.575 314.899 252.794C314.74 253.013 314.661 253.261 314.661 253.54C314.661 253.773 314.716 253.973 314.827 254.141C314.941 254.305 315.085 254.443 315.262 254.554C315.438 254.662 315.622 254.751 315.816 254.822C316.009 254.891 316.186 254.946 316.348 254.989L317.235 255.227C317.462 255.287 317.715 255.369 317.993 255.474C318.274 255.58 318.543 255.723 318.798 255.905C319.057 256.084 319.27 256.314 319.438 256.595C319.605 256.876 319.689 257.222 319.689 257.631C319.689 258.102 319.566 258.528 319.318 258.909C319.074 259.29 318.716 259.592 318.245 259.817C317.776 260.041 317.206 260.153 316.536 260.153C315.911 260.153 315.37 260.053 314.912 259.851C314.458 259.649 314.1 259.368 313.838 259.007C313.58 258.646 313.433 258.227 313.399 257.75H314.49C314.519 258.08 314.629 258.352 314.823 258.568C315.019 258.781 315.266 258.94 315.564 259.045C315.865 259.148 316.189 259.199 316.536 259.199C316.939 259.199 317.301 259.134 317.622 259.003C317.943 258.869 318.198 258.685 318.385 258.449C318.573 258.21 318.666 257.932 318.666 257.614C318.666 257.324 318.585 257.088 318.423 256.906C318.262 256.724 318.048 256.577 317.784 256.463C317.52 256.349 317.235 256.25 316.928 256.165L315.854 255.858C315.172 255.662 314.632 255.382 314.235 255.018C313.837 254.655 313.638 254.179 313.638 253.591C313.638 253.102 313.77 252.676 314.034 252.312C314.301 251.946 314.659 251.662 315.108 251.46C315.56 251.256 316.064 251.153 316.621 251.153C317.183 251.153 317.683 251.254 318.121 251.456C318.558 251.655 318.905 251.928 319.161 252.274C319.419 252.621 319.556 253.014 319.57 253.455H318.547ZM324.035 260.136C323.404 260.136 322.86 259.997 322.403 259.719C321.948 259.438 321.597 259.045 321.35 258.543C321.106 258.037 320.984 257.449 320.984 256.778C320.984 256.108 321.106 255.517 321.35 255.006C321.597 254.491 321.941 254.091 322.381 253.804C322.824 253.514 323.341 253.369 323.932 253.369C324.273 253.369 324.61 253.426 324.942 253.54C325.275 253.653 325.577 253.838 325.85 254.094C326.123 254.347 326.34 254.682 326.502 255.099C326.664 255.517 326.745 256.031 326.745 256.642V257.068H321.699V256.199H325.722C325.722 255.83 325.648 255.5 325.501 255.21C325.356 254.92 325.148 254.692 324.878 254.524C324.611 254.357 324.296 254.273 323.932 254.273C323.532 254.273 323.185 254.372 322.893 254.571C322.603 254.767 322.38 255.023 322.224 255.338C322.067 255.653 321.989 255.991 321.989 256.352V256.932C321.989 257.426 322.074 257.845 322.245 258.189C322.418 258.53 322.658 258.79 322.965 258.969C323.272 259.145 323.628 259.233 324.035 259.233C324.299 259.233 324.537 259.196 324.751 259.122C324.966 259.045 325.153 258.932 325.309 258.781C325.465 258.628 325.586 258.437 325.671 258.21L326.643 258.483C326.54 258.812 326.368 259.102 326.127 259.352C325.885 259.599 325.587 259.793 325.232 259.932C324.877 260.068 324.478 260.136 324.035 260.136ZM328.275 262.455V253.455H329.246V254.494H329.366C329.439 254.381 329.542 254.236 329.672 254.06C329.806 253.881 329.996 253.722 330.243 253.582C330.493 253.44 330.832 253.369 331.258 253.369C331.809 253.369 332.295 253.507 332.715 253.783C333.135 254.058 333.464 254.449 333.699 254.955C333.935 255.46 334.053 256.057 334.053 256.744C334.053 257.438 333.935 258.038 333.699 258.547C333.464 259.053 333.137 259.445 332.719 259.723C332.302 259.999 331.82 260.136 331.275 260.136C330.854 260.136 330.518 260.067 330.265 259.928C330.012 259.786 329.817 259.625 329.681 259.446C329.545 259.264 329.439 259.114 329.366 258.994H329.28V262.455H328.275ZM329.263 256.727C329.263 257.222 329.336 257.658 329.481 258.036C329.626 258.411 329.837 258.705 330.116 258.918C330.394 259.128 330.735 259.233 331.138 259.233C331.559 259.233 331.91 259.122 332.191 258.901C332.475 258.676 332.688 258.375 332.83 257.997C332.975 257.616 333.047 257.193 333.047 256.727C333.047 256.267 332.976 255.852 332.834 255.483C332.695 255.111 332.484 254.817 332.199 254.601C331.918 254.382 331.564 254.273 331.138 254.273C330.729 254.273 330.385 254.376 330.107 254.584C329.829 254.788 329.618 255.075 329.476 255.445C329.334 255.811 329.263 256.239 329.263 256.727Z" fill="#475467"/>
<path d="M397.67 251.273V260H396.647L391.892 253.148H391.807V260H390.75V251.273H391.772L396.545 258.142H396.63V251.273H397.67ZM402.308 260.136C401.717 260.136 401.198 259.996 400.752 259.714C400.309 259.433 399.962 259.04 399.712 258.534C399.465 258.028 399.342 257.437 399.342 256.761C399.342 256.08 399.465 255.484 399.712 254.976C399.962 254.467 400.309 254.072 400.752 253.791C401.198 253.51 401.717 253.369 402.308 253.369C402.898 253.369 403.416 253.51 403.859 253.791C404.305 254.072 404.651 254.467 404.898 254.976C405.148 255.484 405.273 256.08 405.273 256.761C405.273 257.437 405.148 258.028 404.898 258.534C404.651 259.04 404.305 259.433 403.859 259.714C403.416 259.996 402.898 260.136 402.308 260.136ZM402.308 259.233C402.756 259.233 403.126 259.118 403.416 258.888C403.705 258.658 403.92 258.355 404.059 257.98C404.198 257.605 404.268 257.199 404.268 256.761C404.268 256.324 404.198 255.916 404.059 255.538C403.92 255.161 403.705 254.855 403.416 254.622C403.126 254.389 402.756 254.273 402.308 254.273C401.859 254.273 401.489 254.389 401.2 254.622C400.91 254.855 400.695 255.161 400.556 255.538C400.417 255.916 400.347 256.324 400.347 256.761C400.347 257.199 400.417 257.605 400.556 257.98C400.695 258.355 400.91 258.658 401.2 258.888C401.489 259.118 401.859 259.233 402.308 259.233ZM411.927 253.455L409.506 260H408.483L406.063 253.455H407.154L408.961 258.67H409.029L410.836 253.455H411.927Z" fill="#475467"/>
<path d="M471.438 260H468.744V251.273H471.557C472.403 251.273 473.128 251.447 473.73 251.797C474.332 252.143 474.794 252.642 475.115 253.293C475.436 253.94 475.597 254.716 475.597 255.619C475.597 256.528 475.435 257.311 475.111 257.967C474.787 258.621 474.315 259.124 473.696 259.476C473.077 259.825 472.324 260 471.438 260ZM469.801 259.062H471.369C472.091 259.062 472.689 258.923 473.163 258.645C473.638 258.366 473.991 257.97 474.224 257.456C474.457 256.942 474.574 256.33 474.574 255.619C474.574 254.915 474.459 254.308 474.229 253.8C473.999 253.288 473.655 252.896 473.197 252.624C472.74 252.348 472.17 252.21 471.489 252.21H469.801V259.062ZM479.977 260.136C479.347 260.136 478.803 259.997 478.345 259.719C477.891 259.438 477.54 259.045 477.293 258.543C477.048 258.037 476.926 257.449 476.926 256.778C476.926 256.108 477.048 255.517 477.293 255.006C477.54 254.491 477.884 254.091 478.324 253.804C478.767 253.514 479.284 253.369 479.875 253.369C480.216 253.369 480.553 253.426 480.885 253.54C481.217 253.653 481.52 253.838 481.793 254.094C482.065 254.347 482.283 254.682 482.445 255.099C482.607 255.517 482.688 256.031 482.688 256.642V257.068H477.642V256.199H481.665C481.665 255.83 481.591 255.5 481.443 255.21C481.298 254.92 481.091 254.692 480.821 254.524C480.554 254.357 480.239 254.273 479.875 254.273C479.474 254.273 479.128 254.372 478.835 254.571C478.545 254.767 478.322 255.023 478.166 255.338C478.01 255.653 477.932 255.991 477.932 256.352V256.932C477.932 257.426 478.017 257.845 478.188 258.189C478.361 258.53 478.601 258.79 478.908 258.969C479.214 259.145 479.571 259.233 479.977 259.233C480.241 259.233 480.48 259.196 480.693 259.122C480.909 259.045 481.095 258.932 481.251 258.781C481.408 258.628 481.528 258.437 481.614 258.21L482.585 258.483C482.483 258.812 482.311 259.102 482.07 259.352C481.828 259.599 481.53 259.793 481.175 259.932C480.82 260.068 480.42 260.136 479.977 260.136ZM486.876 260.136C486.263 260.136 485.734 259.991 485.291 259.702C484.848 259.412 484.507 259.013 484.268 258.504C484.03 257.996 483.911 257.415 483.911 256.761C483.911 256.097 484.033 255.51 484.277 255.001C484.524 254.49 484.868 254.091 485.308 253.804C485.751 253.514 486.268 253.369 486.859 253.369C487.32 253.369 487.734 253.455 488.104 253.625C488.473 253.795 488.776 254.034 489.011 254.341C489.247 254.648 489.393 255.006 489.45 255.415H488.445C488.368 255.116 488.197 254.852 487.933 254.622C487.672 254.389 487.32 254.273 486.876 254.273C486.484 254.273 486.141 254.375 485.845 254.58C485.553 254.781 485.324 255.067 485.159 255.436C484.997 255.803 484.916 256.233 484.916 256.727C484.916 257.233 484.996 257.673 485.155 258.048C485.317 258.423 485.544 258.714 485.837 258.922C486.132 259.129 486.479 259.233 486.876 259.233C487.138 259.233 487.375 259.188 487.588 259.097C487.801 259.006 487.982 258.875 488.129 258.705C488.277 258.534 488.382 258.33 488.445 258.091H489.45C489.393 258.477 489.253 258.825 489.028 259.135C488.807 259.442 488.513 259.686 488.146 259.868C487.783 260.047 487.359 260.136 486.876 260.136Z" fill="#475467"/>
<g clip-path="url(#clip0_979_31146)">
<g clip-path="url(#clip1_979_31146)">
<path d="M12 48H28V239H12V48Z" fill="#EAECF0"/>
<path d="M12 103.708H28V239H12V103.708Z" fill="#4D9E00"/>
<path d="M12 167.375H28V239H12V167.375Z" fill="#1B3800"/>
</g>
<g clip-path="url(#clip2_979_31146)">
<path d="M53.8181 16H69.8181V239H53.8181V16Z" fill="#EAECF0"/>
<path d="M53.8181 81.0417H69.8181V239H53.8181V81.0417Z" fill="#4D9E00"/>
<path d="M53.8181 155.375H69.8181V239H53.8181V155.375Z" fill="#1B3800"/>
</g>
<g clip-path="url(#clip3_979_31146)">
<path d="M95.6365 80H111.636V239H95.6365V80Z" fill="#EAECF0"/>
<path d="M95.6365 126.375H111.636V239H95.6365V126.375Z" fill="#4D9E00"/>
<path d="M95.6365 179.375H111.636V239H95.6365V179.375Z" fill="#1B3800"/>
</g>
<g clip-path="url(#clip4_979_31146)">
<path d="M137.455 40H153.455V239H137.455V40Z" fill="#EAECF0"/>
<path d="M137.455 98.0417H153.455V239H137.455V98.0417Z" fill="#4D9E00"/>
<path d="M137.455 164.375H153.455V239H137.455V164.375Z" fill="#1B3800"/>
</g>
<g clip-path="url(#clip5_979_31146)">
<path d="M179.273 80H195.273V239H179.273V80Z" fill="#EAECF0"/>
<path d="M179.273 126.375H195.273V239H179.273V126.375Z" fill="#4D9E00"/>
<path d="M179.273 179.375H195.273V239H179.273V179.375Z" fill="#1B3800"/>
</g>
<g clip-path="url(#clip6_979_31146)">
<path d="M221.091 24H237.091V239H221.091V24Z" fill="#EAECF0"/>
<path d="M221.091 86.7083H237.091V239H221.091V86.7083Z" fill="#4D9E00"/>
<path d="M221.091 158.375H237.091V239H221.091V158.375Z" fill="#1B3800"/>
</g>
<g clip-path="url(#clip7_979_31146)">
<path d="M262.909 48H278.909V239H262.909V48Z" fill="#EAECF0"/>
<path d="M262.909 103.708H278.909V239H262.909V103.708Z" fill="#4D9E00"/>
<path d="M262.909 167.375H278.909V239H262.909V167.375Z" fill="#1B3800"/>
</g>
<g clip-path="url(#clip8_979_31146)">
<path d="M304.727 40H320.727V239H304.727V40Z" fill="#EAECF0"/>
<path d="M304.727 98.0417H320.727V239H304.727V98.0417Z" fill="#4D9E00"/>
<path d="M304.727 164.375H320.727V239H304.727V164.375Z" fill="#1B3800"/>
</g>
<g clip-path="url(#clip9_979_31146)">
<path d="M346.545 48H362.545V239H346.545V48Z" fill="#EAECF0"/>
<path d="M346.545 103.708H362.545V239H346.545V103.708Z" fill="#4D9E00"/>
<path d="M346.545 167.375H362.545V239H346.545V167.375Z" fill="#1B3800"/>
</g>
<g clip-path="url(#clip10_979_31146)">
<path d="M388.364 32H404.364V239H388.364V32Z" fill="#EAECF0"/>
<path d="M388.364 92.375H404.364V239H388.364V92.375Z" fill="#4D9E00"/>
<path d="M388.364 161.375H404.364V239H388.364V161.375Z" fill="#1B3800"/>
</g>
<g clip-path="url(#clip11_979_31146)">
<path d="M430.182 16H446.182V239H430.182V16Z" fill="#EAECF0"/>
<path d="M430.182 81.0417H446.182V239H430.182V81.0417Z" fill="#4D9E00"/>
<path d="M430.182 155.375H446.182V239H430.182V155.375Z" fill="#1B3800"/>
</g>
<g clip-path="url(#clip12_979_31146)">
<path d="M472 56H488V239H472V56Z" fill="#EAECF0"/>
<path d="M472 109.375H488V239H472V109.375Z" fill="#4D9E00"/>
<path d="M472 170.375H488V239H472V170.375Z" fill="#1B3800"/>
</g>
</g>
<defs>
<clipPath id="clip0_979_31146">
<rect width="500" height="239" fill="white"/>
</clipPath>
<clipPath id="clip1_979_31146">
<path d="M12 52C12 49.7909 13.7909 48 16 48H24C26.2091 48 28 49.7909 28 52V239H12V52Z" fill="white"/>
</clipPath>
<clipPath id="clip2_979_31146">
<path d="M53.8181 20C53.8181 17.7909 55.609 16 57.8181 16H65.8181C68.0273 16 69.8181 17.7909 69.8181 20V239H53.8181V20Z" fill="white"/>
</clipPath>
<clipPath id="clip3_979_31146">
<path d="M95.6365 84C95.6365 81.7909 97.4273 80 99.6365 80H107.636C109.846 80 111.636 81.7909 111.636 84V239H95.6365V84Z" fill="white"/>
</clipPath>
<clipPath id="clip4_979_31146">
<path d="M137.455 44C137.455 41.7909 139.245 40 141.455 40H149.455C151.664 40 153.455 41.7909 153.455 44V239H137.455V44Z" fill="white"/>
</clipPath>
<clipPath id="clip5_979_31146">
<path d="M179.273 84C179.273 81.7909 181.064 80 183.273 80H191.273C193.482 80 195.273 81.7909 195.273 84V239H179.273V84Z" fill="white"/>
</clipPath>
<clipPath id="clip6_979_31146">
<path d="M221.091 28C221.091 25.7909 222.882 24 225.091 24H233.091C235.3 24 237.091 25.7909 237.091 28V239H221.091V28Z" fill="white"/>
</clipPath>
<clipPath id="clip7_979_31146">
<path d="M262.909 52C262.909 49.7909 264.7 48 266.909 48H274.909C277.118 48 278.909 49.7909 278.909 52V239H262.909V52Z" fill="white"/>
</clipPath>
<clipPath id="clip8_979_31146">
<path d="M304.727 44C304.727 41.7909 306.518 40 308.727 40H316.727C318.936 40 320.727 41.7909 320.727 44V239H304.727V44Z" fill="white"/>
</clipPath>
<clipPath id="clip9_979_31146">
<path d="M346.545 52C346.545 49.7909 348.336 48 350.545 48H358.545C360.755 48 362.545 49.7909 362.545 52V239H346.545V52Z" fill="white"/>
</clipPath>
<clipPath id="clip10_979_31146">
<path d="M388.364 36C388.364 33.7909 390.154 32 392.364 32H400.364C402.573 32 404.364 33.7909 404.364 36V239H388.364V36Z" fill="white"/>
</clipPath>
<clipPath id="clip11_979_31146">
<path d="M430.182 20C430.182 17.7909 431.973 16 434.182 16H442.182C444.391 16 446.182 17.7909 446.182 20V239H430.182V20Z" fill="white"/>
</clipPath>
<clipPath id="clip12_979_31146">
<path d="M472 60C472 57.7909 473.791 56 476 56H484C486.209 56 488 57.7909 488 60V239H472V60Z" fill="white"/>
</clipPath>
</defs>
</svg>
