<svg width="496" height="240" viewBox="0 0 496 240" fill="none" xmlns="http://www.w3.org/2000/svg">
<path d="M13.3505 6.27273V15H12.2937V7.38068H12.2425L10.1119 8.79545V7.72159L12.2937 6.27273H13.3505ZM16.8619 13.8068L16.7937 14.267C16.7454 14.5909 16.6715 14.9375 16.5721 15.3068C16.4755 15.6761 16.3746 16.0241 16.2695 16.3509C16.1644 16.6776 16.0778 16.9375 16.0096 17.1307H15.2425C15.2795 16.9489 15.3278 16.7088 15.3874 16.4105C15.4471 16.1122 15.5067 15.7784 15.5664 15.4091C15.6289 15.0426 15.68 14.6676 15.7198 14.2841L15.771 13.8068H16.8619ZM21.25 15.1193C20.608 15.1193 20.0611 14.9446 19.6094 14.5952C19.1577 14.2429 18.8125 13.733 18.5739 13.0653C18.3352 12.3949 18.2159 11.5852 18.2159 10.6364C18.2159 9.69318 18.3352 8.88778 18.5739 8.22017C18.8153 7.54972 19.1619 7.03835 19.6136 6.68608C20.0682 6.33097 20.6136 6.15341 21.25 6.15341C21.8864 6.15341 22.4304 6.33097 22.8821 6.68608C23.3366 7.03835 23.6832 7.54972 23.9219 8.22017C24.1634 8.88778 24.2841 9.69318 24.2841 10.6364C24.2841 11.5852 24.1648 12.3949 23.9261 13.0653C23.6875 13.733 23.3423 14.2429 22.8906 14.5952C22.4389 14.9446 21.892 15.1193 21.25 15.1193ZM21.25 14.1818C21.8864 14.1818 22.3807 13.875 22.733 13.2614C23.0852 12.6477 23.2614 11.7727 23.2614 10.6364C23.2614 9.88068 23.1804 9.23722 23.0185 8.70597C22.8594 8.17472 22.6293 7.76989 22.3281 7.49148C22.0298 7.21307 21.6705 7.07386 21.25 7.07386C20.6193 7.07386 20.1264 7.38494 19.7713 8.0071C19.4162 8.62642 19.2386 9.50284 19.2386 10.6364C19.2386 11.392 19.3182 12.0341 19.4773 12.5625C19.6364 13.0909 19.8651 13.4929 20.1634 13.7685C20.4645 14.044 20.8267 14.1818 21.25 14.1818ZM28.75 15.1193C28.108 15.1193 27.5611 14.9446 27.1094 14.5952C26.6577 14.2429 26.3125 13.733 26.0739 13.0653C25.8352 12.3949 25.7159 11.5852 25.7159 10.6364C25.7159 9.69318 25.8352 8.88778 26.0739 8.22017C26.3153 7.54972 26.6619 7.03835 27.1136 6.68608C27.5682 6.33097 28.1136 6.15341 28.75 6.15341C29.3864 6.15341 29.9304 6.33097 30.3821 6.68608C30.8366 7.03835 31.1832 7.54972 31.4219 8.22017C31.6634 8.88778 31.7841 9.69318 31.7841 10.6364C31.7841 11.5852 31.6648 12.3949 31.4261 13.0653C31.1875 13.733 30.8423 14.2429 30.3906 14.5952C29.9389 14.9446 29.392 15.1193 28.75 15.1193ZM28.75 14.1818C29.3864 14.1818 29.8807 13.875 30.233 13.2614C30.5852 12.6477 30.7614 11.7727 30.7614 10.6364C30.7614 9.88068 30.6804 9.23722 30.5185 8.70597C30.3594 8.17472 30.1293 7.76989 29.8281 7.49148C29.5298 7.21307 29.1705 7.07386 28.75 7.07386C28.1193 7.07386 27.6264 7.38494 27.2713 8.0071C26.9162 8.62642 26.7386 9.50284 26.7386 10.6364C26.7386 11.392 26.8182 12.0341 26.9773 12.5625C27.1364 13.0909 27.3651 13.4929 27.6634 13.7685C27.9645 14.044 28.3267 14.1818 28.75 14.1818ZM36.25 15.1193C35.608 15.1193 35.0611 14.9446 34.6094 14.5952C34.1577 14.2429 33.8125 13.733 33.5739 13.0653C33.3352 12.3949 33.2159 11.5852 33.2159 10.6364C33.2159 9.69318 33.3352 8.88778 33.5739 8.22017C33.8153 7.54972 34.1619 7.03835 34.6136 6.68608C35.0682 6.33097 35.6136 6.15341 36.25 6.15341C36.8864 6.15341 37.4304 6.33097 37.8821 6.68608C38.3366 7.03835 38.6832 7.54972 38.9219 8.22017C39.1634 8.88778 39.2841 9.69318 39.2841 10.6364C39.2841 11.5852 39.1648 12.3949 38.9261 13.0653C38.6875 13.733 38.3423 14.2429 37.8906 14.5952C37.4389 14.9446 36.892 15.1193 36.25 15.1193ZM36.25 14.1818C36.8864 14.1818 37.3807 13.875 37.733 13.2614C38.0852 12.6477 38.2614 11.7727 38.2614 10.6364C38.2614 9.88068 38.1804 9.23722 38.0185 8.70597C37.8594 8.17472 37.6293 7.76989 37.3281 7.49148C37.0298 7.21307 36.6705 7.07386 36.25 7.07386C35.6193 7.07386 35.1264 7.38494 34.7713 8.0071C34.4162 8.62642 34.2386 9.50284 34.2386 10.6364C34.2386 11.392 34.3182 12.0341 34.4773 12.5625C34.6364 13.0909 34.8651 13.4929 35.1634 13.7685C35.4645 14.044 35.8267 14.1818 36.25 14.1818Z" fill="#344054"/>
<line x1="48.5" y1="11" x2="495.5" y2="11" stroke="#F2F4F7" stroke-linecap="round"/>
<path d="M21.3043 52.8195C20.7191 52.8195 20.2021 52.7158 19.7532 52.5084C19.3072 52.2982 18.9592 52.0099 18.7092 51.6434C18.4592 51.2741 18.3356 50.8536 18.3384 50.382C18.3356 50.0127 18.408 49.6718 18.5558 49.3593C18.7035 49.0439 18.9052 48.7812 19.1609 48.5709C19.4194 48.3579 19.7077 48.2229 20.0259 48.1661V48.115C19.6083 48.007 19.2759 47.7726 19.0288 47.4118C18.7816 47.0482 18.6594 46.6349 18.6623 46.1718C18.6594 45.7286 18.7717 45.3323 18.9989 44.9829C19.2262 44.6334 19.5387 44.3579 19.9364 44.1562C20.337 43.9545 20.793 43.8536 21.3043 43.8536C21.81 43.8536 22.2617 43.9545 22.6594 44.1562C23.0572 44.3579 23.3697 44.6334 23.5969 44.9829C23.8271 45.3323 23.9435 45.7286 23.9464 46.1718C23.9435 46.6349 23.8171 47.0482 23.5671 47.4118C23.32 47.7726 22.9918 48.007 22.5827 48.115V48.1661C22.8981 48.2229 23.1822 48.3579 23.435 48.5709C23.6879 48.7812 23.8896 49.0439 24.0401 49.3593C24.1907 49.6718 24.2674 50.0127 24.2702 50.382C24.2674 50.8536 24.1396 51.2741 23.8867 51.6434C23.6367 52.0099 23.2887 52.2982 22.8427 52.5084C22.3995 52.7158 21.8867 52.8195 21.3043 52.8195ZM21.3043 51.882C21.6992 51.882 22.0401 51.8181 22.3271 51.6903C22.614 51.5624 22.8356 51.382 22.9918 51.1491C23.1481 50.9161 23.2276 50.6434 23.2305 50.3309C23.2276 50.0013 23.1424 49.7101 22.9748 49.4573C22.8072 49.2045 22.5785 49.0056 22.2887 48.8607C22.0018 48.7158 21.6737 48.6434 21.3043 48.6434C20.9322 48.6434 20.5998 48.7158 20.3072 48.8607C20.0174 49.0056 19.7887 49.2045 19.6211 49.4573C19.4563 49.7101 19.3754 50.0013 19.3782 50.3309C19.3754 50.6434 19.4506 50.9161 19.604 51.1491C19.7603 51.382 19.9833 51.5624 20.2731 51.6903C20.5629 51.8181 20.9066 51.882 21.3043 51.882ZM21.3043 47.74C21.6168 47.74 21.8938 47.6775 22.1353 47.5525C22.3796 47.4275 22.5714 47.2528 22.7106 47.0283C22.8498 46.8039 22.9208 46.5411 22.9237 46.24C22.9208 45.9445 22.8512 45.6874 22.7148 45.4687C22.5785 45.2471 22.3896 45.0766 22.1481 44.9573C21.9066 44.8351 21.6254 44.7741 21.3043 44.7741C20.9776 44.7741 20.6921 44.8351 20.4478 44.9573C20.2035 45.0766 20.0146 45.2471 19.881 45.4687C19.7475 45.6874 19.6822 45.9445 19.685 46.24C19.6822 46.5411 19.7489 46.8039 19.8853 47.0283C20.0245 47.2528 20.2163 47.4275 20.4606 47.5525C20.7049 47.6775 20.9862 47.74 21.3043 47.74ZM28.75 52.8195C28.108 52.8195 27.5611 52.6448 27.1094 52.2954C26.6577 51.9431 26.3125 51.4331 26.0739 50.7655C25.8352 50.0951 25.7159 49.2854 25.7159 48.3366C25.7159 47.3934 25.8352 46.588 26.0739 45.9204C26.3153 45.2499 26.6619 44.7385 27.1136 44.3863C27.5682 44.0312 28.1136 43.8536 28.75 43.8536C29.3864 43.8536 29.9304 44.0312 30.3821 44.3863C30.8366 44.7385 31.1832 45.2499 31.4219 45.9204C31.6634 46.588 31.7841 47.3934 31.7841 48.3366C31.7841 49.2854 31.6648 50.0951 31.4261 50.7655C31.1875 51.4331 30.8423 51.9431 30.3906 52.2954C29.9389 52.6448 29.392 52.8195 28.75 52.8195ZM28.75 51.882C29.3864 51.882 29.8807 51.5752 30.233 50.9616C30.5852 50.3479 30.7614 49.4729 30.7614 48.3366C30.7614 47.5809 30.6804 46.9374 30.5185 46.4062C30.3594 45.8749 30.1293 45.4701 29.8281 45.1917C29.5298 44.9133 29.1705 44.7741 28.75 44.7741C28.1193 44.7741 27.6264 45.0851 27.2713 45.7073C26.9162 46.3266 26.7386 47.203 26.7386 48.3366C26.7386 49.0922 26.8182 49.7343 26.9773 50.2627C27.1364 50.7911 27.3651 51.1931 27.6634 51.4687C27.9645 51.7442 28.3267 51.882 28.75 51.882ZM36.25 52.8195C35.608 52.8195 35.0611 52.6448 34.6094 52.2954C34.1577 51.9431 33.8125 51.4331 33.5739 50.7655C33.3352 50.0951 33.2159 49.2854 33.2159 48.3366C33.2159 47.3934 33.3352 46.588 33.5739 45.9204C33.8153 45.2499 34.1619 44.7385 34.6136 44.3863C35.0682 44.0312 35.6136 43.8536 36.25 43.8536C36.8864 43.8536 37.4304 44.0312 37.8821 44.3863C38.3366 44.7385 38.6832 45.2499 38.9219 45.9204C39.1634 46.588 39.2841 47.3934 39.2841 48.3366C39.2841 49.2854 39.1648 50.0951 38.9261 50.7655C38.6875 51.4331 38.3423 51.9431 37.8906 52.2954C37.4389 52.6448 36.892 52.8195 36.25 52.8195ZM36.25 51.882C36.8864 51.882 37.3807 51.5752 37.733 50.9616C38.0852 50.3479 38.2614 49.4729 38.2614 48.3366C38.2614 47.5809 38.1804 46.9374 38.0185 46.4062C37.8594 45.8749 37.6293 45.4701 37.3281 45.1917C37.0298 44.9133 36.6705 44.7741 36.25 44.7741C35.6193 44.7741 35.1264 45.0851 34.7713 45.7073C34.4162 46.3266 34.2386 47.203 34.2386 48.3366C34.2386 49.0922 34.3182 49.7343 34.4773 50.2627C34.6364 50.7911 34.8651 51.1931 35.1634 51.4687C35.4645 51.7442 35.8267 51.882 36.25 51.882Z" fill="#344054"/>
<line x1="48.5" y1="48.7002" x2="495.5" y2="48.7002" stroke="#F2F4F7" stroke-linecap="round"/>
<path d="M21.3129 88.0192C20.9549 88.0135 20.5969 87.9454 20.239 87.8147C19.881 87.684 19.5543 87.4638 19.2589 87.1542C18.9634 86.8417 18.7262 86.4198 18.5472 85.8885C18.3683 85.3544 18.2788 84.684 18.2788 83.8772C18.2788 83.1044 18.3512 82.4198 18.4961 81.8232C18.641 81.2238 18.8512 80.7195 19.1268 80.3104C19.4023 79.8985 19.7347 79.586 20.1239 79.3729C20.516 79.1598 20.9577 79.0533 21.4492 79.0533C21.9379 79.0533 22.3725 79.1513 22.7532 79.3473C23.1367 79.5405 23.4492 79.8104 23.6907 80.157C23.9322 80.5036 24.0884 80.9027 24.1594 81.3544H23.1197C23.0231 80.9624 22.8356 80.6371 22.5572 80.3786C22.2788 80.1201 21.9094 79.9908 21.4492 79.9908C20.7731 79.9908 20.2404 80.2848 19.8512 80.8729C19.4648 81.461 19.2702 82.2863 19.2674 83.3488H19.3356C19.4947 83.1073 19.6836 82.9013 19.9023 82.7309C20.1239 82.5576 20.3683 82.424 20.6353 82.3303C20.9023 82.2365 21.185 82.1897 21.4833 82.1897C21.9833 82.1897 22.4407 82.3147 22.8555 82.5647C23.2702 82.8118 23.6026 83.1542 23.8526 83.5917C24.1026 84.0263 24.2276 84.5249 24.2276 85.0874C24.2276 85.6272 24.1069 86.1215 23.8654 86.5704C23.6239 87.0164 23.2844 87.3715 22.8469 87.6357C22.4123 87.8971 21.9009 88.0249 21.3129 88.0192ZM21.3129 87.0817C21.6708 87.0817 21.9918 86.9922 22.2759 86.8133C22.5629 86.6343 22.7887 86.3942 22.9535 86.0931C23.1211 85.7919 23.2049 85.4567 23.2049 85.0874C23.2049 84.7266 23.1239 84.3985 22.962 84.103C22.8029 83.8047 22.5827 83.5675 22.3015 83.3914C22.0231 83.2152 21.7049 83.1272 21.3469 83.1272C21.0771 83.1272 20.8256 83.1812 20.5927 83.2891C20.3597 83.3942 20.1552 83.5391 19.979 83.7238C19.8058 83.9084 19.6694 84.1201 19.57 84.3587C19.4705 84.5945 19.4208 84.8431 19.4208 85.1044C19.4208 85.451 19.5018 85.7749 19.6637 86.076C19.8285 86.3772 20.0529 86.6201 20.337 86.8047C20.6239 86.9894 20.9492 87.0817 21.3129 87.0817ZM28.75 88.0192C28.108 88.0192 27.5611 87.8445 27.1094 87.4951C26.6577 87.1428 26.3125 86.6329 26.0739 85.9652C25.8352 85.2948 25.7159 84.4851 25.7159 83.5363C25.7159 82.5931 25.8352 81.7877 26.0739 81.1201C26.3153 80.4496 26.6619 79.9383 27.1136 79.586C27.5682 79.2309 28.1136 79.0533 28.75 79.0533C29.3864 79.0533 29.9304 79.2309 30.3821 79.586C30.8366 79.9383 31.1832 80.4496 31.4219 81.1201C31.6634 81.7877 31.7841 82.5931 31.7841 83.5363C31.7841 84.4851 31.6648 85.2948 31.4261 85.9652C31.1875 86.6329 30.8423 87.1428 30.3906 87.4951C29.9389 87.8445 29.392 88.0192 28.75 88.0192ZM28.75 87.0817C29.3864 87.0817 29.8807 86.7749 30.233 86.1613C30.5852 85.5476 30.7614 84.6726 30.7614 83.5363C30.7614 82.7806 30.6804 82.1371 30.5185 81.6059C30.3594 81.0746 30.1293 80.6698 29.8281 80.3914C29.5298 80.113 29.1705 79.9738 28.75 79.9738C28.1193 79.9738 27.6264 80.2848 27.2713 80.907C26.9162 81.5263 26.7386 82.4027 26.7386 83.5363C26.7386 84.2919 26.8182 84.934 26.9773 85.4624C27.1364 85.9908 27.3651 86.3928 27.6634 86.6684C27.9645 86.9439 28.3267 87.0817 28.75 87.0817ZM36.25 88.0192C35.608 88.0192 35.0611 87.8445 34.6094 87.4951C34.1577 87.1428 33.8125 86.6329 33.5739 85.9652C33.3352 85.2948 33.2159 84.4851 33.2159 83.5363C33.2159 82.5931 33.3352 81.7877 33.5739 81.1201C33.8153 80.4496 34.1619 79.9383 34.6136 79.586C35.0682 79.2309 35.6136 79.0533 36.25 79.0533C36.8864 79.0533 37.4304 79.2309 37.8821 79.586C38.3366 79.9383 38.6832 80.4496 38.9219 81.1201C39.1634 81.7877 39.2841 82.5931 39.2841 83.5363C39.2841 84.4851 39.1648 85.2948 38.9261 85.9652C38.6875 86.6329 38.3423 87.1428 37.8906 87.4951C37.4389 87.8445 36.892 88.0192 36.25 88.0192ZM36.25 87.0817C36.8864 87.0817 37.3807 86.7749 37.733 86.1613C38.0852 85.5476 38.2614 84.6726 38.2614 83.5363C38.2614 82.7806 38.1804 82.1371 38.0185 81.6059C37.8594 81.0746 37.6293 80.6698 37.3281 80.3914C37.0298 80.113 36.6705 79.9738 36.25 79.9738C35.6193 79.9738 35.1264 80.2848 34.7713 80.907C34.4162 81.5263 34.2386 82.4027 34.2386 83.5363C34.2386 84.2919 34.3182 84.934 34.4773 85.4624C34.6364 85.9908 34.8651 86.3928 35.1634 86.6684C35.4645 86.9439 35.8267 87.0817 36.25 87.0817Z" fill="#344054"/>
<line x1="48.5" y1="83.8999" x2="495.5" y2="83.8999" stroke="#F2F4F7" stroke-linecap="round"/>
<path d="M17.9996 121.31V120.441L21.8349 114.373H22.4656V115.719H22.0394L19.1417 120.305V120.373H24.3065V121.31H17.9996ZM22.1076 123.1V121.046V120.641V114.373H23.1133V123.1H22.1076ZM28.75 123.219C28.108 123.219 27.5611 123.045 27.1094 122.695C26.6577 122.343 26.3125 121.833 26.0739 121.165C25.8352 120.495 25.7159 119.685 25.7159 118.736C25.7159 117.793 25.8352 116.988 26.0739 116.32C26.3153 115.65 26.6619 115.138 27.1136 114.786C27.5682 114.431 28.1136 114.254 28.75 114.254C29.3864 114.254 29.9304 114.431 30.3821 114.786C30.8366 115.138 31.1832 115.65 31.4219 116.32C31.6634 116.988 31.7841 117.793 31.7841 118.736C31.7841 119.685 31.6648 120.495 31.4261 121.165C31.1875 121.833 30.8423 122.343 30.3906 122.695C29.9389 123.045 29.392 123.219 28.75 123.219ZM28.75 122.282C29.3864 122.282 29.8807 121.975 30.233 121.361C30.5852 120.748 30.7614 119.873 30.7614 118.736C30.7614 117.981 30.6804 117.337 30.5185 116.806C30.3594 116.275 30.1293 115.87 29.8281 115.592C29.5298 115.313 29.1705 115.174 28.75 115.174C28.1193 115.174 27.6264 115.485 27.2713 116.107C26.9162 116.727 26.7386 117.603 26.7386 118.736C26.7386 119.492 26.8182 120.134 26.9773 120.663C27.1364 121.191 27.3651 121.593 27.6634 121.869C27.9645 122.144 28.3267 122.282 28.75 122.282ZM36.25 123.219C35.608 123.219 35.0611 123.045 34.6094 122.695C34.1577 122.343 33.8125 121.833 33.5739 121.165C33.3352 120.495 33.2159 119.685 33.2159 118.736C33.2159 117.793 33.3352 116.988 33.5739 116.32C33.8153 115.65 34.1619 115.138 34.6136 114.786C35.0682 114.431 35.6136 114.254 36.25 114.254C36.8864 114.254 37.4304 114.431 37.8821 114.786C38.3366 115.138 38.6832 115.65 38.9219 116.32C39.1634 116.988 39.2841 117.793 39.2841 118.736C39.2841 119.685 39.1648 120.495 38.9261 121.165C38.6875 121.833 38.3423 122.343 37.8906 122.695C37.4389 123.045 36.892 123.219 36.25 123.219ZM36.25 122.282C36.8864 122.282 37.3807 121.975 37.733 121.361C38.0852 120.748 38.2614 119.873 38.2614 118.736C38.2614 117.981 38.1804 117.337 38.0185 116.806C37.8594 116.275 37.6293 115.87 37.3281 115.592C37.0298 115.313 36.6705 115.174 36.25 115.174C35.6193 115.174 35.1264 115.485 34.7713 116.107C34.4162 116.727 34.2386 117.603 34.2386 118.736C34.2386 119.492 34.3182 120.134 34.4773 120.663C34.6364 121.191 34.8651 121.593 35.1634 121.869C35.4645 122.144 35.8267 122.282 36.25 122.282Z" fill="#344054"/>
<line x1="48.5" y1="119.1" x2="495.5" y2="119.1" stroke="#F2F4F7" stroke-linecap="round"/>
<path d="M18.6378 158.3V157.533L21.5185 154.379C21.8565 154.01 22.1349 153.689 22.3537 153.416C22.5724 153.141 22.7344 152.882 22.8395 152.641C22.9474 152.396 23.0014 152.141 23.0014 151.874C23.0014 151.567 22.9276 151.301 22.7798 151.077C22.6349 150.852 22.4361 150.679 22.1832 150.557C21.9304 150.435 21.6463 150.374 21.331 150.374C20.9957 150.374 20.7031 150.443 20.4531 150.582C20.206 150.719 20.0142 150.911 19.8778 151.158C19.7443 151.405 19.6776 151.695 19.6776 152.027H18.6719C18.6719 151.516 18.7898 151.067 19.0256 150.68C19.2614 150.294 19.5824 149.993 19.9886 149.777C20.3977 149.561 20.8565 149.453 21.3651 149.453C21.8764 149.453 22.3295 149.561 22.7244 149.777C23.1193 149.993 23.429 150.284 23.6534 150.651C23.8778 151.017 23.9901 151.425 23.9901 151.874C23.9901 152.195 23.9318 152.509 23.8153 152.815C23.7017 153.119 23.5028 153.459 23.2188 153.834C22.9375 154.206 22.5469 154.661 22.0469 155.198L20.0866 157.294V157.362H24.1435V158.3H18.6378ZM28.75 158.419C28.108 158.419 27.5611 158.244 27.1094 157.895C26.6577 157.543 26.3125 157.033 26.0739 156.365C25.8352 155.695 25.7159 154.885 25.7159 153.936C25.7159 152.993 25.8352 152.188 26.0739 151.52C26.3153 150.85 26.6619 150.338 27.1136 149.986C27.5682 149.631 28.1136 149.453 28.75 149.453C29.3864 149.453 29.9304 149.631 30.3821 149.986C30.8366 150.338 31.1832 150.85 31.4219 151.52C31.6634 152.188 31.7841 152.993 31.7841 153.936C31.7841 154.885 31.6648 155.695 31.4261 156.365C31.1875 157.033 30.8423 157.543 30.3906 157.895C29.9389 158.244 29.392 158.419 28.75 158.419ZM28.75 157.482C29.3864 157.482 29.8807 157.175 30.233 156.561C30.5852 155.948 30.7614 155.073 30.7614 153.936C30.7614 153.18 30.6804 152.537 30.5185 152.006C30.3594 151.475 30.1293 151.07 29.8281 150.791C29.5298 150.513 29.1705 150.374 28.75 150.374C28.1193 150.374 27.6264 150.685 27.2713 151.307C26.9162 151.926 26.7386 152.803 26.7386 153.936C26.7386 154.692 26.8182 155.334 26.9773 155.862C27.1364 156.391 27.3651 156.793 27.6634 157.068C27.9645 157.344 28.3267 157.482 28.75 157.482ZM36.25 158.419C35.608 158.419 35.0611 158.244 34.6094 157.895C34.1577 157.543 33.8125 157.033 33.5739 156.365C33.3352 155.695 33.2159 154.885 33.2159 153.936C33.2159 152.993 33.3352 152.188 33.5739 151.52C33.8153 150.85 34.1619 150.338 34.6136 149.986C35.0682 149.631 35.6136 149.453 36.25 149.453C36.8864 149.453 37.4304 149.631 37.8821 149.986C38.3366 150.338 38.6832 150.85 38.9219 151.52C39.1634 152.188 39.2841 152.993 39.2841 153.936C39.2841 154.885 39.1648 155.695 38.9261 156.365C38.6875 157.033 38.3423 157.543 37.8906 157.895C37.4389 158.244 36.892 158.419 36.25 158.419ZM36.25 157.482C36.8864 157.482 37.3807 157.175 37.733 156.561C38.0852 155.948 38.2614 155.073 38.2614 153.936C38.2614 153.18 38.1804 152.537 38.0185 152.006C37.8594 151.475 37.6293 151.07 37.3281 150.791C37.0298 150.513 36.6705 150.374 36.25 150.374C35.6193 150.374 35.1264 150.685 34.7713 151.307C34.4162 151.926 34.2386 152.803 34.2386 153.936C34.2386 154.692 34.3182 155.334 34.4773 155.862C34.6364 156.391 34.8651 156.793 35.1634 157.068C35.4645 157.344 35.8267 157.482 36.25 157.482Z" fill="#344054"/>
<line x1="48.5" y1="154.3" x2="495.5" y2="154.3" stroke="#F2F4F7" stroke-linecap="round"/>
<path d="M36.25 193.619C35.608 193.619 35.0611 193.445 34.6094 193.095C34.1577 192.743 33.8125 192.233 33.5739 191.565C33.3352 190.895 33.2159 190.085 33.2159 189.136C33.2159 188.193 33.3352 187.388 33.5739 186.72C33.8153 186.05 34.1619 185.538 34.6136 185.186C35.0682 184.831 35.6136 184.653 36.25 184.653C36.8864 184.653 37.4304 184.831 37.8821 185.186C38.3366 185.538 38.6832 186.05 38.9219 186.72C39.1634 187.388 39.2841 188.193 39.2841 189.136C39.2841 190.085 39.1648 190.895 38.9261 191.565C38.6875 192.233 38.3423 192.743 37.8906 193.095C37.4389 193.445 36.892 193.619 36.25 193.619ZM36.25 192.682C36.8864 192.682 37.3807 192.375 37.733 191.761C38.0852 191.148 38.2614 190.273 38.2614 189.136C38.2614 188.381 38.1804 187.737 38.0185 187.206C37.8594 186.675 37.6293 186.27 37.3281 185.991C37.0298 185.713 36.6705 185.574 36.25 185.574C35.6193 185.574 35.1264 185.885 34.7713 186.507C34.4162 187.126 34.2386 188.003 34.2386 189.136C34.2386 189.892 34.3182 190.534 34.4773 191.062C34.6364 191.591 34.8651 191.993 35.1634 192.268C35.4645 192.544 35.8267 192.682 36.25 192.682Z" fill="#344054"/>
<line x1="48.5" y1="189.5" x2="495.5" y2="189.5" stroke="#F2F4F7" stroke-linecap="round"/>
<path d="M68.7493 202.273H69.8061V208.511C69.8061 209.068 69.7038 209.541 69.4993 209.93C69.2947 210.32 69.0064 210.615 68.6342 210.817C68.2621 211.018 67.8232 211.119 67.3175 211.119C66.8402 211.119 66.4155 211.033 66.0433 210.859C65.6712 210.683 65.3786 210.433 65.1655 210.109C64.9524 209.786 64.8459 209.401 64.8459 208.955H65.8857C65.8857 209.202 65.9467 209.418 66.0689 209.602C66.1939 209.784 66.3643 209.926 66.5803 210.028C66.7962 210.131 67.0419 210.182 67.3175 210.182C67.6214 210.182 67.88 210.118 68.093 209.99C68.3061 209.862 68.468 209.675 68.5788 209.428C68.6925 209.178 68.7493 208.872 68.7493 208.511V202.273ZM73.7138 211.153C73.299 211.153 72.9226 211.075 72.5845 210.919C72.2464 210.76 71.978 210.531 71.7791 210.233C71.5803 209.932 71.4808 209.568 71.4808 209.142C71.4808 208.767 71.5547 208.463 71.7024 208.23C71.8501 207.994 72.0476 207.81 72.2947 207.676C72.5419 207.543 72.8146 207.443 73.1129 207.378C73.4141 207.31 73.7166 207.256 74.0206 207.216C74.4183 207.165 74.7408 207.126 74.9879 207.101C75.2379 207.072 75.4197 207.026 75.5334 206.96C75.6499 206.895 75.7081 206.781 75.7081 206.619V206.585C75.7081 206.165 75.593 205.838 75.3629 205.605C75.1357 205.372 74.7905 205.256 74.3274 205.256C73.8473 205.256 73.4709 205.361 73.1982 205.571C72.9254 205.781 72.7337 206.006 72.6229 206.244L71.6683 205.903C71.8388 205.506 72.0661 205.196 72.3501 204.974C72.6371 204.75 72.9496 204.594 73.2876 204.506C73.6286 204.415 73.9638 204.369 74.2933 204.369C74.5036 204.369 74.745 204.395 75.0178 204.446C75.2933 204.494 75.5589 204.595 75.8146 204.749C76.0732 204.902 76.2876 205.134 76.4581 205.443C76.6286 205.753 76.7138 206.168 76.7138 206.688V211H75.7081V210.114H75.657C75.5888 210.256 75.4751 210.408 75.3161 210.57C75.157 210.732 74.9453 210.869 74.6811 210.983C74.4169 211.097 74.0945 211.153 73.7138 211.153ZM73.8672 210.25C74.2649 210.25 74.6001 210.172 74.8729 210.016C75.1484 209.859 75.3558 209.658 75.495 209.411C75.6371 209.163 75.7081 208.903 75.7081 208.631V207.71C75.6655 207.761 75.5717 207.808 75.4268 207.851C75.2848 207.891 75.12 207.926 74.9325 207.957C74.7479 207.986 74.5675 208.011 74.3913 208.034C74.218 208.054 74.0774 208.071 73.9695 208.085C73.7081 208.119 73.4638 208.175 73.2365 208.251C73.0121 208.325 72.8303 208.437 72.6911 208.588C72.5547 208.736 72.4865 208.937 72.4865 209.193C72.4865 209.543 72.6158 209.807 72.8743 209.986C73.1357 210.162 73.4666 210.25 73.8672 210.25ZM79.555 207.062V211H78.5494V204.455H79.521V205.477H79.6062C79.7596 205.145 79.9925 204.878 80.305 204.676C80.6175 204.472 81.021 204.369 81.5153 204.369C81.9585 204.369 82.3462 204.46 82.6786 204.642C83.011 204.821 83.2695 205.094 83.4542 205.46C83.6388 205.824 83.7312 206.284 83.7312 206.841V211H82.7255V206.909C82.7255 206.395 82.592 205.994 82.3249 205.707C82.0579 205.418 81.6914 205.273 81.2255 205.273C80.9045 205.273 80.6175 205.342 80.3647 205.482C80.1147 205.621 79.9173 205.824 79.7724 206.091C79.6275 206.358 79.555 206.682 79.555 207.062Z" fill="#475467"/>
<path d="M99.6933 211V202.273H104.926V203.21H100.75V206.159H104.534V207.097H100.75V211H99.6933ZM108.864 211.136C108.233 211.136 107.689 210.997 107.232 210.719C106.777 210.438 106.426 210.045 106.179 209.543C105.935 209.037 105.813 208.449 105.813 207.778C105.813 207.108 105.935 206.517 106.179 206.006C106.426 205.491 106.77 205.091 107.21 204.804C107.654 204.514 108.171 204.369 108.761 204.369C109.102 204.369 109.439 204.426 109.771 204.54C110.104 204.653 110.406 204.838 110.679 205.094C110.952 205.347 111.169 205.682 111.331 206.099C111.493 206.517 111.574 207.031 111.574 207.642V208.068H106.529V207.199H110.551C110.551 206.83 110.477 206.5 110.33 206.21C110.185 205.92 109.977 205.692 109.707 205.524C109.44 205.357 109.125 205.273 108.761 205.273C108.361 205.273 108.014 205.372 107.722 205.571C107.432 205.767 107.209 206.023 107.053 206.338C106.896 206.653 106.818 206.991 106.818 207.352V207.932C106.818 208.426 106.904 208.845 107.074 209.189C107.247 209.53 107.487 209.79 107.794 209.969C108.101 210.145 108.457 210.233 108.864 210.233C109.128 210.233 109.367 210.196 109.58 210.122C109.796 210.045 109.982 209.932 110.138 209.781C110.294 209.628 110.415 209.437 110.5 209.21L111.472 209.483C111.369 209.812 111.198 210.102 110.956 210.352C110.715 210.599 110.416 210.793 110.061 210.932C109.706 211.068 109.307 211.136 108.864 211.136ZM113.24 211V202.273H114.246V205.494H114.331C114.405 205.381 114.507 205.236 114.638 205.06C114.771 204.881 114.962 204.722 115.209 204.582C115.459 204.44 115.797 204.369 116.223 204.369C116.774 204.369 117.26 204.507 117.681 204.783C118.101 205.058 118.429 205.449 118.665 205.955C118.901 206.46 119.019 207.057 119.019 207.744C119.019 208.438 118.901 209.038 118.665 209.547C118.429 210.053 118.102 210.445 117.685 210.723C117.267 210.999 116.786 211.136 116.24 211.136C115.82 211.136 115.483 211.067 115.23 210.928C114.977 210.786 114.783 210.625 114.646 210.446C114.51 210.264 114.405 210.114 114.331 209.994H114.212V211H113.24ZM114.229 207.727C114.229 208.222 114.301 208.658 114.446 209.036C114.591 209.411 114.803 209.705 115.081 209.918C115.359 210.128 115.7 210.233 116.104 210.233C116.524 210.233 116.875 210.122 117.156 209.901C117.44 209.676 117.654 209.375 117.796 208.997C117.94 208.616 118.013 208.193 118.013 207.727C118.013 207.267 117.942 206.852 117.8 206.483C117.661 206.111 117.449 205.817 117.165 205.601C116.884 205.382 116.53 205.273 116.104 205.273C115.695 205.273 115.351 205.376 115.073 205.584C114.794 205.788 114.584 206.075 114.442 206.445C114.3 206.811 114.229 207.239 114.229 207.727Z" fill="#475467"/>
<path d="M134.378 202.273H135.64L138.606 209.517H138.708L141.674 202.273H142.935V211H141.947V204.369H141.861L139.134 211H138.179L135.452 204.369H135.367V211H134.378V202.273ZM146.844 211.153C146.429 211.153 146.053 211.075 145.715 210.919C145.377 210.76 145.108 210.531 144.909 210.233C144.71 209.932 144.611 209.568 144.611 209.142C144.611 208.767 144.685 208.463 144.833 208.23C144.98 207.994 145.178 207.81 145.425 207.676C145.672 207.543 145.945 207.443 146.243 207.378C146.544 207.31 146.847 207.256 147.151 207.216C147.548 207.165 147.871 207.126 148.118 207.101C148.368 207.072 148.55 207.026 148.664 206.96C148.78 206.895 148.838 206.781 148.838 206.619V206.585C148.838 206.165 148.723 205.838 148.493 205.605C148.266 205.372 147.921 205.256 147.458 205.256C146.977 205.256 146.601 205.361 146.328 205.571C146.056 205.781 145.864 206.006 145.753 206.244L144.798 205.903C144.969 205.506 145.196 205.196 145.48 204.974C145.767 204.75 146.08 204.594 146.418 204.506C146.759 204.415 147.094 204.369 147.423 204.369C147.634 204.369 147.875 204.395 148.148 204.446C148.423 204.494 148.689 204.595 148.945 204.749C149.203 204.902 149.418 205.134 149.588 205.443C149.759 205.753 149.844 206.168 149.844 206.688V211H148.838V210.114H148.787C148.719 210.256 148.605 210.408 148.446 210.57C148.287 210.732 148.075 210.869 147.811 210.983C147.547 211.097 147.225 211.153 146.844 211.153ZM146.997 210.25C147.395 210.25 147.73 210.172 148.003 210.016C148.279 209.859 148.486 209.658 148.625 209.411C148.767 209.163 148.838 208.903 148.838 208.631V207.71C148.796 207.761 148.702 207.808 148.557 207.851C148.415 207.891 148.25 207.926 148.063 207.957C147.878 207.986 147.698 208.011 147.521 208.034C147.348 208.054 147.208 208.071 147.1 208.085C146.838 208.119 146.594 208.175 146.367 208.251C146.142 208.325 145.96 208.437 145.821 208.588C145.685 208.736 145.617 208.937 145.617 209.193C145.617 209.543 145.746 209.807 146.004 209.986C146.266 210.162 146.597 210.25 146.997 210.25ZM151.679 211V204.455H152.651V205.443H152.719C152.839 205.119 153.054 204.857 153.367 204.655C153.679 204.453 154.032 204.352 154.424 204.352C154.498 204.352 154.59 204.354 154.701 204.357C154.812 204.359 154.895 204.364 154.952 204.369V205.392C154.918 205.384 154.84 205.371 154.718 205.354C154.599 205.334 154.472 205.324 154.339 205.324C154.02 205.324 153.736 205.391 153.486 205.524C153.239 205.655 153.043 205.837 152.898 206.07C152.756 206.3 152.685 206.562 152.685 206.858V211H151.679Z" fill="#475467"/>
<path d="M170.381 211H169.273L172.477 202.273H173.568L176.773 211H175.665L173.057 203.653H172.989L170.381 211ZM170.79 207.591H175.256V208.528H170.79V207.591ZM177.996 213.455V204.455H178.967V205.494H179.087C179.16 205.381 179.263 205.236 179.393 205.06C179.527 204.881 179.717 204.722 179.964 204.582C180.214 204.44 180.552 204.369 180.979 204.369C181.53 204.369 182.016 204.507 182.436 204.783C182.856 205.058 183.185 205.449 183.42 205.955C183.656 206.46 183.774 207.057 183.774 207.744C183.774 208.438 183.656 209.038 183.42 209.547C183.185 210.053 182.858 210.445 182.44 210.723C182.023 210.999 181.541 211.136 180.996 211.136C180.575 211.136 180.239 211.067 179.986 210.928C179.733 210.786 179.538 210.625 179.402 210.446C179.266 210.264 179.16 210.114 179.087 209.994H179.001V213.455H177.996ZM178.984 207.727C178.984 208.222 179.057 208.658 179.202 209.036C179.347 209.411 179.558 209.705 179.837 209.918C180.115 210.128 180.456 210.233 180.859 210.233C181.28 210.233 181.631 210.122 181.912 209.901C182.196 209.676 182.409 209.375 182.551 208.997C182.696 208.616 182.768 208.193 182.768 207.727C182.768 207.267 182.697 206.852 182.555 206.483C182.416 206.111 182.204 205.817 181.92 205.601C181.639 205.382 181.285 205.273 180.859 205.273C180.45 205.273 180.106 205.376 179.828 205.584C179.55 205.788 179.339 206.075 179.197 206.445C179.055 206.811 178.984 207.239 178.984 207.727ZM185.308 211V204.455H186.28V205.443H186.348C186.467 205.119 186.683 204.857 186.996 204.655C187.308 204.453 187.66 204.352 188.052 204.352C188.126 204.352 188.219 204.354 188.329 204.357C188.44 204.359 188.524 204.364 188.581 204.369V205.392C188.547 205.384 188.469 205.371 188.347 205.354C188.227 205.334 188.101 205.324 187.967 205.324C187.649 205.324 187.365 205.391 187.115 205.524C186.868 205.655 186.672 205.837 186.527 206.07C186.385 206.3 186.314 206.562 186.314 206.858V211H185.308Z" fill="#475467"/>
<path d="M203.661 202.273H204.922L207.888 209.517H207.99L210.956 202.273H212.218V211H211.229V204.369H211.144L208.417 211H207.462L204.735 204.369H204.649V211H203.661V202.273ZM216.126 211.153C215.712 211.153 215.335 211.075 214.997 210.919C214.659 210.76 214.391 210.531 214.192 210.233C213.993 209.932 213.893 209.568 213.893 209.142C213.893 208.767 213.967 208.463 214.115 208.23C214.263 207.994 214.46 207.81 214.707 207.676C214.955 207.543 215.227 207.443 215.526 207.378C215.827 207.31 216.129 207.256 216.433 207.216C216.831 207.165 217.153 207.126 217.401 207.101C217.651 207.072 217.832 207.026 217.946 206.96C218.062 206.895 218.121 206.781 218.121 206.619V206.585C218.121 206.165 218.006 205.838 217.776 205.605C217.548 205.372 217.203 205.256 216.74 205.256C216.26 205.256 215.883 205.361 215.611 205.571C215.338 205.781 215.146 206.006 215.035 206.244L214.081 205.903C214.251 205.506 214.479 205.196 214.763 204.974C215.05 204.75 215.362 204.594 215.7 204.506C216.041 204.415 216.376 204.369 216.706 204.369C216.916 204.369 217.158 204.395 217.43 204.446C217.706 204.494 217.972 204.595 218.227 204.749C218.486 204.902 218.7 205.134 218.871 205.443C219.041 205.753 219.126 206.168 219.126 206.688V211H218.121V210.114H218.07C218.001 210.256 217.888 210.408 217.729 210.57C217.57 210.732 217.358 210.869 217.094 210.983C216.83 211.097 216.507 211.153 216.126 211.153ZM216.28 210.25C216.678 210.25 217.013 210.172 217.285 210.016C217.561 209.859 217.768 209.658 217.908 209.411C218.05 209.163 218.121 208.903 218.121 208.631V207.71C218.078 207.761 217.984 207.808 217.839 207.851C217.697 207.891 217.533 207.926 217.345 207.957C217.16 207.986 216.98 208.011 216.804 208.034C216.631 208.054 216.49 208.071 216.382 208.085C216.121 208.119 215.876 208.175 215.649 208.251C215.425 208.325 215.243 208.437 215.104 208.588C214.967 208.736 214.899 208.937 214.899 209.193C214.899 209.543 215.028 209.807 215.287 209.986C215.548 210.162 215.879 210.25 216.28 210.25ZM221.375 213.455C221.205 213.455 221.053 213.44 220.919 213.412C220.786 213.386 220.693 213.361 220.642 213.335L220.898 212.449C221.142 212.511 221.358 212.534 221.546 212.517C221.733 212.5 221.899 212.416 222.044 212.266C222.192 212.118 222.327 211.878 222.449 211.545L222.637 211.034L220.216 204.455H221.307L223.114 209.67H223.182L224.989 204.455H226.08L223.301 211.955C223.176 212.293 223.022 212.572 222.837 212.794C222.652 213.018 222.438 213.185 222.193 213.293C221.952 213.401 221.679 213.455 221.375 213.455Z" fill="#475467"/>
<path d="M244.826 202.273H245.883V208.511C245.883 209.068 245.78 209.541 245.576 209.93C245.371 210.32 245.083 210.615 244.711 210.817C244.338 211.018 243.9 211.119 243.394 211.119C242.917 211.119 242.492 211.033 242.12 210.859C241.748 210.683 241.455 210.433 241.242 210.109C241.029 209.786 240.922 209.401 240.922 208.955H241.962C241.962 209.202 242.023 209.418 242.145 209.602C242.27 209.784 242.441 209.926 242.657 210.028C242.873 210.131 243.118 210.182 243.394 210.182C243.698 210.182 243.956 210.118 244.169 209.99C244.383 209.862 244.544 209.675 244.655 209.428C244.769 209.178 244.826 208.872 244.826 208.511V202.273ZM251.989 208.324V204.455H252.995V211H251.989V209.892H251.921C251.767 210.224 251.529 210.507 251.205 210.74C250.881 210.97 250.472 211.085 249.978 211.085C249.569 211.085 249.205 210.996 248.887 210.817C248.569 210.635 248.319 210.362 248.137 209.999C247.955 209.632 247.864 209.17 247.864 208.614V204.455H248.87V208.545C248.87 209.023 249.003 209.403 249.27 209.688C249.54 209.972 249.884 210.114 250.302 210.114C250.552 210.114 250.806 210.05 251.064 209.922C251.326 209.794 251.544 209.598 251.721 209.334C251.9 209.07 251.989 208.733 251.989 208.324ZM255.842 207.062V211H254.837V204.455H255.808V205.477H255.894C256.047 205.145 256.28 204.878 256.592 204.676C256.905 204.472 257.308 204.369 257.803 204.369C258.246 204.369 258.634 204.46 258.966 204.642C259.298 204.821 259.557 205.094 259.742 205.46C259.926 205.824 260.019 206.284 260.019 206.841V211H259.013V206.909C259.013 206.395 258.879 205.994 258.612 205.707C258.345 205.418 257.979 205.273 257.513 205.273C257.192 205.273 256.905 205.342 256.652 205.482C256.402 205.621 256.205 205.824 256.06 206.091C255.915 206.358 255.842 206.682 255.842 207.062Z" fill="#475467"/>
<path d="M279.548 202.273H280.605V208.511C280.605 209.068 280.502 209.541 280.298 209.93C280.093 210.32 279.805 210.615 279.433 210.817C279.061 211.018 278.622 211.119 278.116 211.119C277.639 211.119 277.214 211.033 276.842 210.859C276.47 210.683 276.177 210.433 275.964 210.109C275.751 209.786 275.644 209.401 275.644 208.955H276.684C276.684 209.202 276.745 209.418 276.867 209.602C276.992 209.784 277.163 209.926 277.379 210.028C277.595 210.131 277.84 210.182 278.116 210.182C278.42 210.182 278.679 210.118 278.892 209.99C279.105 209.862 279.267 209.675 279.377 209.428C279.491 209.178 279.548 208.872 279.548 208.511V202.273ZM286.711 208.324V204.455H287.717V211H286.711V209.892H286.643C286.49 210.224 286.251 210.507 285.927 210.74C285.603 210.97 285.194 211.085 284.7 211.085C284.291 211.085 283.927 210.996 283.609 210.817C283.291 210.635 283.041 210.362 282.859 209.999C282.677 209.632 282.586 209.17 282.586 208.614V204.455H283.592V208.545C283.592 209.023 283.725 209.403 283.992 209.688C284.262 209.972 284.606 210.114 285.024 210.114C285.274 210.114 285.528 210.05 285.787 209.922C286.048 209.794 286.267 209.598 286.443 209.334C286.622 209.07 286.711 208.733 286.711 208.324ZM290.565 202.273V211H289.559V202.273H290.565Z" fill="#475467"/>
<path d="M307.172 211H306.064L309.269 202.273H310.36L313.564 211H312.456L309.848 203.653H309.78L307.172 211ZM307.581 207.591H312.047V208.528H307.581V207.591ZM318.912 208.324V204.455H319.918V211H318.912V209.892H318.844C318.691 210.224 318.452 210.507 318.128 210.74C317.804 210.97 317.395 211.085 316.901 211.085C316.492 211.085 316.128 210.996 315.81 210.817C315.492 210.635 315.242 210.362 315.06 209.999C314.878 209.632 314.787 209.17 314.787 208.614V204.455H315.793V208.545C315.793 209.023 315.926 209.403 316.193 209.688C316.463 209.972 316.807 210.114 317.225 210.114C317.475 210.114 317.729 210.05 317.987 209.922C318.249 209.794 318.468 209.598 318.644 209.334C318.823 209.07 318.912 208.733 318.912 208.324ZM324.402 213.591C323.916 213.591 323.498 213.528 323.149 213.403C322.8 213.281 322.508 213.119 322.275 212.918C322.045 212.719 321.862 212.506 321.726 212.278L322.527 211.716C322.618 211.835 322.733 211.972 322.872 212.125C323.011 212.281 323.202 212.416 323.443 212.53C323.687 212.646 324.007 212.705 324.402 212.705C324.93 212.705 325.366 212.577 325.71 212.321C326.054 212.065 326.226 211.665 326.226 211.119V209.79H326.14C326.067 209.909 325.962 210.057 325.825 210.233C325.692 210.406 325.498 210.561 325.246 210.697C324.996 210.831 324.658 210.898 324.231 210.898C323.703 210.898 323.229 210.773 322.808 210.523C322.39 210.273 322.06 209.909 321.815 209.432C321.574 208.955 321.453 208.375 321.453 207.693C321.453 207.023 321.571 206.439 321.807 205.942C322.042 205.442 322.371 205.055 322.791 204.783C323.212 204.507 323.697 204.369 324.248 204.369C324.675 204.369 325.013 204.44 325.263 204.582C325.515 204.722 325.709 204.881 325.842 205.06C325.979 205.236 326.084 205.381 326.158 205.494H326.26V204.455H327.231V211.188C327.231 211.75 327.104 212.207 326.848 212.56C326.595 212.915 326.254 213.175 325.825 213.339C325.399 213.507 324.925 213.591 324.402 213.591ZM324.368 209.994C324.771 209.994 325.112 209.902 325.39 209.717C325.669 209.533 325.881 209.267 326.025 208.92C326.17 208.574 326.243 208.159 326.243 207.676C326.243 207.205 326.172 206.788 326.03 206.428C325.888 206.067 325.677 205.784 325.399 205.58C325.121 205.375 324.777 205.273 324.368 205.273C323.942 205.273 323.587 205.381 323.302 205.597C323.021 205.812 322.81 206.102 322.667 206.466C322.528 206.83 322.459 207.233 322.459 207.676C322.459 208.131 322.53 208.533 322.672 208.882C322.817 209.229 323.03 209.501 323.311 209.7C323.595 209.896 323.947 209.994 324.368 209.994Z" fill="#475467"/>
<path d="M347.946 204.455C347.895 204.023 347.687 203.688 347.324 203.449C346.96 203.21 346.514 203.091 345.986 203.091C345.599 203.091 345.261 203.153 344.971 203.278C344.684 203.403 344.46 203.575 344.298 203.794C344.139 204.013 344.059 204.261 344.059 204.54C344.059 204.773 344.115 204.973 344.226 205.141C344.339 205.305 344.484 205.443 344.66 205.554C344.836 205.662 345.021 205.751 345.214 205.822C345.407 205.891 345.585 205.946 345.747 205.989L346.633 206.227C346.861 206.287 347.113 206.369 347.392 206.474C347.673 206.58 347.941 206.723 348.197 206.905C348.456 207.084 348.669 207.314 348.836 207.595C349.004 207.876 349.088 208.222 349.088 208.631C349.088 209.102 348.964 209.528 348.717 209.909C348.473 210.29 348.115 210.592 347.643 210.817C347.174 211.041 346.605 211.153 345.934 211.153C345.309 211.153 344.768 211.053 344.311 210.851C343.856 210.649 343.498 210.368 343.237 210.007C342.978 209.646 342.832 209.227 342.798 208.75H343.889C343.917 209.08 344.028 209.352 344.221 209.568C344.417 209.781 344.665 209.94 344.963 210.045C345.264 210.148 345.588 210.199 345.934 210.199C346.338 210.199 346.7 210.134 347.021 210.003C347.342 209.869 347.596 209.685 347.784 209.449C347.971 209.21 348.065 208.932 348.065 208.614C348.065 208.324 347.984 208.088 347.822 207.906C347.66 207.724 347.447 207.577 347.183 207.463C346.919 207.349 346.633 207.25 346.326 207.165L345.253 206.858C344.571 206.662 344.031 206.382 343.633 206.018C343.236 205.655 343.037 205.179 343.037 204.591C343.037 204.102 343.169 203.676 343.433 203.312C343.7 202.946 344.058 202.662 344.507 202.46C344.959 202.256 345.463 202.153 346.02 202.153C346.582 202.153 347.082 202.254 347.52 202.456C347.957 202.655 348.304 202.928 348.559 203.274C348.818 203.621 348.954 204.014 348.968 204.455H347.946ZM353.433 211.136C352.803 211.136 352.259 210.997 351.801 210.719C351.347 210.438 350.996 210.045 350.749 209.543C350.504 209.037 350.382 208.449 350.382 207.778C350.382 207.108 350.504 206.517 350.749 206.006C350.996 205.491 351.34 205.091 351.78 204.804C352.223 204.514 352.74 204.369 353.331 204.369C353.672 204.369 354.009 204.426 354.341 204.54C354.673 204.653 354.976 204.838 355.249 205.094C355.521 205.347 355.739 205.682 355.901 206.099C356.063 206.517 356.144 207.031 356.144 207.642V208.068H351.098V207.199H355.121C355.121 206.83 355.047 206.5 354.899 206.21C354.754 205.92 354.547 205.692 354.277 205.524C354.01 205.357 353.695 205.273 353.331 205.273C352.93 205.273 352.584 205.372 352.291 205.571C352.002 205.767 351.778 206.023 351.622 206.338C351.466 206.653 351.388 206.991 351.388 207.352V207.932C351.388 208.426 351.473 208.845 351.644 209.189C351.817 209.53 352.057 209.79 352.364 209.969C352.671 210.145 353.027 210.233 353.433 210.233C353.698 210.233 353.936 210.196 354.149 210.122C354.365 210.045 354.551 209.932 354.707 209.781C354.864 209.628 354.984 209.437 355.07 209.21L356.041 209.483C355.939 209.812 355.767 210.102 355.526 210.352C355.284 210.599 354.986 210.793 354.631 210.932C354.276 211.068 353.877 211.136 353.433 211.136ZM357.673 213.455V204.455H358.645V205.494H358.764C358.838 205.381 358.94 205.236 359.071 205.06C359.205 204.881 359.395 204.722 359.642 204.582C359.892 204.44 360.23 204.369 360.656 204.369C361.207 204.369 361.693 204.507 362.114 204.783C362.534 205.058 362.862 205.449 363.098 205.955C363.334 206.46 363.452 207.057 363.452 207.744C363.452 208.438 363.334 209.038 363.098 209.547C362.862 210.053 362.536 210.445 362.118 210.723C361.7 210.999 361.219 211.136 360.673 211.136C360.253 211.136 359.916 211.067 359.663 210.928C359.411 210.786 359.216 210.625 359.08 210.446C358.943 210.264 358.838 210.114 358.764 209.994H358.679V213.455H357.673ZM358.662 207.727C358.662 208.222 358.734 208.658 358.879 209.036C359.024 209.411 359.236 209.705 359.514 209.918C359.793 210.128 360.134 210.233 360.537 210.233C360.957 210.233 361.308 210.122 361.59 209.901C361.874 209.676 362.087 209.375 362.229 208.997C362.374 208.616 362.446 208.193 362.446 207.727C362.446 207.267 362.375 206.852 362.233 206.483C362.094 206.111 361.882 205.817 361.598 205.601C361.317 205.382 360.963 205.273 360.537 205.273C360.128 205.273 359.784 205.376 359.506 205.584C359.227 205.788 359.017 206.075 358.875 206.445C358.733 206.811 358.662 207.239 358.662 207.727Z" fill="#475467"/>
<path d="M386.546 206.636C386.546 207.557 386.38 208.352 386.048 209.023C385.715 209.693 385.259 210.21 384.68 210.574C384.1 210.938 383.438 211.119 382.694 211.119C381.95 211.119 381.288 210.938 380.708 210.574C380.129 210.21 379.673 209.693 379.34 209.023C379.008 208.352 378.842 207.557 378.842 206.636C378.842 205.716 379.008 204.92 379.34 204.25C379.673 203.58 380.129 203.062 380.708 202.699C381.288 202.335 381.95 202.153 382.694 202.153C383.438 202.153 384.1 202.335 384.68 202.699C385.259 203.062 385.715 203.58 386.048 204.25C386.38 204.92 386.546 205.716 386.546 206.636ZM385.523 206.636C385.523 205.881 385.397 205.243 385.144 204.723C384.894 204.203 384.555 203.81 384.126 203.543C383.7 203.276 383.222 203.142 382.694 203.142C382.166 203.142 381.687 203.276 381.258 203.543C380.832 203.81 380.492 204.203 380.239 204.723C379.989 205.243 379.864 205.881 379.864 206.636C379.864 207.392 379.989 208.03 380.239 208.55C380.492 209.07 380.832 209.463 381.258 209.73C381.687 209.997 382.166 210.131 382.694 210.131C383.222 210.131 383.7 209.997 384.126 209.73C384.555 209.463 384.894 209.07 385.144 208.55C385.397 208.03 385.523 207.392 385.523 206.636ZM390.846 211.136C390.232 211.136 389.704 210.991 389.261 210.702C388.817 210.412 388.477 210.013 388.238 209.504C387.999 208.996 387.88 208.415 387.88 207.761C387.88 207.097 388.002 206.51 388.246 206.001C388.494 205.49 388.837 205.091 389.278 204.804C389.721 204.514 390.238 204.369 390.829 204.369C391.289 204.369 391.704 204.455 392.073 204.625C392.442 204.795 392.745 205.034 392.981 205.341C393.217 205.648 393.363 206.006 393.42 206.415H392.414C392.337 206.116 392.167 205.852 391.903 205.622C391.641 205.389 391.289 205.273 390.846 205.273C390.454 205.273 390.11 205.375 389.815 205.58C389.522 205.781 389.293 206.067 389.129 206.436C388.967 206.803 388.886 207.233 388.886 207.727C388.886 208.233 388.965 208.673 389.124 209.048C389.286 209.423 389.514 209.714 389.806 209.922C390.102 210.129 390.448 210.233 390.846 210.233C391.107 210.233 391.344 210.188 391.558 210.097C391.771 210.006 391.951 209.875 392.099 209.705C392.246 209.534 392.352 209.33 392.414 209.091H393.42C393.363 209.477 393.222 209.825 392.998 210.135C392.776 210.442 392.482 210.686 392.116 210.868C391.752 211.047 391.329 211.136 390.846 211.136ZM397.737 204.455V205.307H394.344V204.455H397.737ZM395.333 202.886H396.339V209.125C396.339 209.409 396.38 209.622 396.462 209.764C396.548 209.903 396.656 209.997 396.786 210.045C396.92 210.091 397.06 210.114 397.208 210.114C397.319 210.114 397.41 210.108 397.481 210.097C397.552 210.082 397.609 210.071 397.651 210.062L397.856 210.966C397.788 210.991 397.692 211.017 397.57 211.043C397.448 211.071 397.293 211.085 397.106 211.085C396.822 211.085 396.543 211.024 396.271 210.902C396.001 210.78 395.776 210.594 395.597 210.344C395.421 210.094 395.333 209.778 395.333 209.398V202.886Z" fill="#475467"/>
<path d="M420.521 202.273V211H419.498L414.742 204.148H414.657V211H413.6V202.273H414.623L419.396 209.142H419.481V202.273H420.521ZM425.158 211.136C424.567 211.136 424.049 210.996 423.603 210.714C423.16 210.433 422.813 210.04 422.563 209.534C422.316 209.028 422.192 208.437 422.192 207.761C422.192 207.08 422.316 206.484 422.563 205.976C422.813 205.467 423.16 205.072 423.603 204.791C424.049 204.51 424.567 204.369 425.158 204.369C425.749 204.369 426.266 204.51 426.709 204.791C427.155 205.072 427.502 205.467 427.749 205.976C427.999 206.484 428.124 207.08 428.124 207.761C428.124 208.437 427.999 209.028 427.749 209.534C427.502 210.04 427.155 210.433 426.709 210.714C426.266 210.996 425.749 211.136 425.158 211.136ZM425.158 210.233C425.607 210.233 425.976 210.118 426.266 209.888C426.556 209.658 426.77 209.355 426.91 208.98C427.049 208.605 427.118 208.199 427.118 207.761C427.118 207.324 427.049 206.916 426.91 206.538C426.77 206.161 426.556 205.855 426.266 205.622C425.976 205.389 425.607 205.273 425.158 205.273C424.709 205.273 424.34 205.389 424.05 205.622C423.76 205.855 423.546 206.161 423.407 206.538C423.268 206.916 423.198 207.324 423.198 207.761C423.198 208.199 423.268 208.605 423.407 208.98C423.546 209.355 423.76 209.658 424.05 209.888C424.34 210.118 424.709 210.233 425.158 210.233ZM434.777 204.455L432.357 211H431.334L428.913 204.455H430.004L431.811 209.67H431.879L433.686 204.455H434.777Z" fill="#475467"/>
<path d="M453.094 211H450.401V202.273H453.213C454.06 202.273 454.784 202.447 455.386 202.797C455.989 203.143 456.45 203.642 456.771 204.293C457.092 204.94 457.253 205.716 457.253 206.619C457.253 207.528 457.091 208.311 456.767 208.967C456.443 209.621 455.972 210.124 455.352 210.476C454.733 210.825 453.98 211 453.094 211ZM451.457 210.062H453.026C453.747 210.062 454.345 209.923 454.82 209.645C455.294 209.366 455.648 208.97 455.881 208.456C456.114 207.942 456.23 207.33 456.23 206.619C456.23 205.915 456.115 205.308 455.885 204.8C455.655 204.288 455.311 203.896 454.854 203.624C454.396 203.348 453.827 203.21 453.145 203.21H451.457V210.062ZM461.634 211.136C461.003 211.136 460.459 210.997 460.001 210.719C459.547 210.438 459.196 210.045 458.949 209.543C458.705 209.037 458.582 208.449 458.582 207.778C458.582 207.108 458.705 206.517 458.949 206.006C459.196 205.491 459.54 205.091 459.98 204.804C460.423 204.514 460.94 204.369 461.531 204.369C461.872 204.369 462.209 204.426 462.541 204.54C462.874 204.653 463.176 204.838 463.449 205.094C463.722 205.347 463.939 205.682 464.101 206.099C464.263 206.517 464.344 207.031 464.344 207.642V208.068H459.298V207.199H463.321C463.321 206.83 463.247 206.5 463.099 206.21C462.955 205.92 462.747 205.692 462.477 205.524C462.21 205.357 461.895 205.273 461.531 205.273C461.131 205.273 460.784 205.372 460.491 205.571C460.202 205.767 459.979 206.023 459.822 206.338C459.666 206.653 459.588 206.991 459.588 207.352V207.932C459.588 208.426 459.673 208.845 459.844 209.189C460.017 209.53 460.257 209.79 460.564 209.969C460.871 210.145 461.227 210.233 461.634 210.233C461.898 210.233 462.136 210.196 462.349 210.122C462.565 210.045 462.751 209.932 462.908 209.781C463.064 209.628 463.185 209.437 463.27 209.21L464.241 209.483C464.139 209.812 463.967 210.102 463.726 210.352C463.484 210.599 463.186 210.793 462.831 210.932C462.476 211.068 462.077 211.136 461.634 211.136ZM468.533 211.136C467.919 211.136 467.391 210.991 466.947 210.702C466.504 210.412 466.163 210.013 465.925 209.504C465.686 208.996 465.567 208.415 465.567 207.761C465.567 207.097 465.689 206.51 465.933 206.001C466.18 205.49 466.524 205.091 466.964 204.804C467.408 204.514 467.925 204.369 468.516 204.369C468.976 204.369 469.391 204.455 469.76 204.625C470.129 204.795 470.432 205.034 470.668 205.341C470.903 205.648 471.05 206.006 471.107 206.415H470.101C470.024 206.116 469.854 205.852 469.589 205.622C469.328 205.389 468.976 205.273 468.533 205.273C468.141 205.273 467.797 205.375 467.501 205.58C467.209 205.781 466.98 206.067 466.815 206.436C466.653 206.803 466.572 207.233 466.572 207.727C466.572 208.233 466.652 208.673 466.811 209.048C466.973 209.423 467.2 209.714 467.493 209.922C467.788 210.129 468.135 210.233 468.533 210.233C468.794 210.233 469.031 210.188 469.244 210.097C469.457 210.006 469.638 209.875 469.786 209.705C469.933 209.534 470.038 209.33 470.101 209.091H471.107C471.05 209.477 470.909 209.825 470.685 210.135C470.463 210.442 470.169 210.686 469.803 210.868C469.439 211.047 469.016 211.136 468.533 211.136Z" fill="#475467"/>
<path d="M230.461 226.273H232.059L234.837 233.057H234.939L237.718 226.273H239.316V235H238.063V228.685H237.982L235.408 234.987H234.368L231.795 228.68H231.714V235H230.461V226.273ZM243.885 235.132C243.271 235.132 242.736 234.991 242.279 234.71C241.821 234.429 241.466 234.036 241.213 233.53C240.96 233.024 240.834 232.433 240.834 231.757C240.834 231.078 240.96 230.484 241.213 229.976C241.466 229.467 241.821 229.072 242.279 228.791C242.736 228.51 243.271 228.369 243.885 228.369C244.499 228.369 245.034 228.51 245.492 228.791C245.949 229.072 246.304 229.467 246.557 229.976C246.81 230.484 246.936 231.078 246.936 231.757C246.936 232.433 246.81 233.024 246.557 233.53C246.304 234.036 245.949 234.429 245.492 234.71C245.034 234.991 244.499 235.132 243.885 235.132ZM243.889 234.062C244.287 234.062 244.617 233.957 244.878 233.747C245.139 233.537 245.333 233.257 245.458 232.908C245.585 232.558 245.649 232.173 245.649 231.753C245.649 231.335 245.585 230.952 245.458 230.602C245.333 230.25 245.139 229.967 244.878 229.754C244.617 229.541 244.287 229.435 243.889 229.435C243.489 229.435 243.156 229.541 242.892 229.754C242.631 229.967 242.436 230.25 242.308 230.602C242.183 230.952 242.121 231.335 242.121 231.753C242.121 232.173 242.183 232.558 242.308 232.908C242.436 233.257 242.631 233.537 242.892 233.747C243.156 233.957 243.489 234.062 243.889 234.062ZM249.633 231.114V235H248.358V228.455H249.581V229.52H249.662C249.813 229.173 250.049 228.895 250.37 228.685C250.694 228.474 251.101 228.369 251.593 228.369C252.039 228.369 252.43 228.463 252.765 228.651C253.1 228.835 253.36 229.111 253.545 229.477C253.729 229.844 253.822 230.297 253.822 230.837V235H252.547V230.99C252.547 230.516 252.424 230.145 252.177 229.878C251.93 229.608 251.59 229.473 251.158 229.473C250.863 229.473 250.6 229.537 250.37 229.665C250.143 229.793 249.962 229.98 249.829 230.227C249.698 230.472 249.633 230.767 249.633 231.114ZM258.586 228.455V229.477H255.01V228.455H258.586ZM255.969 226.886H257.243V233.078C257.243 233.325 257.28 233.511 257.354 233.636C257.428 233.759 257.523 233.842 257.64 233.888C257.759 233.93 257.888 233.952 258.028 233.952C258.13 233.952 258.219 233.945 258.296 233.93C258.373 233.916 258.432 233.905 258.475 233.896L258.705 234.949C258.631 234.977 258.526 235.006 258.39 235.034C258.253 235.065 258.083 235.082 257.878 235.085C257.543 235.091 257.231 235.031 256.941 234.906C256.651 234.781 256.417 234.588 256.238 234.327C256.059 234.065 255.969 233.737 255.969 233.342V226.886ZM261.41 231.114V235H260.136V226.273H261.393V229.52H261.474C261.627 229.168 261.862 228.888 262.177 228.68C262.492 228.473 262.904 228.369 263.413 228.369C263.862 228.369 264.254 228.462 264.589 228.646C264.927 228.831 265.188 229.107 265.373 229.473C265.561 229.837 265.654 230.291 265.654 230.837V235H264.38V230.99C264.38 230.51 264.257 230.138 264.009 229.874C263.762 229.607 263.419 229.473 262.978 229.473C262.677 229.473 262.407 229.537 262.169 229.665C261.933 229.793 261.747 229.98 261.61 230.227C261.477 230.472 261.41 230.767 261.41 231.114Z" fill="#475467"/>
<path d="M60 111C60 107.686 62.6863 105 66 105H86C89.3137 105 92 107.686 92 111V190H60V111Z" fill="#356D00"/>
<path d="M94.9092 79C94.9092 75.6863 97.5955 73 100.909 73H120.909C124.223 73 126.909 75.6863 126.909 79V190H94.9092V79Z" fill="#356D00"/>
<path d="M129.818 143C129.818 139.686 132.504 137 135.818 137H155.818C159.132 137 161.818 139.686 161.818 143V190H129.818V143Z" fill="#356D00"/>
<path d="M164.727 103C164.727 99.6863 167.414 97 170.727 97H190.727C194.041 97 196.727 99.6863 196.727 103V190H164.727V103Z" fill="#356D00"/>
<path d="M199.636 143C199.636 139.686 202.323 137 205.636 137H225.636C228.95 137 231.636 139.686 231.636 143V190H199.636V143Z" fill="#356D00"/>
<path d="M234.545 87C234.545 83.6863 237.232 81 240.545 81H260.545C263.859 81 266.545 83.6863 266.545 87V190H234.545V87Z" fill="#356D00"/>
<path d="M269.455 111C269.455 107.686 272.141 105 275.455 105H295.455C298.768 105 301.455 107.686 301.455 111V190H269.455V111Z" fill="#356D00"/>
<path d="M304.364 103C304.364 99.6863 307.05 97 310.364 97H330.364C333.677 97 336.364 99.6863 336.364 103V190H304.364V103Z" fill="#356D00"/>
<path d="M339.273 111C339.273 107.686 341.959 105 345.273 105H365.273C368.586 105 371.273 107.686 371.273 111V190H339.273V111Z" fill="#356D00"/>
<path d="M374.182 95C374.182 91.6863 376.868 89 380.182 89H400.182C403.496 89 406.182 91.6863 406.182 95V190H374.182V95Z" fill="#356D00"/>
<path d="M409.091 79C409.091 75.6863 411.777 73 415.091 73H435.091C438.405 73 441.091 75.6863 441.091 79V190H409.091V79Z" fill="#356D00"/>
<path d="M444 119C444 115.686 446.686 113 450 113H470C473.314 113 476 115.686 476 119V190H444V119Z" fill="#356D00"/>
</svg>
