<svg width="20" height="20" viewBox="0 0 20 20" fill="none" xmlns="http://www.w3.org/2000/svg">
<path d="M10.8833 6.7582L12.0625 7.93737C12.6042 8.47905 13.0339 9.12214 13.3271 9.82991C13.6203 10.5377 13.7712 11.2963 13.7712 12.0624C13.7712 12.8285 13.6203 13.5871 13.3271 14.2948C13.0339 15.0026 12.6042 15.6457 12.0625 16.1874L11.7675 16.4815C10.6735 17.5756 9.18964 18.1902 7.64247 18.1902C6.09529 18.1902 4.61149 17.5756 3.51747 16.4815C2.42345 15.3875 1.80884 13.9037 1.80884 12.3565C1.80884 10.8094 2.42345 9.32555 3.51747 8.23153L4.69664 9.4107C4.30694 9.79699 3.99739 10.2565 3.78574 10.7627C3.5741 11.269 3.46453 11.812 3.46333 12.3607C3.46212 12.9094 3.56931 13.453 3.77874 13.9602C3.98817 14.4673 4.29571 14.9281 4.6837 15.3161C5.0717 15.7041 5.53251 16.0117 6.03968 16.2211C6.54686 16.4305 7.0904 16.5377 7.63911 16.5365C8.18781 16.5353 8.73088 16.4257 9.23713 16.2141C9.74338 16.0024 10.2028 15.6929 10.5891 15.3032L10.8841 15.0082C11.6653 14.2268 12.1041 13.1672 12.1041 12.0624C12.1041 10.9575 11.6653 9.8979 10.8841 9.11653L9.70497 7.93737L10.8841 6.75903L10.8833 6.7582ZM16.4816 11.7674L15.3033 10.589C15.693 10.2027 16.0025 9.74328 16.2142 9.23703C16.4258 8.73078 16.5354 8.18771 16.5366 7.63901C16.5378 7.0903 16.4306 6.54675 16.2212 6.03958C16.0118 5.53241 15.7042 5.0716 15.3162 4.6836C14.9282 4.29561 14.4674 3.98807 13.9603 3.77864C13.4531 3.56921 12.9095 3.46202 12.3608 3.46322C11.8121 3.46443 11.2691 3.574 10.7628 3.78564C10.2566 3.99729 9.7971 4.30684 9.4108 4.69653L9.1158 4.99153C8.33467 5.7729 7.89586 6.83252 7.89586 7.93737C7.89586 9.04222 8.33467 10.1018 9.1158 10.8832L10.295 12.0624L9.1158 13.2407L7.93747 12.0624C7.39573 11.5207 6.966 10.8776 6.67281 10.1698C6.37962 9.46205 6.22871 8.70346 6.22871 7.93737C6.22871 7.17127 6.37962 6.41268 6.67281 5.70491C6.966 4.99714 7.39573 4.35405 7.93747 3.81237L8.23247 3.5182C9.32649 2.42418 10.8103 1.80957 12.3575 1.80957C13.9046 1.80957 15.3885 2.42418 16.4825 3.5182C17.5765 4.61222 18.1911 6.09603 18.1911 7.6432C18.1911 9.19038 17.5765 10.6742 16.4825 11.7682L16.4816 11.7674Z" fill="#868C98"/>
</svg>
