<svg width="20" height="20" viewBox="0 0 20 20" fill="none" xmlns="http://www.w3.org/2000/svg">
<path d="M10.8833 6.75918L12.0625 7.93834C12.6042 8.48003 13.0339 9.12312 13.3271 9.83089C13.6203 10.5387 13.7712 11.2973 13.7712 12.0633C13.7712 12.8294 13.6203 13.588 13.3271 14.2958C13.0339 15.0036 12.6042 15.6467 12.0625 16.1883L11.7675 16.4825C10.6735 17.5765 9.18964 18.1911 7.64247 18.1911C6.09529 18.1911 4.61149 17.5765 3.51747 16.4825C2.42345 15.3885 1.80884 13.9047 1.80884 12.3575C1.80884 10.8103 2.42345 9.32653 3.51747 8.23251L4.69664 9.41168C4.30694 9.79797 3.99739 10.2574 3.78574 10.7637C3.5741 11.2699 3.46453 11.813 3.46333 12.3617C3.46212 12.9104 3.56931 13.454 3.77874 13.9611C3.98817 14.4683 4.29571 14.9291 4.6837 15.3171C5.0717 15.7051 5.53251 16.0126 6.03968 16.2221C6.54686 16.4315 7.0904 16.5387 7.63911 16.5375C8.18781 16.5363 8.73088 16.4267 9.23713 16.2151C9.74338 16.0034 10.2028 15.6939 10.5891 15.3042L10.8841 15.0092C11.6653 14.2278 12.1041 13.1682 12.1041 12.0633C12.1041 10.9585 11.6653 9.89888 10.8841 9.11751L9.70497 7.93834L10.8841 6.76001L10.8833 6.75918ZM16.4816 11.7683L15.3033 10.59C15.693 10.2037 16.0025 9.74426 16.2142 9.23801C16.4258 8.73176 16.5354 8.18869 16.5366 7.63998C16.5378 7.09127 16.4306 6.54773 16.2212 6.04056C16.0118 5.53339 15.7042 5.07258 15.3162 4.68458C14.9282 4.29658 14.4674 3.98904 13.9603 3.77962C13.4531 3.57019 12.9095 3.463 12.3608 3.4642C11.8121 3.4654 11.2691 3.57497 10.7628 3.78662C10.2566 3.99826 9.7971 4.30782 9.4108 4.69751L9.1158 4.99251C8.33467 5.77388 7.89586 6.83349 7.89586 7.93834C7.89586 9.04319 8.33467 10.1028 9.1158 10.8842L10.295 12.0633L9.1158 13.2417L7.93747 12.0633C7.39573 11.5217 6.966 10.8786 6.67281 10.1708C6.37962 9.46303 6.22871 8.70444 6.22871 7.93834C6.22871 7.17225 6.37962 6.41366 6.67281 5.70589C6.966 4.99812 7.39573 4.35503 7.93747 3.81334L8.23247 3.51918C9.32649 2.42516 10.8103 1.81055 12.3575 1.81055C13.9046 1.81055 15.3885 2.42516 16.4825 3.51918C17.5765 4.6132 18.1911 6.097 18.1911 7.64418C18.1911 9.19135 17.5765 10.6752 16.4825 11.7692L16.4816 11.7683Z" fill="#356D00"/>
</svg>
