<svg width="20" height="20" viewBox="0 0 20 20" fill="none" xmlns="http://www.w3.org/2000/svg">
<path d="M4.16667 6.66663V16.6666H15.8333V6.66663H4.16667ZM4.16667 4.99996H15.8333V3.33329H4.16667V4.99996ZM16.6667 18.3333H3.33333C3.11232 18.3333 2.90036 18.2455 2.74408 18.0892C2.5878 17.9329 2.5 17.721 2.5 17.5V2.49996C2.5 2.27895 2.5878 2.06698 2.74408 1.9107C2.90036 1.75442 3.11232 1.66663 3.33333 1.66663H16.6667C16.8877 1.66663 17.0996 1.75442 17.2559 1.9107C17.4122 2.06698 17.5 2.27895 17.5 2.49996V17.5C17.5 17.721 17.4122 17.9329 17.2559 18.0892C17.0996 18.2455 16.8877 18.3333 16.6667 18.3333ZM5.83333 8.33329H9.16667V11.6666H5.83333V8.33329ZM5.83333 13.3333H14.1667V15H5.83333V13.3333ZM10.8333 9.16663H14.1667V10.8333H10.8333V9.16663Z" fill="#868C98"/>
</svg>
