<svg width="16" height="19" viewBox="0 0 16 19" fill="none" xmlns="http://www.w3.org/2000/svg">
<path d="M6.99992 11.6666V13.3333C5.67384 13.3333 4.40207 13.86 3.46438 14.7977C2.5267 15.7354 1.99992 17.0072 1.99992 18.3333H0.333252C0.333252 16.5651 1.03563 14.8694 2.28587 13.6192C3.53612 12.369 5.23181 11.6666 6.99992 11.6666ZM6.99992 10.8333C4.23742 10.8333 1.99992 8.59575 1.99992 5.83325C1.99992 3.07075 4.23742 0.833252 6.99992 0.833252C9.76242 0.833252 11.9999 3.07075 11.9999 5.83325C11.9999 8.59575 9.76242 10.8333 6.99992 10.8333ZM6.99992 9.16658C8.84159 9.16658 10.3333 7.67492 10.3333 5.83325C10.3333 3.99159 8.84159 2.49992 6.99992 2.49992C5.15825 2.49992 3.66659 3.99159 3.66659 5.83325C3.66659 7.67492 5.15825 9.16658 6.99992 9.16658ZM9.16242 15.6766C9.05676 15.2319 9.05676 14.7687 9.16242 14.3241L8.33575 13.8466L9.16908 12.4033L9.99575 12.8808C10.3276 12.5665 10.7286 12.3347 11.1666 12.2041V11.2499H12.8333V12.2041C13.2766 12.3358 13.6766 12.5708 14.0041 12.8808L14.8308 12.4033L15.6641 13.8466L14.8374 14.3241C14.9429 14.7685 14.9429 15.2314 14.8374 15.6758L15.6641 16.1533L14.8308 17.5966L14.0041 17.1191C13.6723 17.4334 13.2712 17.6651 12.8333 17.7958V18.7499H11.1666V17.7958C10.7286 17.6651 10.3276 17.4334 9.99575 17.1191L9.16908 17.5966L8.33575 16.1533L9.16242 15.6766ZM11.9999 16.2499C12.3314 16.2499 12.6494 16.1182 12.8838 15.8838C13.1182 15.6494 13.2499 15.3314 13.2499 14.9999C13.2499 14.6684 13.1182 14.3505 12.8838 14.116C12.6494 13.8816 12.3314 13.7499 11.9999 13.7499C11.6684 13.7499 11.3505 13.8816 11.116 14.116C10.8816 14.3505 10.7499 14.6684 10.7499 14.9999C10.7499 15.3314 10.8816 15.6494 11.116 15.8838C11.3505 16.1182 11.6684 16.2499 11.9999 16.2499Z" fill="#868C98"/>
</svg>
