<svg width="16" height="19" viewBox="0 0 16 19" fill="none" xmlns="http://www.w3.org/2000/svg">
<path d="M7.00004 11.6668V13.3335C5.67396 13.3335 4.40219 13.8603 3.46451 14.798C2.52682 15.7356 2.00004 17.0074 2.00004 18.3335H0.333374C0.333374 16.5654 1.03575 14.8697 2.286 13.6195C3.53624 12.3692 5.23193 11.6668 7.00004 11.6668ZM7.00004 10.8335C4.23754 10.8335 2.00004 8.596 2.00004 5.8335C2.00004 3.071 4.23754 0.833496 7.00004 0.833496C9.76254 0.833496 12 3.071 12 5.8335C12 8.596 9.76254 10.8335 7.00004 10.8335ZM7.00004 9.16683C8.84171 9.16683 10.3334 7.67516 10.3334 5.8335C10.3334 3.99183 8.84171 2.50016 7.00004 2.50016C5.15837 2.50016 3.66671 3.99183 3.66671 5.8335C3.66671 7.67516 5.15837 9.16683 7.00004 9.16683ZM9.16254 15.6768C9.05688 15.2322 9.05688 14.769 9.16254 14.3243L8.33587 13.8468L9.16921 12.4035L9.99587 12.881C10.3277 12.5667 10.7288 12.3349 11.1667 12.2043V11.2502H12.8334V12.2043C13.2767 12.336 13.6767 12.571 14.0042 12.881L14.8309 12.4035L15.6642 13.8468L14.8375 14.3243C14.9431 14.7687 14.9431 15.2316 14.8375 15.676L15.6642 16.1535L14.8309 17.5968L14.0042 17.1193C13.6724 17.4336 13.2713 17.6654 12.8334 17.796V18.7502H11.1667V17.796C10.7288 17.6654 10.3277 17.4336 9.99587 17.1193L9.16921 17.5968L8.33587 16.1535L9.16254 15.6768ZM12 16.2502C12.3316 16.2502 12.6495 16.1185 12.8839 15.884C13.1183 15.6496 13.25 15.3317 13.25 15.0002C13.25 14.6686 13.1183 14.3507 12.8839 14.1163C12.6495 13.8819 12.3316 13.7502 12 13.7502C11.6685 13.7502 11.3506 13.8819 11.1162 14.1163C10.8817 14.3507 10.75 14.6686 10.75 15.0002C10.75 15.3317 10.8817 15.6496 11.1162 15.884C11.3506 16.1185 11.6685 16.2502 12 16.2502Z" fill="#356D00"/>
</svg>
