<svg width="20" height="20" viewBox="0 0 20 20" fill="none" xmlns="http://www.w3.org/2000/svg">
<path d="M1.66675 10.0003C1.66675 9.27946 1.75841 8.58113 1.93008 7.91363C2.39047 7.93783 2.84858 7.83425 3.25378 7.61435C3.65898 7.39445 3.99548 7.06679 4.22609 6.66758C4.45669 6.26838 4.57242 5.81318 4.56048 5.35231C4.54853 4.89144 4.40939 4.44285 4.15841 4.05613C5.16587 3.06494 6.40908 2.34654 7.77092 1.96863C7.98007 2.37986 8.29895 2.72518 8.69223 2.96639C9.08552 3.20759 9.53789 3.33526 9.99925 3.33526C10.4606 3.33526 10.913 3.20759 11.3063 2.96639C11.6996 2.72518 12.0184 2.37986 12.2276 1.96863C13.5894 2.34654 14.8326 3.06494 15.8401 4.05613C15.5888 4.44292 15.4495 4.89169 15.4374 5.35277C15.4254 5.81384 15.5412 6.26927 15.7719 6.66864C16.0026 7.06801 16.3394 7.39577 16.7448 7.61564C17.1503 7.83551 17.6087 7.93894 18.0693 7.91446C18.2409 8.58113 18.3326 9.27946 18.3326 10.0003C18.3326 10.7211 18.2409 11.4195 18.0693 12.087C17.6088 12.0626 17.1506 12.1661 16.7452 12.3859C16.3399 12.6057 16.0033 12.9334 15.7726 13.3326C15.5419 13.7318 15.4261 14.1871 15.438 14.6481C15.4499 15.109 15.5891 15.5577 15.8401 15.9445C14.8326 16.9357 13.5894 17.654 12.2276 18.032C12.0184 17.6207 11.6996 17.2754 11.3063 17.0342C10.913 16.793 10.4606 16.6653 9.99925 16.6653C9.53789 16.6653 9.08552 16.793 8.69223 17.0342C8.29895 17.2754 7.98007 17.6207 7.77092 18.032C6.40908 17.654 5.16587 16.9357 4.15841 15.9445C4.40967 15.5577 4.54902 15.1089 4.56106 14.6478C4.57309 14.1867 4.45733 13.7313 4.22659 13.332C3.99585 12.9326 3.65913 12.6048 3.25367 12.3849C2.84821 12.1651 2.38983 12.0617 1.92925 12.0861C1.75841 11.4203 1.66675 10.722 1.66675 10.0003ZM5.67008 12.5003C6.19508 13.4095 6.34508 14.4553 6.14008 15.437C6.48008 15.6786 6.84175 15.8878 7.22091 16.062C7.9848 15.3777 8.97451 14.9996 10.0001 15.0003C11.0501 15.0003 12.0317 15.3928 12.7792 16.062C13.1584 15.8878 13.5201 15.6786 13.8601 15.437C13.6496 14.4336 13.817 13.3879 14.3301 12.5003C14.8423 11.6123 15.6643 10.9446 16.6384 10.6253C16.677 10.2095 16.677 9.79107 16.6384 9.37529C15.664 9.05618 14.8416 8.38848 14.3292 7.50029C13.8161 6.61274 13.6488 5.56699 13.8592 4.56363C13.5193 4.3219 13.1575 4.11264 12.7784 3.93863C12.0147 4.62274 11.0254 5.0008 10.0001 5.00029C8.97451 5.00101 7.9848 4.62293 7.22091 3.93863C6.84186 4.11265 6.47999 4.3219 6.14008 4.56363C6.35055 5.56699 6.18319 6.61274 5.67008 7.50029C5.15789 8.38832 4.3359 9.056 3.36175 9.37529C3.32321 9.79107 3.32321 10.2095 3.36175 10.6253C4.33621 10.9444 5.15852 11.6121 5.67091 12.5003H5.67008ZM10.0001 12.5003C9.33704 12.5003 8.70116 12.2369 8.23231 11.7681C7.76347 11.2992 7.50008 10.6633 7.50008 10.0003C7.50008 9.33725 7.76347 8.70137 8.23231 8.23253C8.70116 7.76369 9.33704 7.50029 10.0001 7.50029C10.6631 7.50029 11.299 7.76369 11.7678 8.23253C12.2367 8.70137 12.5001 9.33725 12.5001 10.0003C12.5001 10.6633 12.2367 11.2992 11.7678 11.7681C11.299 12.2369 10.6631 12.5003 10.0001 12.5003ZM10.0001 10.8336C10.2211 10.8336 10.4331 10.7458 10.5893 10.5895C10.7456 10.4333 10.8334 10.2213 10.8334 10.0003C10.8334 9.77928 10.7456 9.56732 10.5893 9.41104C10.4331 9.25476 10.2211 9.16696 10.0001 9.16696C9.77907 9.16696 9.56711 9.25476 9.41083 9.41104C9.25455 9.56732 9.16675 9.77928 9.16675 10.0003C9.16675 10.2213 9.25455 10.4333 9.41083 10.5895C9.56711 10.7458 9.77907 10.8336 10.0001 10.8336Z" fill="#868C98"/>
</svg>
