<svg width="20" height="20" viewBox="0 0 20 20" fill="none" xmlns="http://www.w3.org/2000/svg">
<path d="M10.0001 18.3337C5.39758 18.3337 1.66675 14.6028 1.66675 10.0003C1.66675 5.39783 5.39758 1.66699 10.0001 1.66699C14.6026 1.66699 18.3334 5.39783 18.3334 10.0003C18.3334 14.6028 14.6026 18.3337 10.0001 18.3337ZM10.0001 16.667C11.7682 16.667 13.4639 15.9646 14.7141 14.7144C15.9644 13.4641 16.6667 11.7684 16.6667 10.0003C16.6667 8.23222 15.9644 6.53652 14.7141 5.28628C13.4639 4.03604 11.7682 3.33366 10.0001 3.33366C8.23197 3.33366 6.53628 4.03604 5.28604 5.28628C4.03579 6.53652 3.33341 8.23222 3.33341 10.0003C3.33341 11.7684 4.03579 13.4641 5.28604 14.7144C6.53628 15.9646 8.23197 16.667 10.0001 16.667ZM9.16675 12.5003H10.8334V14.167H9.16675V12.5003ZM10.8334 11.1295V11.667H9.16675V10.417C9.16675 10.196 9.25455 9.98402 9.41083 9.82774C9.56711 9.67146 9.77907 9.58366 10.0001 9.58366C10.2368 9.58364 10.4687 9.51641 10.6687 9.38977C10.8687 9.26313 11.0286 9.0823 11.1299 8.86831C11.2311 8.65433 11.2696 8.41599 11.2407 8.18103C11.2117 7.94607 11.1167 7.72415 10.9666 7.54109C10.8165 7.35802 10.6175 7.22135 10.3928 7.14697C10.168 7.07258 9.92678 7.06355 9.6971 7.12091C9.46743 7.17828 9.25876 7.29969 9.09539 7.47101C8.93201 7.64233 8.82065 7.85652 8.77425 8.08866L7.13925 7.76116C7.24061 7.25456 7.47467 6.78397 7.81752 6.39748C8.16036 6.01099 8.59968 5.72248 9.09057 5.56143C9.58147 5.40037 10.1063 5.37256 10.6115 5.48084C11.1166 5.58911 11.584 5.82959 11.9658 6.17768C12.3475 6.52577 12.63 6.969 12.7843 7.46205C12.9387 7.95509 12.9593 8.48028 12.8441 8.98392C12.729 9.48755 12.4821 9.95157 12.1288 10.3285C11.7756 10.7055 11.3285 10.9819 10.8334 11.1295Z" fill="#356D00"/>
</svg>
