<svg width="20" height="20" viewBox="0 0 20 20" fill="none" xmlns="http://www.w3.org/2000/svg">
<path d="M9.99992 11.6667V13.3334C8.67384 13.3334 7.40207 13.8602 6.46438 14.7978C5.5267 15.7355 4.99992 17.0073 4.99992 18.3334H3.33325C3.33325 16.5653 4.03563 14.8696 5.28587 13.6193C6.53612 12.3691 8.23181 11.6667 9.99992 11.6667ZM9.99992 10.8334C7.23742 10.8334 4.99992 8.59587 4.99992 5.83337C4.99992 3.07087 7.23742 0.833374 9.99992 0.833374C12.7624 0.833374 14.9999 3.07087 14.9999 5.83337C14.9999 8.59587 12.7624 10.8334 9.99992 10.8334ZM9.99992 9.16671C11.8416 9.16671 13.3333 7.67504 13.3333 5.83337C13.3333 3.99171 11.8416 2.50004 9.99992 2.50004C8.15825 2.50004 6.66659 3.99171 6.66659 5.83337C6.66659 7.67504 8.15825 9.16671 9.99992 9.16671ZM12.1624 15.6767C12.0568 15.2321 12.0568 14.7688 12.1624 14.3242L11.3358 13.8467L12.1691 12.4034L12.9958 12.8809C13.3276 12.5666 13.7286 12.3348 14.1666 12.2042V11.25H15.8333V12.2042C16.2766 12.3359 16.6766 12.5709 17.0041 12.8809L17.8308 12.4034L18.6641 13.8467L17.8374 14.3242C17.9429 14.7686 17.9429 15.2315 17.8374 15.6759L18.6641 16.1534L17.8308 17.5967L17.0041 17.1192C16.6723 17.4335 16.2712 17.6653 15.8333 17.7959V18.75H14.1666V17.7959C13.7286 17.6653 13.3276 17.4335 12.9958 17.1192L12.1691 17.5967L11.3358 16.1534L12.1624 15.6767ZM14.9999 16.25C15.3314 16.25 15.6494 16.1183 15.8838 15.8839C16.1182 15.6495 16.2499 15.3316 16.2499 15C16.2499 14.6685 16.1182 14.3506 15.8838 14.1162C15.6494 13.8817 15.3314 13.75 14.9999 13.75C14.6684 13.75 14.3505 13.8817 14.116 14.1162C13.8816 14.3506 13.7499 14.6685 13.7499 15C13.7499 15.3316 13.8816 15.6495 14.116 15.8839C14.3505 16.1183 14.6684 16.25 14.9999 16.25Z" fill="#868C98"/>
</svg>
