<svg width="16" height="16" viewBox="0 0 16 16" fill="none" xmlns="http://www.w3.org/2000/svg">
<path d="M2.66675 14.6665C2.66675 13.252 3.22865 11.8955 4.22885 10.8953C5.22904 9.89507 6.58559 9.33317 8.00008 9.33317C9.41457 9.33317 10.7711 9.89507 11.7713 10.8953C12.7715 11.8955 13.3334 13.252 13.3334 14.6665H12.0001C12.0001 13.6056 11.5787 12.5882 10.8285 11.8381C10.0784 11.0879 9.06095 10.6665 8.00008 10.6665C6.93922 10.6665 5.9218 11.0879 5.17165 11.8381C4.42151 12.5882 4.00008 13.6056 4.00008 14.6665H2.66675ZM8.00008 8.6665C5.79008 8.6665 4.00008 6.8765 4.00008 4.6665C4.00008 2.4565 5.79008 0.666504 8.00008 0.666504C10.2101 0.666504 12.0001 2.4565 12.0001 4.6665C12.0001 6.8765 10.2101 8.6665 8.00008 8.6665ZM8.00008 7.33317C9.47341 7.33317 10.6667 6.13984 10.6667 4.6665C10.6667 3.19317 9.47341 1.99984 8.00008 1.99984C6.52675 1.99984 5.33341 3.19317 5.33341 4.6665C5.33341 6.13984 6.52675 7.33317 8.00008 7.33317Z" fill="#0F1324" fill-opacity="0.6"/>
</svg>
