<svg width="16" height="19" viewBox="0 0 16 19" fill="none" xmlns="http://www.w3.org/2000/svg">
<path d="M6.99992 11.6663V13.333C5.67384 13.333 4.40207 13.8598 3.46438 14.7975C2.5267 15.7352 1.99992 17.0069 1.99992 18.333H0.333252C0.333252 16.5649 1.03563 14.8692 2.28587 13.619C3.53612 12.3687 5.23181 11.6663 6.99992 11.6663ZM6.99992 10.833C4.23742 10.833 1.99992 8.59551 1.99992 5.83301C1.99992 3.07051 4.23742 0.833008 6.99992 0.833008C9.76242 0.833008 11.9999 3.07051 11.9999 5.83301C11.9999 8.59551 9.76242 10.833 6.99992 10.833ZM6.99992 9.16634C8.84159 9.16634 10.3333 7.67467 10.3333 5.83301C10.3333 3.99134 8.84159 2.49967 6.99992 2.49967C5.15825 2.49967 3.66659 3.99134 3.66659 5.83301C3.66659 7.67467 5.15825 9.16634 6.99992 9.16634ZM9.16242 15.6763C9.05676 15.2317 9.05676 14.7685 9.16242 14.3238L8.33575 13.8463L9.16908 12.403L9.99575 12.8805C10.3276 12.5662 10.7286 12.3344 11.1666 12.2038V11.2497H12.8333V12.2038C13.2766 12.3355 13.6766 12.5705 14.0041 12.8805L14.8308 12.403L15.6641 13.8463L14.8374 14.3238C14.9429 14.7682 14.9429 15.2311 14.8374 15.6755L15.6641 16.153L14.8308 17.5963L14.0041 17.1188C13.6723 17.4331 13.2712 17.6649 12.8333 17.7955V18.7497H11.1666V17.7955C10.7286 17.6649 10.3276 17.4331 9.99575 17.1188L9.16908 17.5963L8.33575 16.153L9.16242 15.6763ZM11.9999 16.2497C12.3314 16.2497 12.6494 16.118 12.8838 15.8836C13.1182 15.6491 13.2499 15.3312 13.2499 14.9997C13.2499 14.6682 13.1182 14.3502 12.8838 14.1158C12.6494 13.8814 12.3314 13.7497 11.9999 13.7497C11.6684 13.7497 11.3505 13.8814 11.116 14.1158C10.8816 14.3502 10.7499 14.6682 10.7499 14.9997C10.7499 15.3312 10.8816 15.6491 11.116 15.8836C11.3505 16.118 11.6684 16.2497 11.9999 16.2497Z" fill="#356D00"/>
</svg>
