<svg width="20" height="20" viewBox="0 0 20 20" fill="none" xmlns="http://www.w3.org/2000/svg">
<path d="M9.99998 11.6668V13.3335C8.6739 13.3335 7.40213 13.8603 6.46445 14.798C5.52676 15.7356 4.99998 17.0074 4.99998 18.3335H3.33331C3.33331 16.5654 4.03569 14.8697 5.28593 13.6195C6.53618 12.3692 8.23187 11.6668 9.99998 11.6668ZM9.99998 10.8335C7.23748 10.8335 4.99998 8.596 4.99998 5.8335C4.99998 3.071 7.23748 0.833496 9.99998 0.833496C12.7625 0.833496 15 3.071 15 5.8335C15 8.596 12.7625 10.8335 9.99998 10.8335ZM9.99998 9.16683C11.8416 9.16683 13.3333 7.67516 13.3333 5.8335C13.3333 3.99183 11.8416 2.50016 9.99998 2.50016C8.15831 2.50016 6.66665 3.99183 6.66665 5.8335C6.66665 7.67516 8.15831 9.16683 9.99998 9.16683ZM12.1625 15.6768C12.0568 15.2322 12.0568 14.769 12.1625 14.3243L11.3358 13.8468L12.1691 12.4035L12.9958 12.881C13.3276 12.5667 13.7287 12.3349 14.1666 12.2043V11.2502H15.8333V12.2043C16.2766 12.336 16.6766 12.571 17.0041 12.881L17.8308 12.4035L18.6641 13.8468L17.8375 14.3243C17.943 14.7687 17.943 15.2316 17.8375 15.676L18.6641 16.1535L17.8308 17.5968L17.0041 17.1193C16.6723 17.4336 16.2713 17.6654 15.8333 17.796V18.7502H14.1666V17.796C13.7287 17.6654 13.3276 17.4336 12.9958 17.1193L12.1691 17.5968L11.3358 16.1535L12.1625 15.6768ZM15 16.2502C15.3315 16.2502 15.6494 16.1185 15.8839 15.884C16.1183 15.6496 16.25 15.3317 16.25 15.0002C16.25 14.6686 16.1183 14.3507 15.8839 14.1163C15.6494 13.8819 15.3315 13.7502 15 13.7502C14.6685 13.7502 14.3505 13.8819 14.1161 14.1163C13.8817 14.3507 13.75 14.6686 13.75 15.0002C13.75 15.3317 13.8817 15.6496 14.1161 15.884C14.3505 16.1185 14.6685 16.2502 15 16.2502Z" fill="#868C98"/>
</svg>
