<svg width="49" height="48" viewBox="0 0 49 48" fill="none" xmlns="http://www.w3.org/2000/svg">
<path d="M29.0992 28.4421C26.2497 29.5144 23.0567 29.5163 20.2071 28.4428C19.1335 25.5964 19.1333 22.4039 20.2055 19.5571C23.0543 18.4831 26.2505 18.4829 29.0993 19.557C30.1725 22.4029 30.1721 25.5961 29.0992 28.4421ZM45.3745 20.4993H33.1085L41.7814 11.8314C40.4203 9.92066 38.7399 8.24215 36.8279 6.88183L28.1544 15.5497V3.29165C25.8395 2.90249 23.4655 2.90308 21.1506 3.29165V15.5497L12.4771 6.88183C10.5656 8.24122 8.88466 9.92204 7.52344 11.8314L16.1976 20.4993H3.93175C3.62898 22.8821 3.53061 25.1214 3.93175 27.4992H16.1978L7.5236 36.1672C8.88812 38.0808 10.5622 39.7538 12.4771 41.1174L21.1506 32.4488V44.7076C23.4657 45.0953 25.8391 45.0955 28.1542 44.7076V32.4488L36.8286 41.1174C38.7414 39.7558 40.4188 38.0786 41.7814 36.1672L33.1072 27.4992H45.3745C45.7638 25.1879 45.7638 22.8107 45.3745 20.4993Z" fill="#FF4A00"/>
</svg>
